<?xml version="1.0" encoding="UTF-8" standalone="no"?>
<!-- Created with Inkscape (http://www.inkscape.org/) -->

<svg
   xmlns:dc="http://purl.org/dc/elements/1.1/"
   xmlns:cc="http://creativecommons.org/ns#"
   xmlns:rdf="http://www.w3.org/1999/02/22-rdf-syntax-ns#"
   xmlns:svg="http://www.w3.org/2000/svg"
   xmlns="http://www.w3.org/2000/svg"
   xmlns:sodipodi="http://sodipodi.sourceforge.net/DTD/sodipodi-0.dtd"
   xmlns:inkscape="http://www.inkscape.org/namespaces/inkscape"
   width="430"
   height="480"
   id="svg2985"
   version="1.1"
   inkscape:version="0.48.4 r9939"
   sodipodi:docname="dibujoeditcolaboradores.svg"
   inkscape:export-filename="/home/alvin/dibujo-2.png"
   inkscape:export-xdpi="90"
   inkscape:export-ydpi="90">
  <defs
     id="defs2987" />
  <sodipodi:namedview
     id="base"
     pagecolor="#ffffff"
     bordercolor="#666666"
     borderopacity="1.0"
     inkscape:pageopacity="0.0"
     inkscape:pageshadow="2"
     inkscape:zoom="0.78223688"
     inkscape:cx="322.18956"
     inkscape:cy="232.5558"
     inkscape:current-layer="layer1"
     inkscape:document-units="px"
     showgrid="false"
     inkscape:snap-grids="true"
     inkscape:snap-to-guides="true"
     inkscape:snap-page="false"
     inkscape:window-width="1360"
     inkscape:window-height="705"
     inkscape:window-x="-8"
     inkscape:window-y="-8"
     inkscape:window-maximized="1" />
  <metadata
     id="metadata2990">
    <rdf:RDF>
      <cc:Work
         rdf:about="">
        <dc:format>image/svg+xml</dc:format>
        <dc:type
           rdf:resource="http://purl.org/dc/dcmitype/StillImage" />
        <dc:title></dc:title>
      </cc:Work>
    </rdf:RDF>
  </metadata>
  <g
     inkscape:groupmode="layer"
     id="layer2"
     inkscape:label="Capa" />
  <g
     id="layer1"
     inkscape:label="Layer 1"
     inkscape:groupmode="layer">
    <g
       id="layer1-4"
       inkscape:label="Capa 1"
       transform="translate(-149.16057,-264.15217)"
       inkscape:export-filename="/home/alvin/path3007.png"
       inkscape:export-xdpi="90"
       inkscape:export-ydpi="90">
      <path
         style="fill:#0b556a"
         d="m 343.32563,727.0175 c -10.12637,-1.05869 -34.48337,-6.73544 -44.704,-10.41893 -5.72368,-2.0628 -17.41564,-7.41163 -25.98213,-11.8863 -55.10871,-28.78576 -94.00997,-82.35746 -105.11868,-144.76105 -3.68764,-20.71543 -3.35727,-54.25528 0.72802,-73.90827 12.6976,-61.08408 48.68067,-110.36152 101.9017,-139.55051 l 13.65555,-7.48937 1.01563,-10.38 c 0.84574,-8.64351 1.65847,-10.93988 4.85821,-13.72672 3.41701,-2.97609 5.43001,-3.34673 18.17592,-3.34673 9.18247,0 15.21231,-0.66817 16.77924,-1.85929 1.90264,-1.44635 2.53623,-4.83251 2.85272,-15.24621 l 0.40683,-13.38691 38.21008,0 38.21008,0 0.40684,13.38691 c 0.31648,10.4137 0.95007,13.79986 2.85272,15.24621 1.56692,1.19112 7.59676,1.85929 16.77923,1.85929 12.89649,0 14.73291,0.34787 18.31931,3.47014 3.39171,2.9528 4.11601,4.9999 4.85821,13.73089 l 0.87225,10.26072 10.28733,5.64074 c 58.15693,31.88854 95.4031,84.52988 106.01463,149.83429 3.01436,18.55062 1.9256,54.76502 -2.19175,72.90199 -12.93586,56.98277 -46.14026,103.13018 -95.57414,132.82877 -35.09468,21.08397 -81.68138,31.18429 -123.6138,26.80034 z m 58.38361,-14.58037 c 37.71822,-7.3519 69.30877,-24.4506 97.55098,-52.80042 37.34153,-37.48379 55.66773,-82.09794 55.68457,-135.56094 0.0148,-46.94978 -15.49939,-88.86077 -46.40833,-125.37045 -14.8848,-17.58193 -49.68797,-44.02009 -57.94802,-44.02009 -2.80659,0 -2.92011,1.05342 -2.92539,27.14569 -0.004,24.15844 -0.31645,27.66182 -2.83125,31.83606 -3.84608,6.38399 -12.60965,8.57442 -32.8015,8.19865 -32.49209,-0.60467 -80.24565,-0.89694 -95.72071,-0.009 -10.80512,0.20485 -25.12984,0.44302 -29.63535,-9.84836 -1.58944,-3.85018 -2.13335,-11.81635 -2.13335,-31.24558 0,-30.44224 0.6761,-29.54758 -15.22299,-20.14405 -47.60539,28.15624 -81.3005,78.31452 -90.01355,133.99341 -4.82506,30.83357 -0.9305,69.92825 9.76883,98.06231 20.44071,53.74905 65.61268,96.58107 120.45123,114.21171 12.14131,3.90345 19.60882,5.45309 40.41451,8.38671 8.54922,1.20545 39.82613,-0.50796 51.77032,-2.83608 z m -35.60452,-402.7469 c 3.23316,0 7.59274,0.4762 9.68798,1.05822 5.27002,1.46393 8.68225,-2.31325 8.68225,-9.61087 0,-9.0288 -2.44049,-10.41204 -18.37023,-10.41204 -15.92974,0 -18.37023,1.38324 -18.37023,10.41204 0,7.29762 3.41223,11.0748 8.68226,9.61087 2.09523,-0.58202 6.45481,-1.05822 9.68797,-1.05822 z"
         id="path3114"
         inkscape:connector-curvature="0"
         sodipodi:nodetypes="sssssscssssscccssssscsssssssssscssccssssssssssssss" />
      <path
         sodipodi:nodetypes="cssccsscsscsscccccccccscccccscccscsccscscscscccscccsccccsssssscsssccccscssscscscccssssssssss"
         style="fill:#ffffff;fill-opacity:1;stroke:none;marker-end:none"
         d="m 375.29308,409.78929 c 1.67674,-0.97558 2.79416,-2.49398 3.27377,-4.44856 0.23537,-0.95923 0.30852,-13.00665 0.2472,-40.71747 l -0.0871,-39.35516 -0.70307,-1.50988 c -0.88962,-1.91042 -1.72962,-2.81347 -3.27293,-3.51848 -1.15449,-0.5274 -2.49791,-0.55889 -23.85606,-0.55889 -21.40369,0 -22.69913,0.0305 -23.85609,0.56185 -1.51503,0.69579 -3.00595,2.22004 -3.73112,3.81448 -0.51954,1.14234 -0.55592,3.39723 -0.64224,39.80926 -0.0666,28.0526 0.004,39.09257 0.25833,40.40728 0.42143,2.17902 1.14815,3.65045 2.37038,4.79942 1.85151,1.7405 1.27026,1.70388 25.90659,1.63171 l 22.63266,-0.0663 1.45964,-0.84925 z m -25.63545,-5.7971 c -1.12834,-1.11685 -0.89669,-2.76978 0.49125,-3.505 0.89481,-0.47403 1.81272,-0.0687 2.26723,1.00135 0.46808,1.1019 0.10743,2.48631 -0.76863,2.95038 -0.83681,0.4433 -1.16514,0.36959 -1.98985,-0.44673 z m -20.48899,-9.62345 c -0.0804,-0.20925 -0.11111,-14.82078 -0.0676,-32.47006 l 0.0788,-32.08959 21.64007,-0.0776 21.64006,-0.0777 -0.0777,32.47005 -0.0778,32.47003 -21.49456,0.0778 c -17.03357,0.0616 -21.52495,-9e-4 -21.641,-0.30273 z m 28.24082,-16.33444 c 0.24973,-0.24718 0.36702,-1.6881 0.36702,-4.50859 0,-3.50073 0.0751,-4.17389 0.48378,-4.32908 0.26609,-0.101 2.23421,-0.18374 4.3736,-0.18374 2.61764,0 4.00989,-0.11885 4.25687,-0.36329 0.45076,-0.44617 0.51282,-11.95661 0.0682,-12.6542 -0.23055,-0.36175 -1.19352,-0.47402 -4.73593,-0.55211 l -4.44652,-0.098 0,-4.08445 c 0,-2.24646 -0.14256,-4.34797 -0.3166,-4.67003 -0.29712,-0.54946 -0.70013,-0.58556 -6.53829,-0.58556 -4.77307,0 -6.29949,0.0928 -6.55594,0.39871 -0.19646,0.2343 -0.36955,2.13793 -0.41977,4.61667 l -0.0855,4.21795 -4.34422,0.15137 c -2.46893,0.086 -4.48509,0.2913 -4.67055,0.47554 -0.21583,0.21443 -0.29828,2.46909 -0.24347,6.66011 l 0.0827,6.33592 4.28185,0.15137 c 2.35502,0.0833 4.45391,0.26158 4.66415,0.39629 0.2754,0.17639 0.38233,1.41133 0.38233,4.41484 0,2.29344 0.0918,4.26074 0.20391,4.37175 0.38721,0.38328 12.79526,0.23141 13.19219,-0.16146 z m 50.23063,5.87061 c 4.45465,-5.25255 7.25893,-10.5891 8.87457,-16.88825 3.03957,-11.85081 0.93903,-23.90522 -5.95069,-34.14911 -2.07076,-3.0789 -5.25147,-6.53989 -6.01024,-6.53989 -0.6311,0 -5.18205,5.36198 -5.18205,6.10553 0,0.2397 0.49213,0.90527 1.0936,1.47908 3.89849,3.71909 7.38497,10.39623 8.51953,16.31627 0.62087,3.23958 0.6283,9.56136 0.0132,12.48286 -1.28506,6.11828 -3.78924,11.10906 -7.93507,15.81432 -1.09924,1.24755 -1.99859,2.39945 -1.99859,2.55978 0,0.16034 1.04723,1.60399 2.3272,3.20815 1.78432,2.23625 2.4757,2.89505 2.96387,2.82419 0.36737,-0.0532 1.75619,-1.41242 3.2832,-3.21293 z m -10.49259,-8.76169 c 8.34297,-9.63993 9.53029,-22.39281 3.07941,-33.07567 -1.74567,-2.89088 -4.58957,-5.91456 -5.22745,-5.55789 -0.80206,0.4485 -4.19148,5.00218 -4.19148,5.63126 0,0.32817 0.62641,1.28632 1.39205,2.12922 1.60072,1.76227 3.59914,5.69082 4.08563,8.0317 0.4768,2.29428 0.41142,6.89411 -0.12786,9.00346 -0.67429,2.6367 -2.38075,5.80152 -4.30689,7.98757 -0.92924,1.05463 -1.62255,2.09032 -1.54068,2.30152 0.082,0.2112 1.01879,1.48543 2.08201,2.83163 1.34172,1.69883 2.1344,2.4492 2.59103,2.45277 0.426,0.003 1.18889,-0.60844 2.16439,-1.73557 z m -9.65267,-8.80685 c 4.93355,-5.43143 5.02089,-14.11843 0.19397,-19.30165 -0.68231,-0.73271 -1.45993,-1.3322 -1.72801,-1.3322 -0.60241,0 -4.0224,3.30357 -4.0224,3.88548 0,0.23265 0.47799,1.0675 1.06218,1.85523 1.40557,1.89528 2.06774,4.39944 1.68774,6.38271 -0.33876,1.76813 -1.20293,3.53859 -2.134,4.37209 -1.44525,1.29378 -1.40184,1.5412 0.63994,3.64586 1.04477,1.07694 2.14028,1.95806 2.43446,1.95806 0.29417,0 1.13392,-0.6595 1.86612,-1.46558 z"
         id="path3373"
         inkscape:connector-curvature="0" />
    </g>
    <path
       sodipodi:nodetypes="cssscssssssssscssscsssssssssssssssscsssssssssssscsssscssssssssssssscssccssssssssscssssss"
       inkscape:connector-curvature="0"
       id="path3013"
       d="m 94.085,241.62817 c 35.59523,15.56728 34.92222,19.9557 75.104,27.59691 9.30114,1.76876 37.69919,-11.47345 53.73476,-13.08417 24.46215,-2.45715 38.51801,14.92446 56.57005,11.30542 44.24712,-8.8706 67.08478,-28.9731 97.14826,-42.08931 1.81646,9.47507 4.06829,62.38912 1.28805,65.64213 -21.01201,24.58503 -78.48429,35.86104 -80.33089,37.77339 -7.89783,8.17906 -17.40095,6.93878 -18.97831,9.15668 -8.2075,11.54046 -9.74483,9.96407 -16.68367,13.89949 -4.912,2.78589 -4.64699,4.06013 -9.29873,7.65183 -7.76188,5.99307 -8.49314,-11.83317 -24.75814,-2.47101 -9.1902,5.2899 -10.11701,8.84293 -16.05,4.87597 -5.55015,-3.71097 -5.79312,-6.95846 -6.68747,-6.59356 -6.76455,2.75997 -7.82337,-2.59606 -15.81171,-5.1735 -10.04051,-3.23958 -4.9942,4.81104 -16.85429,-6.2032 -9.61833,2.18062 -16.10648,-3.46678 -17.35465,-12.21849 -0.4869,-3.41393 -8.97347,-3.88687 -12.74633,-5.29683 -71.71964,-26.80237 -86.57209,-5.75776 -85.22419,-40.33647 2.16472,-55.53347 -1.83167,-5.5339 1.83516,-60.52124 M 220.51964,353.6873 c 2.4343,-6.88444 -0.87504,-11.03662 -5.84278,-6.56518 -3.6009,3.24116 -4.08556,8.48661 -1.74249,10.81699 2.46948,2.45612 5.90286,0.50621 7.58527,-4.25181 z m 31.44963,-1.06242 c 3.04233,-2.09079 6.47624,0.0177 -10.45527,-10.36024 -5.6224,-3.44602 -10.22252,-7.3977 -10.22252,-8.78153 0,-3.90273 2.81437,-3.07752 15.54114,4.55684 8.09476,4.85578 11.81917,6.46764 16.32382,6.46764 6.93016,0 11.92653,-4.67278 7.31338,-6.34008 -1.33237,-0.48155 -2.77729,-1.30635 -7.17742,-2.81917 -9.22099,-3.1703 -21.33395,-10.69189 -21.33395,-13.24741 0,-2.98137 5.27312,-1.92739 13.05747,2.60988 12.81169,7.46754 34.58209,9.13414 32.51468,2.96548 -0.35944,-1.07248 -4.0681,-2.56276 -10.7205,-4.79117 -7.29755,-2.44449 -16.21153,-7.26801 -22.47236,-12.1602 -10.63469,-8.30989 -26.9397,-16.8423 -32.24368,-16.8731 -1.63628,-0.009 -6.57443,2.71535 -10.97369,6.05522 -10.00863,7.59844 -17.72201,11.60968 -22.32486,11.60968 -5.76238,0 -12.08302,-3.61727 -14.13055,-8.08679 -1.67566,-3.65775 -0.9415,-5.28977 6.0768,-13.5087 4.39047,-5.14154 12.96014,-12.29037 19.04368,-15.88627 6.08356,-3.59588 12.66104,-7.78161 14.61666,-9.30164 3.3458,-2.60059 3.13595,-2.69505 -3.55567,-1.60054 -3.91122,0.63975 -14.29842,3.91426 -23.08266,7.27668 -12.36479,4.73298 -17.80763,5.93799 -24.10329,5.33632 -7.8172,-0.74707 -49.34852,-18.03155 -80.33383,-33.43331 -7.55629,-3.75598 -14.57455,-6.82904 -15.59611,-6.82904 -1.24064,0 -1.6965,10.60465 -1.37285,31.9364 l -1.22677,29.5405 50.82984,14.00735 c 35.41938,9.76064 45.64829,11.64276 49.77039,14.75983 6.74721,5.10211 5.65869,8.10331 12.59346,4.14484 5.2026,-2.96974 7.96858,-4.55681 13.14797,-0.74822 2.94396,2.16478 6.59271,3.45414 8.12254,2.87028 1.52765,-0.58305 4.74327,0.22096 7.14584,1.78666 2.40257,1.56572 6.28145,2.84674 8.61977,2.84674 2.33829,0 11.82327,4.07377 16.11955,7.32689 7.28511,5.51621 14.08596,9.55206 16.12199,9.65219 0.48891,0.024 2.90028,0.026 4.367,-0.98201 z m -47.56649,-3.68309 c 3.19886,-4.85567 2.10564,-9.13362 -1.97854,-9.13362 -3.19543,0 -6.93985,4.47333 -6.93985,8.78364 0,4.71791 5.52588,5.4996 8.91839,0.34998 z m -15.59479,-6.11159 c 3.21738,-4.88377 1.28815,-8.52842 -2.8497,-8.52842 -3.52438,0 -7.96107,7.47137 -6.64805,10.87455 1.55761,4.03706 6.24457,2.59199 9.49775,-2.34613 z m -18.36598,-5.32189 c -0.85685,-2.31811 -0.78569,-2.70588 -2.99702,-4.24638 -4.17565,-2.90895 -6.93105,-0.10166 -5.07393,4.7118 1.1169,2.89486 4.05668,4.49855 5.63696,1.95544 z m 168.30078,-31.59135 c 18.10174,-8.00996 30.72839,-13.39109 32.2511,-15.63414 3.32487,-4.89775 1.93115,-56.72195 0.32235,-56.72195 -0.99453,0 -17.3199,7.95826 -40.9888,19.65758 -23.66888,11.6993 -45.99761,21.74367 -49.61936,22.32086 -5.09237,0.8115 -10.23324,-0.40289 -22.6796,-5.35752 -8.85201,-3.5238 -18.28912,-6.40706 -20.97133,-6.40721 -8.67787,-5.6e-4 -37.62079,15.87507 -47.95931,26.3064 -7.45027,7.51714 -8.99933,10.01629 -7.39791,11.93546 1.11403,1.33508 4.12764,2.42323 6.69687,2.4181 4.59888,-0.009 6.63775,-1.08842 21.41642,-11.33674 4.09041,-2.83652 9.6332,-5.15731 12.31731,-5.15731 7.13407,0 22.60459,7.60327 35.9306,17.65872 7.48007,5.64425 15.44431,9.86874 22.22288,11.78772 5.8106,1.64498 11.76478,3.81091 13.23149,4.8132 4.68907,3.20428 11.56407,-1.38731 45.22729,-16.28317 z"
       style="fill:#0b556a;fill-opacity:1"
       inkscape:export-filename="/home/alvin/path3007.png"
       inkscape:export-xdpi="90"
       inkscape:export-ydpi="90" />
    <path
       inkscape:connector-curvature="0"
       id="path3373-7"
       d="m 331.91001,329.19691 c 0.5028,-0.51995 0.73894,-3.551 0.73894,-9.48411 0,-7.36399 0.15121,-8.78004 0.97402,-9.10649 0.53574,-0.21245 13.06882,-1.15071 17.37616,-1.15071 5.27022,0 -0.49726,0.51419 0,0 0.45377,-0.46926 0.71189,-6.75713 0.74467,-13.11111 0.0328,-6.35398 -0.15977,-12.77408 -0.60737,-13.50778 -0.46418,-0.76095 -2.40296,-0.99713 -9.53507,-1.16139 l -8.95241,-0.20619 0,-8.59189 c 0,-4.72557 -0.28703,-9.14622 -0.63743,-9.8237 -0.5982,-1.15584 -1.40961,-1.23177 -13.16385,-1.23177 -9.60987,0 -12.68309,0.19522 -13.19941,0.83873 -0.39554,0.49284 -0.74403,4.49725 -0.84514,9.71145 l -0.17215,8.87272 -8.74644,0.3184 c -4.97081,0.18081 -9.03005,0.61277 -9.40344,1.00033 -0.43455,0.45108 -0.60055,5.1939 -0.4902,14.00997 l 0.16651,13.32798 8.62086,0.31843 c 4.74148,0.17517 8.96727,0.55026 9.39056,0.83363 0.55448,0.37104 0.76976,2.96882 0.76976,9.28688 0,4.82439 0.18484,8.96275 0.41055,9.19627 0.7796,0.80623 25.76134,0.48676 26.5605,-0.33965 z"
       style="fill:#ffffff;fill-opacity:1;fill-rule:nonzero;stroke:#0b556a;stroke-width:7;stroke-miterlimit:4;stroke-opacity:1;stroke-dasharray:none;marker-end:none"
       sodipodi:nodetypes="cscscscscscscscccscccsccc" />
  </g>
</svg>
