<?xml version="1.0" encoding="UTF-8" standalone="no"?>
<!-- Created with Inkscape (http://www.inkscape.org/) -->

<svg
   xmlns:dc="http://purl.org/dc/elements/1.1/"
   xmlns:cc="http://creativecommons.org/ns#"
   xmlns:rdf="http://www.w3.org/1999/02/22-rdf-syntax-ns#"
   xmlns:svg="http://www.w3.org/2000/svg"
   xmlns="http://www.w3.org/2000/svg"
   xmlns:sodipodi="http://sodipodi.sourceforge.net/DTD/sodipodi-0.dtd"
   xmlns:inkscape="http://www.inkscape.org/namespaces/inkscape"
   width="430"
   height="480"
   id="svg2"
   version="1.1"
   inkscape:version="0.48.4 r9939"
   sodipodi:docname="dibujoaddnoticias.svg">
  <defs
     id="defs4" />
  <sodipodi:namedview
     id="base"
     pagecolor="#ffffff"
     bordercolor="#666666"
     borderopacity="1.0"
     inkscape:pageopacity="0.0"
     inkscape:pageshadow="2"
     inkscape:zoom="0.7"
     inkscape:cx="19.367854"
     inkscape:cy="118.56327"
     inkscape:document-units="px"
     inkscape:current-layer="layer1"
     showgrid="false"
     inkscape:object-paths="true"
     inkscape:snap-midpoints="true"
     inkscape:window-width="1360"
     inkscape:window-height="705"
     inkscape:window-x="-8"
     inkscape:window-y="-8"
     inkscape:window-maximized="1" />
  <metadata
     id="metadata7">
    <rdf:RDF>
      <cc:Work
         rdf:about="">
        <dc:format>image/svg+xml</dc:format>
        <dc:type
           rdf:resource="http://purl.org/dc/dcmitype/StillImage" />
        <dc:title />
      </cc:Work>
    </rdf:RDF>
  </metadata>
  <g
     inkscape:label="Capa 1"
     inkscape:groupmode="layer"
     id="layer1"
     transform="translate(0,-572.36218)">
    <path
       sodipodi:nodetypes="sssssscssssscccssssscsssssssssscssccssssssssssssss"
       inkscape:connector-curvature="0"
       id="path3114"
       d="m 193.82305,1036.1242 c -10.12637,-1.0587 -34.48337,-6.7355 -44.704,-10.419 -5.72368,-2.0628 -17.41564,-7.4116 -25.98213,-11.8863 -55.108706,-28.78571 -94.009966,-82.35741 -105.118676,-144.761 -3.68764,-20.71543 -3.35727,-54.25528 0.72802,-73.90827 12.6976,-61.08408 48.68067,-110.36152 101.901696,-139.55051 l 13.65555,-7.48937 1.01563,-10.38 c 0.84574,-8.64351 1.65847,-10.93988 4.85821,-13.72672 3.41701,-2.97609 5.43001,-3.34673 18.17592,-3.34673 9.18247,0 15.21231,-0.66817 16.77924,-1.85929 1.90264,-1.44635 2.53623,-4.83251 2.85272,-15.24621 l 0.40683,-13.38691 38.21008,0 38.21008,0 0.40684,13.38691 c 0.31648,10.4137 0.95007,13.79986 2.85272,15.24621 1.56692,1.19112 7.59676,1.85929 16.77923,1.85929 12.89649,0 14.73291,0.34787 18.31931,3.47014 3.39171,2.9528 4.11601,4.9999 4.85821,13.73089 l 0.87225,10.26072 10.28733,5.64074 c 58.15693,31.88854 95.4031,84.52988 106.01463,149.83429 3.01436,18.55062 1.9256,54.76502 -2.19175,72.90199 -12.93586,56.98277 -46.14026,103.13018 -95.57414,132.82873 -35.09468,21.084 -81.68138,31.1843 -123.6138,26.8004 z m 58.38361,-14.5804 c 37.71822,-7.3519 69.30877,-24.45059 97.55098,-52.80041 37.34153,-37.48379 55.66773,-82.09794 55.68457,-135.56094 0.0148,-46.94978 -15.49939,-88.86077 -46.40833,-125.37045 -14.8848,-17.58193 -49.68797,-44.02009 -57.94802,-44.02009 -2.80659,0 -2.92011,1.05342 -2.92539,27.14569 -0.004,24.15844 -0.31645,27.66182 -2.83125,31.83606 -3.84608,6.38399 -12.60965,8.57442 -32.8015,8.19865 -32.49209,-0.60467 -80.24565,-0.89694 -95.72071,-0.009 -10.80512,0.20485 -25.12984,0.44302 -29.63535,-9.84836 -1.58944,-3.85018 -2.13335,-11.81635 -2.13335,-31.24558 0,-30.44224 0.6761,-29.54758 -15.22299,-20.14405 -47.605386,28.15624 -81.300496,78.31452 -90.013546,133.99341 -4.82506,30.83357 -0.9305,69.92825 9.76883,98.06231 20.44071,53.74905 65.612676,96.58107 120.451226,114.21166 12.14131,3.9035 19.60882,5.4531 40.41451,8.3868 8.54922,1.2054 39.82613,-0.508 51.77032,-2.8361 z M 216.60214,618.79691 c 3.23316,0 7.59274,0.4762 9.68798,1.05822 5.27002,1.46393 8.68225,-2.31325 8.68225,-9.61087 0,-9.0288 -2.44049,-10.41204 -18.37023,-10.41204 -15.92974,0 -18.37023,1.38324 -18.37023,10.41204 0,7.29762 3.41223,11.0748 8.68226,9.61087 2.09523,-0.58202 6.45481,-1.05822 9.68797,-1.05822 z"
       style="fill:#0b556a" />
    <path
       inkscape:connector-curvature="0"
       id="path3373"
       d="m 225.7905,718.89597 c 1.67674,-0.97558 2.79416,-2.49398 3.27377,-4.44856 0.23537,-0.95923 0.30852,-13.00665 0.2472,-40.71747 l -0.0871,-39.35516 -0.70307,-1.50988 c -0.88962,-1.91042 -1.72962,-2.81347 -3.27293,-3.51848 -1.15449,-0.5274 -2.49791,-0.55889 -23.85606,-0.55889 -21.40369,0 -22.69913,0.0305 -23.85609,0.56185 -1.51503,0.69579 -3.00595,2.22004 -3.73112,3.81448 -0.51954,1.14234 -0.55592,3.39723 -0.64224,39.80926 -0.0666,28.0526 0.004,39.09257 0.25833,40.40728 0.42143,2.17902 1.14815,3.65045 2.37038,4.79942 1.85151,1.7405 1.27026,1.70388 25.90659,1.63171 l 22.63266,-0.0663 1.45964,-0.84925 z m -25.63545,-5.7971 c -1.12834,-1.11685 -0.89669,-2.76978 0.49125,-3.505 0.89481,-0.47403 1.81272,-0.0687 2.26723,1.00135 0.46808,1.1019 0.10743,2.48631 -0.76863,2.95038 -0.83681,0.4433 -1.16514,0.36959 -1.98985,-0.44673 z m -20.48899,-9.62345 c -0.0804,-0.20925 -0.11111,-14.82078 -0.0676,-32.47006 l 0.0788,-32.08959 21.64007,-0.0776 21.64006,-0.0777 -0.0777,32.47005 -0.0778,32.47003 -21.49456,0.0778 c -17.03357,0.0616 -21.52495,-9e-4 -21.641,-0.30273 z m 28.24082,-16.33444 c 0.24973,-0.24718 0.36702,-1.6881 0.36702,-4.50859 0,-3.50073 0.0751,-4.17389 0.48378,-4.32908 0.26609,-0.101 2.23421,-0.18374 4.3736,-0.18374 2.61764,0 4.00989,-0.11885 4.25687,-0.36329 0.45076,-0.44617 0.51282,-11.95661 0.0682,-12.6542 -0.23055,-0.36175 -1.19352,-0.47402 -4.73593,-0.55211 l -4.44652,-0.098 0,-4.08445 c 0,-2.24646 -0.14256,-4.34797 -0.3166,-4.67003 -0.29712,-0.54946 -0.70013,-0.58556 -6.53829,-0.58556 -4.77307,0 -6.29949,0.0928 -6.55594,0.39871 -0.19646,0.2343 -0.36955,2.13793 -0.41977,4.61667 l -0.0855,4.21795 -4.34422,0.15137 c -2.46893,0.086 -4.48509,0.2913 -4.67055,0.47554 -0.21583,0.21443 -0.29828,2.46909 -0.24347,6.66011 l 0.0827,6.33592 4.28185,0.15137 c 2.35502,0.0833 4.45391,0.26158 4.66415,0.39629 0.2754,0.17639 0.38233,1.41133 0.38233,4.41484 0,2.29344 0.0918,4.26074 0.20391,4.37175 0.38721,0.38328 12.79526,0.23141 13.19219,-0.16146 z m 50.23063,5.87061 c 4.45465,-5.25255 7.25893,-10.5891 8.87457,-16.88825 3.03957,-11.85081 0.93903,-23.90522 -5.95069,-34.14911 -2.07076,-3.0789 -5.25147,-6.53989 -6.01024,-6.53989 -0.6311,0 -5.18205,5.36198 -5.18205,6.10553 0,0.2397 0.49213,0.90527 1.0936,1.47908 3.89849,3.71909 7.38497,10.39623 8.51953,16.31627 0.62087,3.23958 0.6283,9.56136 0.0132,12.48286 -1.28506,6.11828 -3.78924,11.10906 -7.93507,15.81432 -1.09924,1.24755 -1.99859,2.39945 -1.99859,2.55978 0,0.16034 1.04723,1.60399 2.3272,3.20815 1.78432,2.23625 2.4757,2.89505 2.96387,2.82419 0.36737,-0.0532 1.75619,-1.41242 3.2832,-3.21293 z m -10.49259,-8.76169 c 8.34297,-9.63993 9.53029,-22.39281 3.07941,-33.07567 -1.74567,-2.89088 -4.58957,-5.91456 -5.22745,-5.55789 -0.80206,0.4485 -4.19148,5.00218 -4.19148,5.63126 0,0.32817 0.62641,1.28632 1.39205,2.12922 1.60072,1.76227 3.59914,5.69082 4.08563,8.0317 0.4768,2.29428 0.41142,6.89411 -0.12786,9.00346 -0.67429,2.6367 -2.38075,5.80152 -4.30689,7.98757 -0.92924,1.05463 -1.62255,2.09032 -1.54068,2.30152 0.082,0.2112 1.01879,1.48543 2.08201,2.83163 1.34172,1.69883 2.1344,2.4492 2.59103,2.45277 0.426,0.003 1.18889,-0.60844 2.16439,-1.73557 z m -9.65267,-8.80685 c 4.93355,-5.43143 5.02089,-14.11843 0.19397,-19.30165 -0.68231,-0.73271 -1.45993,-1.3322 -1.72801,-1.3322 -0.60241,0 -4.0224,3.30357 -4.0224,3.88548 0,0.23265 0.47799,1.0675 1.06218,1.85523 1.40557,1.89528 2.06774,4.39944 1.68774,6.38271 -0.33876,1.76813 -1.20293,3.53859 -2.134,4.37209 -1.44525,1.29378 -1.40184,1.5412 0.63994,3.64586 1.04477,1.07694 2.14028,1.95806 2.43446,1.95806 0.29417,0 1.13392,-0.6595 1.86612,-1.46558 z"
       style="fill:#ffffff;fill-opacity:1;stroke:none;marker-end:none"
       sodipodi:nodetypes="cssccsscsscsscccccccccscccccscccscsccscscscscccscccsccccsssssscsssccccscssscscscccssssssssss" />
    <path
       inkscape:connector-curvature="0"
       id="path5850"
       d="m 139.8362,968.25232 c -6.71731,-2.63492 -10.95342,-7.41532 -13.24924,-14.95173 1.71196,-47.04792 -2.90123,-94.24303 -0.65533,-141.26206 0.0987,-3.04797 3.6132,-8.47934 6.90099,-10.66506 2.48153,-1.64971 4.50668,-2.25619 8.50616,-2.54736 2.88707,-0.21018 5.53971,-0.78858 5.89475,-1.28532 0.35502,-0.49674 0.7621,-4.89707 0.90461,-9.77848 0.23212,-7.95104 0.46418,-9.27214 2.22839,-12.68635 1.98669,-3.84472 6.73441,-7.83115 9.46216,-7.94489 36.23171,-4.20664 25.10529,-2.34076 66.43978,-2.3498 17.02628,-2.72419 60.26238,2.08421 66.43977,2.3498 4.08488,0.17034 10.98677,7.9998 11.13692,12.6337 2.66719,38.56892 4.67107,117.38873 1.40524,168.55961 -1.41413,6.86553 -11.10067,18.08494 -15.30981,19.92794 -47.74058,3.33816 -111.29989,3.21026 -150.10439,0 z m 148.84496,-9.94018 c 1.87736,-1.03089 3.87556,-3.01252 5.02553,-4.98387 l 1.90902,-3.2724 0,-84.55749 0,-84.55755 -1.97211,-2.23716 -1.9721,-2.23716 -65.40305,0 -65.40304,0 -1.97212,2.23691 -1.97211,2.23692 -0.35564,80.32816 c -0.34681,78.34081 -0.38977,80.35652 -1.73626,81.47323 -1.91345,1.58692 -3.70164,1.43103 -5.37627,-0.46868 -1.39906,-1.58708 -1.4225,-2.68947 -1.4225,-66.86929 0,-57.05 -0.1343,-65.38205 -1.06797,-66.26107 -0.69104,-0.65059 -2.46449,-0.87406 -5.02496,-0.6332 -3.08174,0.28991 -4.37942,0.85143 -5.86676,2.53868 l -1.90976,2.16643 0,68.42067 0,68.4206 1.8978,3.25327 c 1.11099,1.9044 3.1752,3.97049 4.97879,4.98315 l 3.08096,1.73004 70.72302,6.5e-4 c 70.61637,6.4e-4 70.72773,0 73.83953,-1.71084 z M 171.11384,943.02041 c -0.26606,-0.48838 -0.18714,-1.22444 0.1754,-1.63571 0.38579,-0.43763 10.37474,-0.65945 24.08511,-0.53483 20.26545,0.1842 23.42592,0.37621 23.42592,1.42318 0,1.04723 -3.1798,1.23892 -23.60132,1.4228 -16.59074,0.1494 -23.74504,-0.0512 -24.08511,-0.67544 z m 62.59035,0 c -0.26606,-0.48838 -0.18714,-1.22444 0.17541,-1.63571 0.3858,-0.43763 10.37473,-0.65945 24.08509,-0.53483 20.26547,0.1842 23.42595,0.37621 23.42595,1.42318 0,1.04723 -3.1798,1.23892 -23.60134,1.4228 -16.59073,0.1494 -23.74502,-0.0512 -24.08511,-0.67544 z m -62.59035,-19.36427 c -0.26606,-0.48837 -0.18714,-1.22445 0.1754,-1.63572 0.38579,-0.43763 10.37474,-0.65945 24.08511,-0.53482 20.26545,0.18419 23.42592,0.37621 23.42592,1.42319 0,1.04721 -3.1798,1.2389 -23.60132,1.4228 -16.59074,0.14938 -23.74504,-0.0513 -24.08511,-0.67545 z m 62.59035,0 c -0.26606,-0.48837 -0.18714,-1.22445 0.17541,-1.63572 0.3858,-0.43763 10.37473,-0.65945 24.08509,-0.53482 20.26547,0.18419 23.42595,0.37621 23.42595,1.42319 0,1.04721 -3.1798,1.2389 -23.60134,1.4228 -16.59073,0.14938 -23.74502,-0.0513 -24.08511,-0.67545 z m -62.59035,-19.36427 c -0.26606,-0.48838 -0.18714,-1.22444 0.1754,-1.63571 0.38579,-0.43764 10.37474,-0.65945 24.08511,-0.53482 20.26545,0.18419 23.42592,0.37621 23.42592,1.42318 0,1.04722 -3.1798,1.2389 -23.60132,1.4228 -16.59074,0.14938 -23.74504,-0.0512 -24.08511,-0.67545 z m 62.59035,0 c -0.26606,-0.48838 -0.18714,-1.22444 0.17541,-1.63571 0.3858,-0.43764 10.37473,-0.65945 24.08509,-0.53482 20.26547,0.18419 23.42595,0.37621 23.42595,1.42318 0,1.04722 -3.1798,1.2389 -23.60134,1.4228 -16.59073,0.14938 -23.74502,-0.0512 -24.08511,-0.67545 z m -62.59355,-19.37011 c -0.26431,-0.48515 -0.18638,-1.21583 0.17316,-1.62369 0.38934,-0.44166 22.78796,-0.65797 55.38028,-0.53485 48.09066,0.1817 54.72656,0.35353 54.72656,1.41704 0,1.06355 -6.65512,1.23532 -54.89971,1.41693 -39.13648,0.14734 -55.03767,-0.0465 -55.38029,-0.67543 z m 0,-19.36427 c -0.26431,-0.48516 -0.18638,-1.21582 0.17316,-1.62371 0.38934,-0.44165 22.78796,-0.65796 55.38028,-0.53483 48.09066,0.18169 54.72656,0.35351 54.72656,1.41704 0,1.06355 -6.65512,1.23531 -54.89971,1.41694 -39.13648,0.14734 -55.03767,-0.0465 -55.38029,-0.67544 z m 1.1025,-20.10577 c -1.35928,-1.54197 -1.42251,-2.68949 -1.42251,-25.81903 0,-23.12955 0.0633,-24.27706 1.42251,-25.81902 1.35929,-1.54198 2.37084,-1.61371 22.76012,-1.61371 20.38929,0 21.40085,0.0717 22.76013,1.61371 1.35929,1.54196 1.42252,2.68947 1.42252,25.81902 0,23.12954 -0.0633,24.27706 -1.42252,25.81903 -1.35928,1.54197 -2.37084,1.61368 -22.76013,1.61368 -20.38928,0 -21.40083,-0.0717 -22.76012,-1.61368 z m 37.55421,-9.03667 c 0.60578,-0.68717 0.8535,-5.55826 0.8535,-16.78236 0,-11.22411 -0.24772,-16.09518 -0.8535,-16.78237 -0.60577,-0.68718 -4.89975,-0.96822 -14.79409,-0.96822 -9.89432,0 -14.18831,0.28104 -14.79407,0.96822 -0.60577,0.68719 -0.85351,5.55826 -0.85351,16.78237 0,11.2241 0.24774,16.09519 0.85351,16.78236 0.60576,0.68721 4.89975,0.96822 14.79407,0.96822 9.89434,0 14.18832,-0.28101 14.79409,-0.96822 z m 23.93684,9.78401 c -0.26606,-0.48837 -0.18714,-1.22444 0.17541,-1.6357 0.3858,-0.43765 10.37473,-0.65947 24.08509,-0.53484 20.26547,0.18419 23.42595,0.37621 23.42595,1.4232 0,1.04721 -3.1798,1.23891 -23.60134,1.42279 -16.59073,0.14938 -23.74502,-0.0513 -24.08511,-0.67545 z m 0,-19.36426 c -0.26606,-0.48838 -0.18714,-1.22445 0.17541,-1.63573 0.3858,-0.43763 10.37473,-0.65944 24.08509,-0.53481 20.26547,0.18421 23.42595,0.3762 23.42595,1.42318 0,1.04721 -3.1798,1.2389 -23.60134,1.42279 -16.59073,0.14939 -23.74502,-0.0512 -24.08511,-0.67543 z m 0,-19.36426 c -0.26606,-0.48839 -0.18714,-1.22445 0.17541,-1.63573 0.3858,-0.43763 10.37473,-0.65945 24.08509,-0.53483 20.26547,0.1842 23.42595,0.37621 23.42595,1.4232 0,1.04722 -3.1798,1.2389 -23.60134,1.42278 -16.59073,0.14939 -23.74502,-0.0512 -24.08511,-0.67542 z"
       style="fill:#0b556a;fill-opacity:1"
       sodipodi:nodetypes="cccsssssccccccccccccccccccsssssssccccccscscssssssssssscssssssssssscsssssssssscssssccsssscssssssssssssssssssssssssssssssssssss" />
    <path
       inkscape:connector-curvature="0"
       id="path3373-7"
       d="m 260.65514,934.55513 c 0.5028,-0.51995 0.73894,-3.551 0.73894,-9.48411 0,-7.36399 0.15121,-8.78004 0.97402,-9.10649 0.53574,-0.21245 13.06882,-1.15071 17.37616,-1.15071 5.27022,0 -0.49726,0.51419 0,0 0.45377,-0.46926 0.71189,-6.75713 0.74467,-13.11111 0.0328,-6.35398 -0.15977,-12.77408 -0.60737,-13.50778 -0.46418,-0.76095 -2.40296,-0.99713 -9.53507,-1.16139 l -8.95241,-0.20619 0,-8.59189 c 0,-4.72557 -0.28703,-9.14622 -0.63743,-9.8237 -0.5982,-1.15584 -1.40961,-1.23177 -13.16385,-1.23177 -9.60987,0 -12.68309,0.19522 -13.19941,0.83873 -0.39554,0.49284 -0.74403,4.49725 -0.84514,9.71145 l -0.17215,8.87272 -8.74644,0.3184 c -4.97081,0.18081 -9.03005,0.61277 -9.40344,1.00033 -0.43455,0.45108 -0.60055,5.1939 -0.4902,14.00997 l 0.16651,13.32798 8.62086,0.31843 c 4.74148,0.17517 8.96727,0.55026 9.39056,0.83363 0.55448,0.37104 0.76976,2.96882 0.76976,9.28688 0,4.82439 0.18484,8.96275 0.41055,9.19627 0.7796,0.80623 25.76134,0.48676 26.5605,-0.33965 z"
       style="fill:#ffffff;fill-opacity:1;fill-rule:nonzero;stroke:#0b556a;stroke-width:7;stroke-miterlimit:4;stroke-opacity:1;stroke-dasharray:none;marker-end:none"
       sodipodi:nodetypes="cscscscscscscscccscccsccc" />
  </g>
</svg>
