<?xml version="1.0" encoding="UTF-8" standalone="no"?>
<!-- Created with Inkscape (http://www.inkscape.org/) -->

<svg
   xmlns:osb="http://www.openswatchbook.org/uri/2009/osb"
   xmlns:dc="http://purl.org/dc/elements/1.1/"
   xmlns:cc="http://creativecommons.org/ns#"
   xmlns:rdf="http://www.w3.org/1999/02/22-rdf-syntax-ns#"
   xmlns:svg="http://www.w3.org/2000/svg"
   xmlns="http://www.w3.org/2000/svg"
   xmlns:sodipodi="http://sodipodi.sourceforge.net/DTD/sodipodi-0.dtd"
   xmlns:inkscape="http://www.inkscape.org/namespaces/inkscape"
   width="430"
   height="480"
   id="svg2985"
   version="1.1"
   inkscape:version="0.48.4 r9939"
   sodipodi:docname="dibujocolaboradores.svg"
   inkscape:export-filename="/home/alvin/dibujo-2.png"
   inkscape:export-xdpi="90"
   inkscape:export-ydpi="90">
  <defs
     id="defs2987">
    <linearGradient
       osb:paint="solid"
       id="linearGradient5331">
      <stop
         id="stop5333"
         offset="0"
         style="stop-color:#cccccf;stop-opacity:1;" />
    </linearGradient>
  </defs>
  <sodipodi:namedview
     id="base"
     pagecolor="#ffffff"
     bordercolor="#666666"
     borderopacity="1.0"
     inkscape:pageopacity="0.0"
     inkscape:pageshadow="2"
     inkscape:zoom="0.78223688"
     inkscape:cx="322.18956"
     inkscape:cy="232.5558"
     inkscape:current-layer="layer1"
     inkscape:document-units="px"
     showgrid="false"
     inkscape:snap-grids="true"
     inkscape:snap-to-guides="true"
     inkscape:snap-page="false"
     inkscape:window-width="1360"
     inkscape:window-height="705"
     inkscape:window-x="-8"
     inkscape:window-y="-8"
     inkscape:window-maximized="1" />
  <metadata
     id="metadata2990">
    <rdf:RDF>
      <cc:Work
         rdf:about="">
        <dc:format>image/svg+xml</dc:format>
        <dc:type
           rdf:resource="http://purl.org/dc/dcmitype/StillImage" />
        <dc:title></dc:title>
      </cc:Work>
    </rdf:RDF>
  </metadata>
  <g
     inkscape:groupmode="layer"
     id="layer2"
     inkscape:label="Capa" />
  <g
     id="layer1"
     inkscape:label="Layer 1"
     inkscape:groupmode="layer">
    <g
       id="layer1-4"
       inkscape:label="Capa 1"
       transform="translate(-149.16057,-264.15217)"
       inkscape:export-filename="/home/alvin/path3007.png"
       inkscape:export-xdpi="90"
       inkscape:export-ydpi="90">
      <path
         style="fill:#0b556a"
         d="m 343.32563,727.0175 c -10.12637,-1.05869 -34.48337,-6.73544 -44.704,-10.41893 -5.72368,-2.0628 -17.41564,-7.41163 -25.98213,-11.8863 -55.10871,-28.78576 -94.00997,-82.35746 -105.11868,-144.76105 -3.68764,-20.71543 -3.35727,-54.25528 0.72802,-73.90827 12.6976,-61.08408 48.68067,-110.36152 101.9017,-139.55051 l 13.65555,-7.48937 1.01563,-10.38 c 0.84574,-8.64351 1.65847,-10.93988 4.85821,-13.72672 3.41701,-2.97609 5.43001,-3.34673 18.17592,-3.34673 9.18247,0 15.21231,-0.66817 16.77924,-1.85929 1.90264,-1.44635 2.53623,-4.83251 2.85272,-15.24621 l 0.40683,-13.38691 38.21008,0 38.21008,0 0.40684,13.38691 c 0.31648,10.4137 0.95007,13.79986 2.85272,15.24621 1.56692,1.19112 7.59676,1.85929 16.77923,1.85929 12.89649,0 14.73291,0.34787 18.31931,3.47014 3.39171,2.9528 4.11601,4.9999 4.85821,13.73089 l 0.87225,10.26072 10.28733,5.64074 c 58.15693,31.88854 95.4031,84.52988 106.01463,149.83429 3.01436,18.55062 1.9256,54.76502 -2.19175,72.90199 -12.93586,56.98277 -46.14026,103.13018 -95.57414,132.82877 -35.09468,21.08397 -81.68138,31.18429 -123.6138,26.80034 z m 58.38361,-14.58037 c 37.71822,-7.3519 69.30877,-24.4506 97.55098,-52.80042 37.34153,-37.48379 55.66773,-82.09794 55.68457,-135.56094 0.0148,-46.94978 -15.49939,-88.86077 -46.40833,-125.37045 -14.8848,-17.58193 -49.68797,-44.02009 -57.94802,-44.02009 -2.80659,0 -2.92011,1.05342 -2.92539,27.14569 -0.004,24.15844 -0.31645,27.66182 -2.83125,31.83606 -3.84608,6.38399 -12.60965,8.57442 -32.8015,8.19865 -32.49209,-0.60467 -80.24565,-0.89694 -95.72071,-0.009 -10.80512,0.20485 -25.12984,0.44302 -29.63535,-9.84836 -1.58944,-3.85018 -2.13335,-11.81635 -2.13335,-31.24558 0,-30.44224 0.6761,-29.54758 -15.22299,-20.14405 -47.60539,28.15624 -81.3005,78.31452 -90.01355,133.99341 -4.82506,30.83357 -0.9305,69.92825 9.76883,98.06231 20.44071,53.74905 65.61268,96.58107 120.45123,114.21171 12.14131,3.90345 19.60882,5.45309 40.41451,8.38671 8.54922,1.20545 39.82613,-0.50796 51.77032,-2.83608 z m -35.60452,-402.7469 c 3.23316,0 7.59274,0.4762 9.68798,1.05822 5.27002,1.46393 8.68225,-2.31325 8.68225,-9.61087 0,-9.0288 -2.44049,-10.41204 -18.37023,-10.41204 -15.92974,0 -18.37023,1.38324 -18.37023,10.41204 0,7.29762 3.41223,11.0748 8.68226,9.61087 2.09523,-0.58202 6.45481,-1.05822 9.68797,-1.05822 z"
         id="path3114"
         inkscape:connector-curvature="0"
         sodipodi:nodetypes="sssssscssssscccssssscsssssssssscssccssssssssssssss" />
      <path
         sodipodi:nodetypes="cssccsscsscsscccccccccscccccscccscsccscscscscccscccsccccsssssscsssccccscssscscscccssssssssss"
         style="fill:#ffffff;fill-opacity:1;stroke:none;marker-end:none"
         d="m 375.29308,409.78929 c 1.67674,-0.97558 2.79416,-2.49398 3.27377,-4.44856 0.23537,-0.95923 0.30852,-13.00665 0.2472,-40.71747 l -0.0871,-39.35516 -0.70307,-1.50988 c -0.88962,-1.91042 -1.72962,-2.81347 -3.27293,-3.51848 -1.15449,-0.5274 -2.49791,-0.55889 -23.85606,-0.55889 -21.40369,0 -22.69913,0.0305 -23.85609,0.56185 -1.51503,0.69579 -3.00595,2.22004 -3.73112,3.81448 -0.51954,1.14234 -0.55592,3.39723 -0.64224,39.80926 -0.0666,28.0526 0.004,39.09257 0.25833,40.40728 0.42143,2.17902 1.14815,3.65045 2.37038,4.79942 1.85151,1.7405 1.27026,1.70388 25.90659,1.63171 l 22.63266,-0.0663 1.45964,-0.84925 z m -25.63545,-5.7971 c -1.12834,-1.11685 -0.89669,-2.76978 0.49125,-3.505 0.89481,-0.47403 1.81272,-0.0687 2.26723,1.00135 0.46808,1.1019 0.10743,2.48631 -0.76863,2.95038 -0.83681,0.4433 -1.16514,0.36959 -1.98985,-0.44673 z m -20.48899,-9.62345 c -0.0804,-0.20925 -0.11111,-14.82078 -0.0676,-32.47006 l 0.0788,-32.08959 21.64007,-0.0776 21.64006,-0.0777 -0.0777,32.47005 -0.0778,32.47003 -21.49456,0.0778 c -17.03357,0.0616 -21.52495,-9e-4 -21.641,-0.30273 z m 28.24082,-16.33444 c 0.24973,-0.24718 0.36702,-1.6881 0.36702,-4.50859 0,-3.50073 0.0751,-4.17389 0.48378,-4.32908 0.26609,-0.101 2.23421,-0.18374 4.3736,-0.18374 2.61764,0 4.00989,-0.11885 4.25687,-0.36329 0.45076,-0.44617 0.51282,-11.95661 0.0682,-12.6542 -0.23055,-0.36175 -1.19352,-0.47402 -4.73593,-0.55211 l -4.44652,-0.098 0,-4.08445 c 0,-2.24646 -0.14256,-4.34797 -0.3166,-4.67003 -0.29712,-0.54946 -0.70013,-0.58556 -6.53829,-0.58556 -4.77307,0 -6.29949,0.0928 -6.55594,0.39871 -0.19646,0.2343 -0.36955,2.13793 -0.41977,4.61667 l -0.0855,4.21795 -4.34422,0.15137 c -2.46893,0.086 -4.48509,0.2913 -4.67055,0.47554 -0.21583,0.21443 -0.29828,2.46909 -0.24347,6.66011 l 0.0827,6.33592 4.28185,0.15137 c 2.35502,0.0833 4.45391,0.26158 4.66415,0.39629 0.2754,0.17639 0.38233,1.41133 0.38233,4.41484 0,2.29344 0.0918,4.26074 0.20391,4.37175 0.38721,0.38328 12.79526,0.23141 13.19219,-0.16146 z m 50.23063,5.87061 c 4.45465,-5.25255 7.25893,-10.5891 8.87457,-16.88825 3.03957,-11.85081 0.93903,-23.90522 -5.95069,-34.14911 -2.07076,-3.0789 -5.25147,-6.53989 -6.01024,-6.53989 -0.6311,0 -5.18205,5.36198 -5.18205,6.10553 0,0.2397 0.49213,0.90527 1.0936,1.47908 3.89849,3.71909 7.38497,10.39623 8.51953,16.31627 0.62087,3.23958 0.6283,9.56136 0.0132,12.48286 -1.28506,6.11828 -3.78924,11.10906 -7.93507,15.81432 -1.09924,1.24755 -1.99859,2.39945 -1.99859,2.55978 0,0.16034 1.04723,1.60399 2.3272,3.20815 1.78432,2.23625 2.4757,2.89505 2.96387,2.82419 0.36737,-0.0532 1.75619,-1.41242 3.2832,-3.21293 z m -10.49259,-8.76169 c 8.34297,-9.63993 9.53029,-22.39281 3.07941,-33.07567 -1.74567,-2.89088 -4.58957,-5.91456 -5.22745,-5.55789 -0.80206,0.4485 -4.19148,5.00218 -4.19148,5.63126 0,0.32817 0.62641,1.28632 1.39205,2.12922 1.60072,1.76227 3.59914,5.69082 4.08563,8.0317 0.4768,2.29428 0.41142,6.89411 -0.12786,9.00346 -0.67429,2.6367 -2.38075,5.80152 -4.30689,7.98757 -0.92924,1.05463 -1.62255,2.09032 -1.54068,2.30152 0.082,0.2112 1.01879,1.48543 2.08201,2.83163 1.34172,1.69883 2.1344,2.4492 2.59103,2.45277 0.426,0.003 1.18889,-0.60844 2.16439,-1.73557 z m -9.65267,-8.80685 c 4.93355,-5.43143 5.02089,-14.11843 0.19397,-19.30165 -0.68231,-0.73271 -1.45993,-1.3322 -1.72801,-1.3322 -0.60241,0 -4.0224,3.30357 -4.0224,3.88548 0,0.23265 0.47799,1.0675 1.06218,1.85523 1.40557,1.89528 2.06774,4.39944 1.68774,6.38271 -0.33876,1.76813 -1.20293,3.53859 -2.134,4.37209 -1.44525,1.29378 -1.40184,1.5412 0.63994,3.64586 1.04477,1.07694 2.14028,1.95806 2.43446,1.95806 0.29417,0 1.13392,-0.6595 1.86612,-1.46558 z"
         id="path3373"
         inkscape:connector-curvature="0" />
    </g>
    <path
       sodipodi:nodetypes="cssscssssssssscssscsssssssssssssssscsssssssssssscsssscssssssssssssscssccssssssssscssssss"
       inkscape:connector-curvature="0"
       id="path3013"
       d="m 94.085,241.62817 c 35.59523,15.56728 34.92222,19.9557 75.104,27.59691 9.30114,1.76876 37.69919,-11.47345 53.73476,-13.08417 24.46215,-2.45715 38.51801,14.92446 56.57005,11.30542 44.24712,-8.8706 67.08478,-28.9731 97.14826,-42.08931 1.81646,9.47507 4.06829,62.38912 1.28805,65.64213 -21.01201,24.58503 -78.48429,35.86104 -80.33089,37.77339 -7.89783,8.17906 -17.40095,6.93878 -18.97831,9.15668 -8.2075,11.54046 -9.74483,9.96407 -16.68367,13.89949 -4.912,2.78589 -4.64699,4.06013 -9.29873,7.65183 -7.76188,5.99307 -8.49314,-11.83317 -24.75814,-2.47101 -9.1902,5.2899 -10.11701,8.84293 -16.05,4.87597 -5.55015,-3.71097 -5.79312,-6.95846 -6.68747,-6.59356 -6.76455,2.75997 -7.82337,-2.59606 -15.81171,-5.1735 -10.04051,-3.23958 -4.9942,4.81104 -16.85429,-6.2032 -9.61833,2.18062 -16.10648,-3.46678 -17.35465,-12.21849 -0.4869,-3.41393 -8.97347,-3.88687 -12.74633,-5.29683 -71.71964,-26.80237 -86.57209,-5.75776 -85.22419,-40.33647 2.16472,-55.53347 -1.83167,-5.5339 1.83516,-60.52124 M 220.51964,353.6873 c 2.4343,-6.88444 -0.87504,-11.03662 -5.84278,-6.56518 -3.6009,3.24116 -4.08556,8.48661 -1.74249,10.81699 2.46948,2.45612 5.90286,0.50621 7.58527,-4.25181 z m 31.44963,-1.06242 c 3.04233,-2.09079 6.47624,0.0177 -10.45527,-10.36024 -5.6224,-3.44602 -10.22252,-7.3977 -10.22252,-8.78153 0,-3.90273 2.81437,-3.07752 15.54114,4.55684 8.09476,4.85578 11.81917,6.46764 16.32382,6.46764 6.93016,0 11.92653,-4.67278 7.31338,-6.34008 -1.33237,-0.48155 -2.77729,-1.30635 -7.17742,-2.81917 -9.22099,-3.1703 -21.33395,-10.69189 -21.33395,-13.24741 0,-2.98137 5.27312,-1.92739 13.05747,2.60988 12.81169,7.46754 34.58209,9.13414 32.51468,2.96548 -0.35944,-1.07248 -4.0681,-2.56276 -10.7205,-4.79117 -7.29755,-2.44449 -16.21153,-7.26801 -22.47236,-12.1602 -10.63469,-8.30989 -26.9397,-16.8423 -32.24368,-16.8731 -1.63628,-0.009 -6.57443,2.71535 -10.97369,6.05522 -10.00863,7.59844 -17.72201,11.60968 -22.32486,11.60968 -5.76238,0 -12.08302,-3.61727 -14.13055,-8.08679 -1.67566,-3.65775 -0.9415,-5.28977 6.0768,-13.5087 4.39047,-5.14154 12.96014,-12.29037 19.04368,-15.88627 6.08356,-3.59588 12.66104,-7.78161 14.61666,-9.30164 3.3458,-2.60059 3.13595,-2.69505 -3.55567,-1.60054 -3.91122,0.63975 -14.29842,3.91426 -23.08266,7.27668 -12.36479,4.73298 -17.80763,5.93799 -24.10329,5.33632 -7.8172,-0.74707 -49.34852,-18.03155 -80.33383,-33.43331 -7.55629,-3.75598 -14.57455,-6.82904 -15.59611,-6.82904 -1.24064,0 -1.6965,10.60465 -1.37285,31.9364 l -1.22677,29.5405 50.82984,14.00735 c 35.41938,9.76064 45.64829,11.64276 49.77039,14.75983 6.74721,5.10211 5.65869,8.10331 12.59346,4.14484 5.2026,-2.96974 7.96858,-4.55681 13.14797,-0.74822 2.94396,2.16478 6.59271,3.45414 8.12254,2.87028 1.52765,-0.58305 4.74327,0.22096 7.14584,1.78666 2.40257,1.56572 6.28145,2.84674 8.61977,2.84674 2.33829,0 11.82327,4.07377 16.11955,7.32689 7.28511,5.51621 14.08596,9.55206 16.12199,9.65219 0.48891,0.024 2.90028,0.026 4.367,-0.98201 z m -47.56649,-3.68309 c 3.19886,-4.85567 2.10564,-9.13362 -1.97854,-9.13362 -3.19543,0 -6.93985,4.47333 -6.93985,8.78364 0,4.71791 5.52588,5.4996 8.91839,0.34998 z m -15.59479,-6.11159 c 3.21738,-4.88377 1.28815,-8.52842 -2.8497,-8.52842 -3.52438,0 -7.96107,7.47137 -6.64805,10.87455 1.55761,4.03706 6.24457,2.59199 9.49775,-2.34613 z m -18.36598,-5.32189 c -0.85685,-2.31811 -0.78569,-2.70588 -2.99702,-4.24638 -4.17565,-2.90895 -6.93105,-0.10166 -5.07393,4.7118 1.1169,2.89486 4.05668,4.49855 5.63696,1.95544 z m 168.30078,-31.59135 c 18.10174,-8.00996 30.72839,-13.39109 32.2511,-15.63414 3.32487,-4.89775 1.93115,-56.72195 0.32235,-56.72195 -0.99453,0 -17.3199,7.95826 -40.9888,19.65758 -23.66888,11.6993 -45.99761,21.74367 -49.61936,22.32086 -5.09237,0.8115 -10.23324,-0.40289 -22.6796,-5.35752 -8.85201,-3.5238 -18.28912,-6.40706 -20.97133,-6.40721 -8.67787,-5.6e-4 -37.62079,15.87507 -47.95931,26.3064 -7.45027,7.51714 -8.99933,10.01629 -7.39791,11.93546 1.11403,1.33508 4.12764,2.42323 6.69687,2.4181 4.59888,-0.009 6.63775,-1.08842 21.41642,-11.33674 4.09041,-2.83652 9.6332,-5.15731 12.31731,-5.15731 7.13407,0 22.60459,7.60327 35.9306,17.65872 7.48007,5.64425 15.44431,9.86874 22.22288,11.78772 5.8106,1.64498 11.76478,3.81091 13.23149,4.8132 4.68907,3.20428 11.56407,-1.38731 45.22729,-16.28317 z"
       style="fill:#0b556a;fill-opacity:1"
       inkscape:export-filename="/home/alvin/path3007.png"
       inkscape:export-xdpi="90"
       inkscape:export-ydpi="90" />
    <g
       transform="matrix(0.5517468,0,0,0.56215753,91.451679,145.73691)"
       inkscape:label="Layer 1"
       id="layer1-2">
      <path
         inkscape:export-ydpi="90"
         inkscape:export-xdpi="90"
         inkscape:export-filename="/home/alvin/path3006.png"
         inkscape:connector-curvature="0"
         id="path3127"
         d="m 322.97691,456.18962 c -0.43081,-1.24675 -1.65284,-1.20524 -1.92686,-5.03505 -0.48945,-6.84175 3.5041,-8.00061 -7.35355,-11.90442 -6.07771,-2.18518 -12.99786,-5.2641 -16.1669,-7.23647 -7.48375,-4.65776 -11.27592,-1.94001 -16.254,3.39621 -2.25798,2.4204 -5.04674,0.20569 -6.59171,0.20569 -2.8442,0 -22.47886,-19.74569 -22.47886,-22.4677 0,-0.81231 -0.37722,-4.10685 3.06336,-6.93582 l 5.32223,-6.74971 -0.0974,-0.83118 c -0.58717,-5.0123 -4.56564,-14.63374 -7.81376,-20.06294 l -5.13486,-8.58287 -10.27555,0.088 -9.30741,-5.07522 0,-16.72277 0.3227,-20.59514 8.47095,-0.16 c 11.22776,-0.21206 8.92245,1.67981 11.17868,-6.04999 1.20734,-4.13634 4.48352,-8.87212 7.28038,-14.468 6.19089,-12.38646 6.56128,-8.80468 1.03795,-14.03007 -2.40348,-2.27387 -4.6927,-7.98878 -4.6927,-9.54462 0,-2.86419 20.25766,-23.28465 22.96066,-23.28465 0.80664,0 2.83296,-2.81371 6.08058,0.0578 l 9.13174,8.12523 11.75391,-5.69048 c 7.89336,-3.82146 15.27364,-6.33584 16.81464,-6.33584 4.48085,0 2.80003,-3.42645 2.8288,-10.15108 0.044,-10.24098 5.79639,-7.4007 22.99276,-9.63709 l 17.19764,0.51287 0.15661,4.31281 c 0.42409,11.67851 -0.98237,13.32932 6.62929,15.39337 4.04566,1.09702 12.1591,4.11061 18.83316,7.01077 l 8.57315,3.72538 8.22517,-7.21153 c 3.29359,-2.8877 5.70562,-3.66186 6.57021,-3.66186 2.68771,0 23.50065,21.16105 23.50065,24.03616 0,1.49746 2.22855,7.16462 -0.17497,9.43849 -5.41705,5.12486 -7.71003,7.48904 -2.49779,16.56812 2.2721,3.95771 2.62028,6.38944 4.3234,11.71433 1.70311,5.32489 3.81911,8.94313 4.77648,9.84368 0,0 5.3845,0.25679 9.90942,0.79222 l 5.32525,0.63014 0,18.98167 0.64539,18.98163 -6.72587,1.84827 -10.59822,0.55743 -3.52138,7.93748 c -2.56561,5.7831 -5.84347,9.93107 -7.81378,14.57712 l -2.67891,6.317 6.29031,6.42702 c 3.11561,3.18332 3.254,4.71765 2.41797,6.39229 -1.83661,3.67892 -7.36222,9.57567 -13.59862,15.80105 l -12.30782,12.28608 -3.85027,-3.06635 c -3.47882,-2.77053 -6.79714,-6.29102 -7.47351,-6.61599 -2.68656,-1.29078 -5.06956,1.08315 -11.96458,4.37895 -6.89503,3.29584 -14.44821,7.17285 -17.57368,7.8268 -5.83666,1.22121 4.60177,14.74288 -6.53123,15.72419 l -4.99704,0.44047 -11.68079,-0.13887 c -12.01028,-0.14279 -19.95093,-0.403 -20.53146,-2.08298 z"
         style="fill:#606558;fill-opacity:1"
         sodipodi:nodetypes="sssssssscsscccccssssssscsssscssscsssssssscccccsscssscssssscss" />
      <path
         inkscape:export-ydpi="90"
         inkscape:export-xdpi="90"
         inkscape:export-filename="/home/alvin/path3006.png"
         sodipodi:nodetypes="ccsscc"
         inkscape:connector-curvature="0"
         id="path3167-64-5"
         d="m 309.60474,358.34976 c -5.77725,-14.74924 6.95079,-45.66025 35.10946,-47.95668 2.48991,-0.71516 18.39758,8.69818 28.43549,14.85676 7.87482,4.83145 7.20325,15.71306 0.12723,33.34318 -6.11128,15.22608 -16.68381,18.38411 -31.19877,18.57351 -33.46874,-13.88994 -24.52008,-10.09149 -32.47321,-18.81677 z"
         style="fill:#d4d8da;fill-opacity:1" />
      <path
         inkscape:export-ydpi="90"
         inkscape:export-xdpi="90"
         inkscape:export-filename="/home/alvin/path3006.png"
         sodipodi:nodetypes="sssssssscsscccccssssssscsssscssscsssssssscccccsscssscssssscsscsssssssssssssssscsssccssscsscssssssscc"
         style="fill:#d4d8da;fill-opacity:1"
         d="m 326.94733,450.64885 c -0.39948,-1.11588 -0.93419,-4.83345 -1.18827,-8.26125 -0.45387,-6.12362 -0.64069,-6.29438 -10.70871,-9.78841 -5.63571,-1.95583 -12.65107,-5.00041 -15.58963,-6.76573 -6.9395,-4.16887 -9.25897,-4.04696 -13.87503,0.72914 -2.09376,2.16634 -4.97895,3.93881 -6.41157,3.93881 -2.63734,0 -21.14331,-17.09546 -21.14331,-19.53177 0,-0.72703 2.22082,-3.78046 4.93518,-6.78545 l 4.93516,-5.46358 -4.27947,-7.09806 c -2.35371,-3.90392 -5.88349,-11.46471 -7.84396,-16.80176 l -3.56452,-9.70373 -8.03211,-0.78776 -8.03209,-0.78778 0,-14.96749 0,-14.96751 4.86263,-0.43202 c 10.36925,-0.92126 11.56509,-1.67357 13.65723,-8.59202 1.11952,-3.70218 4.15745,-10.8291 6.75092,-15.83762 5.74065,-11.08632 5.78488,-12.21287 0.66322,-16.88979 -2.2287,-2.03519 -4.05219,-4.83965 -4.05219,-6.23218 0,-2.56356 17.58752,-20.55177 20.09396,-20.55177 0.74796,0 3.82383,2.10282 6.83527,4.67293 l 5.47538,4.67294 13.29292,-6.24846 c 7.31112,-3.43665 14.46209,-6.24846 15.89103,-6.24846 4.15496,0 6.48633,-3.35561 6.51302,-9.37439 0.0407,-9.16606 1.06008,-9.71368 17.13145,-9.2032 l 14.4508,0.45904 0.44446,4.72658 c 0.97951,10.41676 1.78212,11.6414 8.84023,13.48879 3.75144,0.98188 11.74468,4.19549 17.76274,7.14137 l 10.94196,5.35611 5.53241,-4.72163 c 3.04283,-2.5969 6.18835,-4.72162 6.99005,-4.72162 2.49226,0 19.99622,18.07344 19.99622,20.64677 0,1.34027 -1.82348,4.10199 -4.05219,6.13718 -5.02311,4.58694 -5.05472,6.70298 -0.22154,14.82908 2.10685,3.54229 5.12276,10.33996 6.70202,15.10592 1.57926,4.76598 3.1684,8.99061 3.53142,9.3881 0.36302,0.39747 4.09402,1.10646 8.29108,1.57553 l 7.63103,0.85282 0,14.96751 0,14.96749 -8.03211,0.78778 -8.03209,0.78776 -3.56452,9.70373 c -1.96048,5.33705 -5.49026,12.89784 -7.84397,16.80176 l -4.27946,7.09806 4.93516,5.46358 c 2.71434,3.00499 4.93517,6.09946 4.93517,6.87664 0,0.77718 -4.73178,5.97156 -10.51507,11.54308 l -10.51505,10.13002 -5.36564,-5.05508 c -2.95111,-2.78028 -5.93495,-5.05507 -6.63077,-5.05507 -0.69583,0 -6.49624,2.41355 -12.88983,5.36342 -6.39359,2.94989 -13.99592,5.84232 -16.89408,6.42763 -5.4122,1.09301 -6.3164,2.66747 -7.25317,12.6296 l -0.44446,4.72658 -15.02049,0.45336 c -11.13218,0.336 -15.20851,-0.0718 -15.74682,-1.57552 z m -43.49349,-29.99448 c 3.65846,-4.37248 29.07089,-16.53767 40.70672,-19.48673 10.22972,-2.59267 29.3759,-2.8261 38.41671,-0.46837 8.14749,2.12477 28.46852,10.96466 31.31762,13.62352 1.17802,1.0994 2.89654,1.99888 3.81891,1.99888 0.92238,0 3.11139,1.77247 4.86449,3.93882 3.97526,4.91233 5.38512,4.91245 12.00964,7.1e-4 7.42033,-5.50142 8.42971,-9.59876 3.32598,-13.50104 -2.2481,-1.71887 -4.59358,-4.70195 -5.21217,-6.62907 -0.61858,-1.92711 -1.57344,-3.86031 -2.1219,-4.29601 -2.07519,-1.64855 -8.70152,-14.84148 -11.67802,-23.25074 -2.24102,-6.33143 -3.09661,-13.09782 -3.09661,-24.48941 0,-18.33606 3.65653,-30.68758 12.41147,-41.92513 2.97998,-3.825 5.41815,-8.19315 5.41815,-9.70699 0,-1.51383 2.18819,-4.54215 4.86263,-6.7296 2.67444,-2.18743 4.86263,-4.58429 4.86263,-5.32635 0,-0.74207 -3.27778,-4.4761 -7.28394,-8.29783 l -7.28393,-6.94864 -5.35501,5.04506 c -2.94526,2.77479 -6.63951,5.04508 -8.20944,5.04508 -1.56992,0 -5.54686,2.08393 -8.83765,4.63096 -5.69189,4.40545 -16.6545,13.82901 -25.74395,13.30884 -7.69479,0.87995 -22.23865,-0.22354 -31.5749,-2.18453 -5.04301,0 -23.92839,-7.54293 -30.00521,-11.98425 -2.83783,-2.07405 -6.45008,-3.77102 -8.02721,-3.77102 -1.57713,0 -5.18325,-2.1817 -8.01358,-4.84823 l -5.14608,-4.84817 -5.93394,5.06429 c -9.41593,8.03598 -10.06121,10.3121 -4.26712,15.05109 2.7173,2.22251 4.96678,5.5731 4.99884,7.44578 0.0321,1.87269 1.87101,5.53186 4.08656,8.13148 2.21554,2.59961 5.88591,10.5932 8.15637,17.76354 3.49603,11.0408 4.02575,15.26246 3.45956,27.57171 -0.77977,16.95298 -2.4972,23.84685 -9.22387,37.02525 -2.70383,5.29708 -4.91603,10.35515 -4.91603,11.24014 0,0.88499 -2.27081,4.12301 -5.04624,7.19561 -5.54614,6.13999 -5.27882,7.32032 3.30745,14.60323 5.24425,4.4482 7.23661,4.44962 10.95307,0.008 z"
         id="path3125-5"
         inkscape:connector-curvature="0" />
    </g>
  </g>
</svg>
