<?xml version="1.0" encoding="UTF-8" standalone="no"?>
<!-- Created with Inkscape (http://www.inkscape.org/) -->

<svg
   xmlns:dc="http://purl.org/dc/elements/1.1/"
   xmlns:cc="http://creativecommons.org/ns#"
   xmlns:rdf="http://www.w3.org/1999/02/22-rdf-syntax-ns#"
   xmlns:svg="http://www.w3.org/2000/svg"
   xmlns="http://www.w3.org/2000/svg"
   xmlns:sodipodi="http://sodipodi.sourceforge.net/DTD/sodipodi-0.dtd"
   xmlns:inkscape="http://www.inkscape.org/namespaces/inkscape"
   width="430"
   height="480"
   id="svg2"
   version="1.1"
   inkscape:version="0.48.4 r9939"
   sodipodi:docname="dibujo3-1.svg">
  <defs
     id="defs4" />
  <sodipodi:namedview
     id="base"
     pagecolor="#ffffff"
     bordercolor="#666666"
     borderopacity="1.0"
     inkscape:pageopacity="0.0"
     inkscape:pageshadow="2"
     inkscape:zoom="0.49497475"
     inkscape:cx="226.93689"
     inkscape:cy="387.42174"
     inkscape:document-units="px"
     inkscape:current-layer="layer1"
     showgrid="false"
     inkscape:object-paths="true"
     inkscape:snap-midpoints="true"
     inkscape:window-width="1360"
     inkscape:window-height="705"
     inkscape:window-x="-8"
     inkscape:window-y="-8"
     inkscape:window-maximized="1" />
  <metadata
     id="metadata7">
    <rdf:RDF>
      <cc:Work
         rdf:about="">
        <dc:format>image/svg+xml</dc:format>
        <dc:type
           rdf:resource="http://purl.org/dc/dcmitype/StillImage" />
        <dc:title />
      </cc:Work>
    </rdf:RDF>
  </metadata>
  <g
     inkscape:groupmode="layer"
     id="layer2"
     inkscape:label="Capa"
     transform="translate(0,-572.36218)">
    <rect
       style="fill:#ffffff"
       id="rect2986"
       width="212.77875"
       height="85.650246"
       x="110.43755"
       y="801.10059"
       rx="0"
       ry="73.821587"
       inkscape:export-filename="/home/alvin/path59390.png"
       inkscape:export-xdpi="90"
       inkscape:export-ydpi="90" />
  </g>
  <g
     inkscape:label="Capa 1"
     inkscape:groupmode="layer"
     id="layer1"
     transform="translate(0,-572.36218)">
    <path
       sodipodi:nodetypes="sssssscssssscccssssscsssssssssscssccssssssssssssss"
       inkscape:connector-curvature="0"
       id="path3114"
       d="m 193.76214,1034.1242 c -10.12637,-1.0587 -34.48337,-6.7355 -44.704,-10.419 -5.72368,-2.0628 -17.41564,-7.4116 -25.98213,-11.8863 -55.108712,-28.78571 -94.009972,-82.35741 -105.118682,-144.761 -3.68764,-20.71543 -3.35727,-54.25528 0.72802,-73.90827 12.6976,-61.08408 48.68067,-110.36152 101.901702,-139.55051 l 13.65555,-7.48937 1.01563,-10.38 c 0.84574,-8.64351 1.65847,-10.93988 4.85821,-13.72672 3.41701,-2.97609 5.43001,-3.34673 18.17592,-3.34673 9.18247,0 15.21231,-0.66817 16.77924,-1.85929 1.90264,-1.44635 2.53623,-4.83251 2.85272,-15.24621 l 0.40683,-13.38691 38.21008,0 38.21008,0 0.40684,13.38691 c 0.31648,10.4137 0.95007,13.79986 2.85272,15.24621 1.56692,1.19112 7.59676,1.85929 16.77923,1.85929 12.89649,0 14.73291,0.34787 18.31931,3.47014 3.39171,2.9528 4.11601,4.9999 4.85821,13.73089 l 0.87225,10.26072 10.28733,5.64074 c 58.15693,31.88854 95.4031,84.52988 106.01463,149.83429 3.01436,18.55062 1.9256,54.76502 -2.19175,72.90199 -12.93586,56.98277 -46.14026,103.13018 -95.57414,132.82873 -35.09468,21.084 -81.68138,31.1843 -123.6138,26.8004 z m 58.38361,-14.5804 c 37.71822,-7.3519 69.30877,-24.45059 97.55098,-52.80041 37.34153,-37.48379 55.66773,-82.09794 55.68457,-135.56094 0.0148,-46.94978 -15.49939,-88.86077 -46.40833,-125.37045 -14.8848,-17.58193 -49.68797,-44.02009 -57.94802,-44.02009 -2.80659,0 -2.92011,1.05342 -2.92539,27.14569 -0.004,24.15844 -0.31645,27.66182 -2.83125,31.83606 -3.84608,6.38399 -12.60965,8.57442 -32.8015,8.19865 -32.49209,-0.60467 -80.24565,-0.89694 -95.72071,-0.009 -10.80512,0.20485 -25.12984,0.44302 -29.63535,-9.84836 -1.58944,-3.85018 -2.13335,-11.81635 -2.13335,-31.24558 0,-30.44224 0.6761,-29.54758 -15.22299,-20.14405 -47.605392,28.15624 -81.300502,78.31452 -90.013552,133.99341 -4.82506,30.83357 -0.9305,69.92825 9.76883,98.06231 20.44071,53.74905 65.612682,96.58107 120.451232,114.21166 12.14131,3.9035 19.60882,5.4531 40.41451,8.3868 8.54922,1.2054 39.82613,-0.508 51.77032,-2.8361 z M 216.54123,616.79691 c 3.23316,0 7.59274,0.4762 9.68798,1.05822 5.27002,1.46393 8.68225,-2.31325 8.68225,-9.61087 0,-9.0288 -2.44049,-10.41204 -18.37023,-10.41204 -15.92974,0 -18.37023,1.38324 -18.37023,10.41204 0,7.29762 3.41223,11.0748 8.68226,9.61087 2.09523,-0.58202 6.45481,-1.05822 9.68797,-1.05822 z"
       style="fill:#0b556a"
       inkscape:export-filename="/home/alvin/path59390.png"
       inkscape:export-xdpi="90"
       inkscape:export-ydpi="90" />
    <path
       inkscape:connector-curvature="0"
       id="path3373"
       d="m 225.72959,716.89597 c 1.67674,-0.97558 2.79416,-2.49398 3.27377,-4.44856 0.23537,-0.95923 0.30852,-13.00665 0.2472,-40.71747 l -0.0871,-39.35516 -0.70307,-1.50988 c -0.88962,-1.91042 -1.72962,-2.81347 -3.27293,-3.51848 -1.15449,-0.5274 -2.49791,-0.55889 -23.85606,-0.55889 -21.40369,0 -22.69913,0.0305 -23.85609,0.56185 -1.51503,0.69579 -3.00595,2.22004 -3.73112,3.81448 -0.51954,1.14234 -0.55592,3.39723 -0.64224,39.80926 -0.0666,28.0526 0.004,39.09257 0.25833,40.40728 0.42143,2.17902 1.14815,3.65045 2.37038,4.79942 1.85151,1.7405 1.27026,1.70388 25.90659,1.63171 l 22.63266,-0.0663 1.45964,-0.84925 z m -25.63545,-5.7971 c -1.12834,-1.11685 -0.89669,-2.76978 0.49125,-3.505 0.89481,-0.47403 1.81272,-0.0687 2.26723,1.00135 0.46808,1.1019 0.10743,2.48631 -0.76863,2.95038 -0.83681,0.4433 -1.16514,0.36959 -1.98985,-0.44673 z m -20.48899,-9.62345 c -0.0804,-0.20925 -0.11111,-14.82078 -0.0676,-32.47006 l 0.0788,-32.08959 21.64007,-0.0776 21.64006,-0.0777 -0.0777,32.47005 -0.0778,32.47003 -21.49456,0.0778 c -17.03357,0.0616 -21.52495,-9e-4 -21.641,-0.30273 z m 28.24082,-16.33444 c 0.24973,-0.24718 0.36702,-1.6881 0.36702,-4.50859 0,-3.50073 0.0751,-4.17389 0.48378,-4.32908 0.26609,-0.101 2.23421,-0.18374 4.3736,-0.18374 2.61764,0 4.00989,-0.11885 4.25687,-0.36329 0.45076,-0.44617 0.51282,-11.95661 0.0682,-12.6542 -0.23055,-0.36175 -1.19352,-0.47402 -4.73593,-0.55211 l -4.44652,-0.098 0,-4.08445 c 0,-2.24646 -0.14256,-4.34797 -0.3166,-4.67003 -0.29712,-0.54946 -0.70013,-0.58556 -6.53829,-0.58556 -4.77307,0 -6.29949,0.0928 -6.55594,0.39871 -0.19646,0.2343 -0.36955,2.13793 -0.41977,4.61667 l -0.0855,4.21795 -4.34422,0.15137 c -2.46893,0.086 -4.48509,0.2913 -4.67055,0.47554 -0.21583,0.21443 -0.29828,2.46909 -0.24347,6.66011 l 0.0827,6.33592 4.28185,0.15137 c 2.35502,0.0833 4.45391,0.26158 4.66415,0.39629 0.2754,0.17639 0.38233,1.41133 0.38233,4.41484 0,2.29344 0.0918,4.26074 0.20391,4.37175 0.38721,0.38328 12.79526,0.23141 13.19219,-0.16146 z m 50.23063,5.87061 c 4.45465,-5.25255 7.25893,-10.5891 8.87457,-16.88825 3.03957,-11.85081 0.93903,-23.90522 -5.95069,-34.14911 -2.07076,-3.0789 -5.25147,-6.53989 -6.01024,-6.53989 -0.6311,0 -5.18205,5.36198 -5.18205,6.10553 0,0.2397 0.49213,0.90527 1.0936,1.47908 3.89849,3.71909 7.38497,10.39623 8.51953,16.31627 0.62087,3.23958 0.6283,9.56136 0.0132,12.48286 -1.28506,6.11828 -3.78924,11.10906 -7.93507,15.81432 -1.09924,1.24755 -1.99859,2.39945 -1.99859,2.55978 0,0.16034 1.04723,1.60399 2.3272,3.20815 1.78432,2.23625 2.4757,2.89505 2.96387,2.82419 0.36737,-0.0532 1.75619,-1.41242 3.2832,-3.21293 z m -10.49259,-8.76169 c 8.34297,-9.63993 9.53029,-22.39281 3.07941,-33.07567 -1.74567,-2.89088 -4.58957,-5.91456 -5.22745,-5.55789 -0.80206,0.4485 -4.19148,5.00218 -4.19148,5.63126 0,0.32817 0.62641,1.28632 1.39205,2.12922 1.60072,1.76227 3.59914,5.69082 4.08563,8.0317 0.4768,2.29428 0.41142,6.89411 -0.12786,9.00346 -0.67429,2.6367 -2.38075,5.80152 -4.30689,7.98757 -0.92924,1.05463 -1.62255,2.09032 -1.54068,2.30152 0.082,0.2112 1.01879,1.48543 2.08201,2.83163 1.34172,1.69883 2.1344,2.4492 2.59103,2.45277 0.426,0.003 1.18889,-0.60844 2.16439,-1.73557 z m -9.65267,-8.80685 c 4.93355,-5.43143 5.02089,-14.11843 0.19397,-19.30165 -0.68231,-0.73271 -1.45993,-1.3322 -1.72801,-1.3322 -0.60241,0 -4.0224,3.30357 -4.0224,3.88548 0,0.23265 0.47799,1.0675 1.06218,1.85523 1.40557,1.89528 2.06774,4.39944 1.68774,6.38271 -0.33876,1.76813 -1.20293,3.53859 -2.134,4.37209 -1.44525,1.29378 -1.40184,1.5412 0.63994,3.64586 1.04477,1.07694 2.14028,1.95806 2.43446,1.95806 0.29417,0 1.13392,-0.6595 1.86612,-1.46558 z"
       style="fill:#ffffff;fill-opacity:1;stroke:none;marker-end:none"
       sodipodi:nodetypes="cssccsscsscsscccccccccscccccscccscsccscscscscccscccsccccsssssscsssccccscssscscscccssssssssss"
       inkscape:export-filename="/home/alvin/path59390.png"
       inkscape:export-xdpi="90"
       inkscape:export-ydpi="90" />
    <path
       inkscape:connector-curvature="0"
       id="path5939"
       d="m 87.434688,912.16212 c -3.06781,-3.30313 -3.06326,-3.14462 -0.48363,-16.85213 1.31374,-6.98096 1.85369,-14.83634 1.4877,-21.6437 -0.53504,-9.95128 -0.88906,-11.06047 -5.15166,-16.14058 -5.45002,-6.49526 -6.68717,-12.95488 -5.71022,-29.81531 0.81953,-14.14377 4.58395,-23.38357 10.91322,-26.78665 5.90507,-3.175 5.94779,-3.3279 1.68703,-6.03786 -4.51818,-2.87369 -6.5612,-7.17513 -6.5612,-13.81421 0,-7.318 6.78071,-14.18938 14.00213,-14.18938 11.361802,0 18.161582,14.4953 11.242572,23.96612 -1.51777,2.07754 -4.67701,4.63995 -7.02053,5.69425 l -4.260972,1.91691 2.783102,4.05311 c 2.05067,2.98644 2.74535,5.83816 2.63961,10.83594 -0.0924,4.36955 0.50406,7.36148 1.67653,8.40917 2.47246,2.20937 2.98754,0.34068 3.41463,-12.388 l 0.34489,-10.27924 108.1187,-0.35044 c 85.65327,-0.2776 108.32957,0.007 109.1335,1.37057 0.55814,0.94655 1.02358,6.50084 1.03429,12.34288 0.0182,9.89717 1.12312,12.87268 3.34369,9.00412 0.51072,-0.88976 0.80597,-4.51103 0.65612,-8.04726 -0.21826,-5.15023 0.37168,-7.25376 2.96495,-10.5721 l 3.23741,-4.14259 -6.04603,-3.22901 c -6.59715,-3.52333 -9.58894,-9.48869 -8.3261,-16.60153 2.25028,-12.67455 18.71906,-16.08238 25.46807,-5.27004 4.91026,7.86654 3.24076,15.98208 -4.43323,21.55028 l -4.12075,2.98997 3.82019,1.43388 c 6.46034,2.42484 9.87174,7.74693 12.2056,19.04188 1.46101,7.07074 1.91723,13.50439 1.4397,20.3028 -0.78474,11.17214 -2.17522,14.98918 -7.07923,19.4334 -3.17075,2.87348 -3.40528,3.89449 -3.77774,16.44677 -0.25056,8.44403 0.31867,16.92379 1.54242,22.97706 1.81832,8.99437 1.7955,9.80808 -0.36519,13.02036 -2.95589,4.39445 -9.00117,5.21968 -12.01037,1.6395 -5.10324,-6.07159 -7.68237,-37.14556 -4.49943,-54.21031 1.58776,-8.51256 1.16437,-10.05195 -2.20615,-8.02103 -1.94043,1.16923 -2.18548,3.4378 -1.97512,18.28562 0.13209,9.32293 -0.23865,17.72523 -0.82387,18.67179 -0.84274,1.36306 -23.55013,1.6481 -109.18273,1.37056 l -108.1187,-0.35044 -0.35367,-18.76502 c -0.33046,-17.53427 -0.52461,-18.82342 -2.96,-19.65567 -1.43349,-0.48988 -2.86085,-0.61663 -3.17193,-0.28169 -0.31109,0.33494 0.36726,4.86272 1.50742,10.06174 3.5818,16.33256 0.26677,49.17216 -5.415322,53.64573 -3.2147,2.53094 -7.71328,2.09838 -10.6097,-1.02022 z M 321.65219,868.30406 c 0,-13.80864 -0.31065,-16.44677 -1.93667,-16.44677 -1.06518,0 -2.62601,-1.62898 -3.46853,-3.61997 -1.3975,-3.30243 -1.19971,-3.89545 2.2549,-6.76044 l 3.78676,-3.14047 -0.38909,-17.91766 -0.38911,-17.91767 -104.6269,0.35059 -104.6269,0.35059 -0.35364,17.9226 -0.35365,17.92262 3.21772,1.57855 c 4.31658,2.11762 4.3349,7.63878 0.0354,10.67202 -3.06683,2.1636 -3.1823,2.77812 -3.1823,16.93521 0,8.07959 0.38187,15.10133 0.84861,15.60386 0.46676,0.50254 47.72397,0.91372 105.01602,0.91372 l 104.16739,0 z"
       style="fill:#0b556a;fill-opacity:1"
       sodipodi:nodetypes="ssssssssssscsssscscsssscsssscssssssssssssscsscssssssscccccccssssscs"
       inkscape:export-xdpi="90"
       inkscape:export-ydpi="90" />
  </g>
</svg>
