<?xml version="1.0" encoding="UTF-8" standalone="no"?>
<!-- Created with Inkscape (http://www.inkscape.org/) -->

<svg
   xmlns:dc="http://purl.org/dc/elements/1.1/"
   xmlns:cc="http://creativecommons.org/ns#"
   xmlns:rdf="http://www.w3.org/1999/02/22-rdf-syntax-ns#"
   xmlns:svg="http://www.w3.org/2000/svg"
   xmlns="http://www.w3.org/2000/svg"
   xmlns:sodipodi="http://sodipodi.sourceforge.net/DTD/sodipodi-0.dtd"
   xmlns:inkscape="http://www.inkscape.org/namespaces/inkscape"
   width="430"
   height="480"
   id="svg2"
   version="1.1"
   inkscape:version="0.48.4 r9939"
   sodipodi:docname="dibujonoticias.svg">
  <defs
     id="defs4" />
  <sodipodi:namedview
     id="base"
     pagecolor="#ffffff"
     bordercolor="#666666"
     borderopacity="1.0"
     inkscape:pageopacity="0.0"
     inkscape:pageshadow="2"
     inkscape:zoom="0.49497475"
     inkscape:cx="-220.40882"
     inkscape:cy="118.74267"
     inkscape:document-units="px"
     inkscape:current-layer="layer1"
     showgrid="false"
     inkscape:object-paths="true"
     inkscape:snap-midpoints="true"
     inkscape:window-width="1360"
     inkscape:window-height="705"
     inkscape:window-x="-8"
     inkscape:window-y="-8"
     inkscape:window-maximized="1" />
  <metadata
     id="metadata7">
    <rdf:RDF>
      <cc:Work
         rdf:about="">
        <dc:format>image/svg+xml</dc:format>
        <dc:type
           rdf:resource="http://purl.org/dc/dcmitype/StillImage" />
        <dc:title></dc:title>
      </cc:Work>
    </rdf:RDF>
  </metadata>
  <g
     inkscape:label="Capa 1"
     inkscape:groupmode="layer"
     id="layer1"
     transform="translate(0,-572.36218)">
    <path
       sodipodi:nodetypes="sssssscssssscccssssscsssssssssscssccssssssssssssss"
       inkscape:connector-curvature="0"
       id="path3114"
       d="m 193.82305,1036.1242 c -10.12637,-1.0587 -34.48337,-6.7355 -44.704,-10.419 -5.72368,-2.0628 -17.41564,-7.4116 -25.98213,-11.8863 -55.108706,-28.78571 -94.009966,-82.35741 -105.118676,-144.761 -3.68764,-20.71543 -3.35727,-54.25528 0.72802,-73.90827 12.6976,-61.08408 48.68067,-110.36152 101.901696,-139.55051 l 13.65555,-7.48937 1.01563,-10.38 c 0.84574,-8.64351 1.65847,-10.93988 4.85821,-13.72672 3.41701,-2.97609 5.43001,-3.34673 18.17592,-3.34673 9.18247,0 15.21231,-0.66817 16.77924,-1.85929 1.90264,-1.44635 2.53623,-4.83251 2.85272,-15.24621 l 0.40683,-13.38691 38.21008,0 38.21008,0 0.40684,13.38691 c 0.31648,10.4137 0.95007,13.79986 2.85272,15.24621 1.56692,1.19112 7.59676,1.85929 16.77923,1.85929 12.89649,0 14.73291,0.34787 18.31931,3.47014 3.39171,2.9528 4.11601,4.9999 4.85821,13.73089 l 0.87225,10.26072 10.28733,5.64074 c 58.15693,31.88854 95.4031,84.52988 106.01463,149.83429 3.01436,18.55062 1.9256,54.76502 -2.19175,72.90199 -12.93586,56.98277 -46.14026,103.13018 -95.57414,132.82873 -35.09468,21.084 -81.68138,31.1843 -123.6138,26.8004 z m 58.38361,-14.5804 c 37.71822,-7.3519 69.30877,-24.45059 97.55098,-52.80041 37.34153,-37.48379 55.66773,-82.09794 55.68457,-135.56094 0.0148,-46.94978 -15.49939,-88.86077 -46.40833,-125.37045 -14.8848,-17.58193 -49.68797,-44.02009 -57.94802,-44.02009 -2.80659,0 -2.92011,1.05342 -2.92539,27.14569 -0.004,24.15844 -0.31645,27.66182 -2.83125,31.83606 -3.84608,6.38399 -12.60965,8.57442 -32.8015,8.19865 -32.49209,-0.60467 -80.24565,-0.89694 -95.72071,-0.009 -10.80512,0.20485 -25.12984,0.44302 -29.63535,-9.84836 -1.58944,-3.85018 -2.13335,-11.81635 -2.13335,-31.24558 0,-30.44224 0.6761,-29.54758 -15.22299,-20.14405 -47.605386,28.15624 -81.300496,78.31452 -90.013546,133.99341 -4.82506,30.83357 -0.9305,69.92825 9.76883,98.06231 20.44071,53.74905 65.612676,96.58107 120.451226,114.21166 12.14131,3.9035 19.60882,5.4531 40.41451,8.3868 8.54922,1.2054 39.82613,-0.508 51.77032,-2.8361 z M 216.60214,618.79691 c 3.23316,0 7.59274,0.4762 9.68798,1.05822 5.27002,1.46393 8.68225,-2.31325 8.68225,-9.61087 0,-9.0288 -2.44049,-10.41204 -18.37023,-10.41204 -15.92974,0 -18.37023,1.38324 -18.37023,10.41204 0,7.29762 3.41223,11.0748 8.68226,9.61087 2.09523,-0.58202 6.45481,-1.05822 9.68797,-1.05822 z"
       style="fill:#0b556a" />
    <path
       inkscape:connector-curvature="0"
       id="path3373"
       d="m 225.7905,718.89597 c 1.67674,-0.97558 2.79416,-2.49398 3.27377,-4.44856 0.23537,-0.95923 0.30852,-13.00665 0.2472,-40.71747 l -0.0871,-39.35516 -0.70307,-1.50988 c -0.88962,-1.91042 -1.72962,-2.81347 -3.27293,-3.51848 -1.15449,-0.5274 -2.49791,-0.55889 -23.85606,-0.55889 -21.40369,0 -22.69913,0.0305 -23.85609,0.56185 -1.51503,0.69579 -3.00595,2.22004 -3.73112,3.81448 -0.51954,1.14234 -0.55592,3.39723 -0.64224,39.80926 -0.0666,28.0526 0.004,39.09257 0.25833,40.40728 0.42143,2.17902 1.14815,3.65045 2.37038,4.79942 1.85151,1.7405 1.27026,1.70388 25.90659,1.63171 l 22.63266,-0.0663 1.45964,-0.84925 z m -25.63545,-5.7971 c -1.12834,-1.11685 -0.89669,-2.76978 0.49125,-3.505 0.89481,-0.47403 1.81272,-0.0687 2.26723,1.00135 0.46808,1.1019 0.10743,2.48631 -0.76863,2.95038 -0.83681,0.4433 -1.16514,0.36959 -1.98985,-0.44673 z m -20.48899,-9.62345 c -0.0804,-0.20925 -0.11111,-14.82078 -0.0676,-32.47006 l 0.0788,-32.08959 21.64007,-0.0776 21.64006,-0.0777 -0.0777,32.47005 -0.0778,32.47003 -21.49456,0.0778 c -17.03357,0.0616 -21.52495,-9e-4 -21.641,-0.30273 z m 28.24082,-16.33444 c 0.24973,-0.24718 0.36702,-1.6881 0.36702,-4.50859 0,-3.50073 0.0751,-4.17389 0.48378,-4.32908 0.26609,-0.101 2.23421,-0.18374 4.3736,-0.18374 2.61764,0 4.00989,-0.11885 4.25687,-0.36329 0.45076,-0.44617 0.51282,-11.95661 0.0682,-12.6542 -0.23055,-0.36175 -1.19352,-0.47402 -4.73593,-0.55211 l -4.44652,-0.098 0,-4.08445 c 0,-2.24646 -0.14256,-4.34797 -0.3166,-4.67003 -0.29712,-0.54946 -0.70013,-0.58556 -6.53829,-0.58556 -4.77307,0 -6.29949,0.0928 -6.55594,0.39871 -0.19646,0.2343 -0.36955,2.13793 -0.41977,4.61667 l -0.0855,4.21795 -4.34422,0.15137 c -2.46893,0.086 -4.48509,0.2913 -4.67055,0.47554 -0.21583,0.21443 -0.29828,2.46909 -0.24347,6.66011 l 0.0827,6.33592 4.28185,0.15137 c 2.35502,0.0833 4.45391,0.26158 4.66415,0.39629 0.2754,0.17639 0.38233,1.41133 0.38233,4.41484 0,2.29344 0.0918,4.26074 0.20391,4.37175 0.38721,0.38328 12.79526,0.23141 13.19219,-0.16146 z m 50.23063,5.87061 c 4.45465,-5.25255 7.25893,-10.5891 8.87457,-16.88825 3.03957,-11.85081 0.93903,-23.90522 -5.95069,-34.14911 -2.07076,-3.0789 -5.25147,-6.53989 -6.01024,-6.53989 -0.6311,0 -5.18205,5.36198 -5.18205,6.10553 0,0.2397 0.49213,0.90527 1.0936,1.47908 3.89849,3.71909 7.38497,10.39623 8.51953,16.31627 0.62087,3.23958 0.6283,9.56136 0.0132,12.48286 -1.28506,6.11828 -3.78924,11.10906 -7.93507,15.81432 -1.09924,1.24755 -1.99859,2.39945 -1.99859,2.55978 0,0.16034 1.04723,1.60399 2.3272,3.20815 1.78432,2.23625 2.4757,2.89505 2.96387,2.82419 0.36737,-0.0532 1.75619,-1.41242 3.2832,-3.21293 z m -10.49259,-8.76169 c 8.34297,-9.63993 9.53029,-22.39281 3.07941,-33.07567 -1.74567,-2.89088 -4.58957,-5.91456 -5.22745,-5.55789 -0.80206,0.4485 -4.19148,5.00218 -4.19148,5.63126 0,0.32817 0.62641,1.28632 1.39205,2.12922 1.60072,1.76227 3.59914,5.69082 4.08563,8.0317 0.4768,2.29428 0.41142,6.89411 -0.12786,9.00346 -0.67429,2.6367 -2.38075,5.80152 -4.30689,7.98757 -0.92924,1.05463 -1.62255,2.09032 -1.54068,2.30152 0.082,0.2112 1.01879,1.48543 2.08201,2.83163 1.34172,1.69883 2.1344,2.4492 2.59103,2.45277 0.426,0.003 1.18889,-0.60844 2.16439,-1.73557 z m -9.65267,-8.80685 c 4.93355,-5.43143 5.02089,-14.11843 0.19397,-19.30165 -0.68231,-0.73271 -1.45993,-1.3322 -1.72801,-1.3322 -0.60241,0 -4.0224,3.30357 -4.0224,3.88548 0,0.23265 0.47799,1.0675 1.06218,1.85523 1.40557,1.89528 2.06774,4.39944 1.68774,6.38271 -0.33876,1.76813 -1.20293,3.53859 -2.134,4.37209 -1.44525,1.29378 -1.40184,1.5412 0.63994,3.64586 1.04477,1.07694 2.14028,1.95806 2.43446,1.95806 0.29417,0 1.13392,-0.6595 1.86612,-1.46558 z"
       style="fill:#ffffff;fill-opacity:1;stroke:none;marker-end:none"
       sodipodi:nodetypes="cssccsscsscsscccccccccscccccscccscsccscscscscccscccsccccsssssscsssccccscssscscscccssssssssss" />
    <path
       inkscape:connector-curvature="0"
       id="path5850"
       d="m 139.8362,968.25232 c -6.71731,-2.63492 -10.95342,-7.41532 -13.24924,-14.95173 1.71196,-47.04792 -2.90123,-94.24303 -0.65533,-141.26206 0.0987,-3.04797 3.6132,-8.47934 6.90099,-10.66506 2.48153,-1.64971 4.50668,-2.25619 8.50616,-2.54736 2.88707,-0.21018 5.53971,-0.78858 5.89475,-1.28532 0.35502,-0.49674 0.7621,-4.89707 0.90461,-9.77848 0.23212,-7.95104 0.46418,-9.27214 2.22839,-12.68635 1.98669,-3.84472 6.73441,-7.83115 9.46216,-7.94489 36.23171,-4.20664 25.10529,-2.34076 66.43978,-2.3498 17.02628,-2.72419 60.26238,2.08421 66.43977,2.3498 4.08488,0.17034 10.98677,7.9998 11.13692,12.6337 2.66719,38.56892 4.67107,117.38873 1.40524,168.55961 -1.41413,6.86553 -11.10067,18.08494 -15.30981,19.92794 -47.74058,3.33816 -111.29989,3.21026 -150.10439,0 z m 148.84496,-9.94018 c 1.87736,-1.03089 3.87556,-3.01252 5.02553,-4.98387 l 1.90902,-3.2724 0,-84.55749 0,-84.55755 -1.97211,-2.23716 -1.9721,-2.23716 -65.40305,0 -65.40304,0 -1.97212,2.23691 -1.97211,2.23692 -0.35564,80.32816 c -0.34681,78.34081 -0.38977,80.35652 -1.73626,81.47323 -1.91345,1.58692 -3.70164,1.43103 -5.37627,-0.46868 -1.39906,-1.58708 -1.4225,-2.68947 -1.4225,-66.86929 0,-57.05 -0.1343,-65.38205 -1.06797,-66.26107 -0.69104,-0.65059 -2.46449,-0.87406 -5.02496,-0.6332 -3.08174,0.28991 -4.37942,0.85143 -5.86676,2.53868 l -1.90976,2.16643 0,68.42067 0,68.4206 1.8978,3.25327 c 1.11099,1.9044 3.1752,3.97049 4.97879,4.98315 l 3.08096,1.73004 70.72302,6.5e-4 c 70.61637,6.4e-4 70.72773,0 73.83953,-1.71084 z M 171.11384,943.02041 c -0.26606,-0.48838 -0.18714,-1.22444 0.1754,-1.63571 0.38579,-0.43763 10.37474,-0.65945 24.08511,-0.53483 20.26545,0.1842 23.42592,0.37621 23.42592,1.42318 0,1.04723 -3.1798,1.23892 -23.60132,1.4228 -16.59074,0.1494 -23.74504,-0.0512 -24.08511,-0.67544 z m 62.59035,0 c -0.26606,-0.48838 -0.18714,-1.22444 0.17541,-1.63571 0.3858,-0.43763 10.37473,-0.65945 24.08509,-0.53483 20.26547,0.1842 23.42595,0.37621 23.42595,1.42318 0,1.04723 -3.1798,1.23892 -23.60134,1.4228 -16.59073,0.1494 -23.74502,-0.0512 -24.08511,-0.67544 z m -62.59035,-19.36427 c -0.26606,-0.48837 -0.18714,-1.22445 0.1754,-1.63572 0.38579,-0.43763 10.37474,-0.65945 24.08511,-0.53482 20.26545,0.18419 23.42592,0.37621 23.42592,1.42319 0,1.04721 -3.1798,1.2389 -23.60132,1.4228 -16.59074,0.14938 -23.74504,-0.0513 -24.08511,-0.67545 z m 62.59035,0 c -0.26606,-0.48837 -0.18714,-1.22445 0.17541,-1.63572 0.3858,-0.43763 10.37473,-0.65945 24.08509,-0.53482 20.26547,0.18419 23.42595,0.37621 23.42595,1.42319 0,1.04721 -3.1798,1.2389 -23.60134,1.4228 -16.59073,0.14938 -23.74502,-0.0513 -24.08511,-0.67545 z m -62.59035,-19.36427 c -0.26606,-0.48838 -0.18714,-1.22444 0.1754,-1.63571 0.38579,-0.43764 10.37474,-0.65945 24.08511,-0.53482 20.26545,0.18419 23.42592,0.37621 23.42592,1.42318 0,1.04722 -3.1798,1.2389 -23.60132,1.4228 -16.59074,0.14938 -23.74504,-0.0512 -24.08511,-0.67545 z m 62.59035,0 c -0.26606,-0.48838 -0.18714,-1.22444 0.17541,-1.63571 0.3858,-0.43764 10.37473,-0.65945 24.08509,-0.53482 20.26547,0.18419 23.42595,0.37621 23.42595,1.42318 0,1.04722 -3.1798,1.2389 -23.60134,1.4228 -16.59073,0.14938 -23.74502,-0.0512 -24.08511,-0.67545 z m -62.59355,-19.37011 c -0.26431,-0.48515 -0.18638,-1.21583 0.17316,-1.62369 0.38934,-0.44166 22.78796,-0.65797 55.38028,-0.53485 48.09066,0.1817 54.72656,0.35353 54.72656,1.41704 0,1.06355 -6.65512,1.23532 -54.89971,1.41693 -39.13648,0.14734 -55.03767,-0.0465 -55.38029,-0.67543 z m 0,-19.36427 c -0.26431,-0.48516 -0.18638,-1.21582 0.17316,-1.62371 0.38934,-0.44165 22.78796,-0.65796 55.38028,-0.53483 48.09066,0.18169 54.72656,0.35351 54.72656,1.41704 0,1.06355 -6.65512,1.23531 -54.89971,1.41694 -39.13648,0.14734 -55.03767,-0.0465 -55.38029,-0.67544 z m 1.1025,-20.10577 c -1.35928,-1.54197 -1.42251,-2.68949 -1.42251,-25.81903 0,-23.12955 0.0633,-24.27706 1.42251,-25.81902 1.35929,-1.54198 2.37084,-1.61371 22.76012,-1.61371 20.38929,0 21.40085,0.0717 22.76013,1.61371 1.35929,1.54196 1.42252,2.68947 1.42252,25.81902 0,23.12954 -0.0633,24.27706 -1.42252,25.81903 -1.35928,1.54197 -2.37084,1.61368 -22.76013,1.61368 -20.38928,0 -21.40083,-0.0717 -22.76012,-1.61368 z m 37.55421,-9.03667 c 0.60578,-0.68717 0.8535,-5.55826 0.8535,-16.78236 0,-11.22411 -0.24772,-16.09518 -0.8535,-16.78237 -0.60577,-0.68718 -4.89975,-0.96822 -14.79409,-0.96822 -9.89432,0 -14.18831,0.28104 -14.79407,0.96822 -0.60577,0.68719 -0.85351,5.55826 -0.85351,16.78237 0,11.2241 0.24774,16.09519 0.85351,16.78236 0.60576,0.68721 4.89975,0.96822 14.79407,0.96822 9.89434,0 14.18832,-0.28101 14.79409,-0.96822 z m 23.93684,9.78401 c -0.26606,-0.48837 -0.18714,-1.22444 0.17541,-1.6357 0.3858,-0.43765 10.37473,-0.65947 24.08509,-0.53484 20.26547,0.18419 23.42595,0.37621 23.42595,1.4232 0,1.04721 -3.1798,1.23891 -23.60134,1.42279 -16.59073,0.14938 -23.74502,-0.0513 -24.08511,-0.67545 z m 0,-19.36426 c -0.26606,-0.48838 -0.18714,-1.22445 0.17541,-1.63573 0.3858,-0.43763 10.37473,-0.65944 24.08509,-0.53481 20.26547,0.18421 23.42595,0.3762 23.42595,1.42318 0,1.04721 -3.1798,1.2389 -23.60134,1.42279 -16.59073,0.14939 -23.74502,-0.0512 -24.08511,-0.67543 z m 0,-19.36426 c -0.26606,-0.48839 -0.18714,-1.22445 0.17541,-1.63573 0.3858,-0.43763 10.37473,-0.65945 24.08509,-0.53483 20.26547,0.1842 23.42595,0.37621 23.42595,1.4232 0,1.04722 -3.1798,1.2389 -23.60134,1.42278 -16.59073,0.14939 -23.74502,-0.0512 -24.08511,-0.67542 z"
       style="fill:#0b556a;fill-opacity:1"
       sodipodi:nodetypes="cccsssssccccccccccccccccccsssssssccccccscscssssssssssscssssssssssscsssssssssscssssccsssscssssssssssssssssssssssssssssssssssss" />
    <a
       id="a3809"
       inkscape:export-filename="K:\Iconos\PNG\path3795.png"
       inkscape:export-xdpi="90"
       inkscape:export-ydpi="90" />
    <path
       style="fill:#ffffff;stroke:none"
       d="m 196.81913,935.98731 c 0.2694,-0.66973 0.59832,-1.47674 0.84357,-2.0452 0.9506,-2.24174 6.86055,-12.86674 10.64,-19.1287 3.03655,-5.0311 3.59179,-5.81615 5.03704,-7.12172 3.06644,-2.77007 27.59674,-24.05704 40.57238,-35.208 7.14048,-6.13636 13.06828,-11.1699 13.31696,-11.44821 0.39838,-0.44584 0.81454,-0.56662 2.30106,-0.64022 1.50784,0.37837 1.50802,0.34626 1.84796,0.63459 1.15979,0.61751 3.28391,2.05202 6.2105,5.58485 1.60135,1.93305 3.62546,4.62973 4.49805,5.99265 1.84562,2.88272 4.94234,8.37297 4.94234,8.76237 0.32467,0.67794 0.43212,1.19325 0.301,1.99218 -0.15779,0.63247 -0.43291,0.86063 -0.76817,1.2903 -1.4219,1.87343 -56.52153,43.83107 -57.73791,44.76436 0,0 -5.18352,1.42321 -11.10929,2.99032 -2.45696,0.51343 -15.27278,3.27838 -19.57491,3.61512 -0.63363,0.004 -0.87471,0 -1.32056,-0.0346 z"
       id="path3825-1"
       inkscape:connector-curvature="0"
       sodipodi:nodetypes="ccssssccsscccccccc" />
    <g
       id="g3823"
       transform="matrix(0.22915534,0,0,0.2526791,426.21554,721.8941)"
       style="stroke:none;fill:#0b556a;fill-opacity:1">
      <path
         style="fill:#0b556a;fill-opacity:1;stroke:none"
         d="m -1010.2455,855.07648 c 1.2243,-2.78346 2.7191,-6.13747 3.8336,-8.5 4.32,-9.31683 31.17791,-53.47494 48.35362,-79.5 13.79963,-20.90954 16.32295,-24.17223 22.89091,-29.59826 13.93542,-11.51254 125.41372,-99.98246 184.38167,-146.32651 32.45,-25.50308 59.38893,-46.42273 60.51906,-47.57938 1.81044,-1.85293 3.7017,-2.3549 10.45719,-2.66085 6.85239,1.57257 6.85327,1.43912 8.39811,2.6374 5.27069,2.56645 14.92374,8.52837 28.22372,23.21101 7.2773,8.03385 16.47592,19.24145 20.44139,24.90578 8.38749,11.98082 22.46053,34.79851 22.46053,36.41696 1.47546,2.81755 1.96379,4.95922 1.36786,8.27956 -0.71702,2.6286 -1.9673,3.57685 -3.49093,5.36258 -6.46188,7.7861 -254.91463,184.28459 -260.44246,188.16335 0,0 -25.11512,6.26842 -52.04484,12.78137 -11.16569,2.13373 -69.797,11.15153 -89.34803,12.55118 -2.8796,0.0174 -3.9751,-0.006 -6.0013,-0.14419 z m 36.03902,-13.97297 c 4.09127,-0.53097 5.0988,-2.76326 5.52152,-3.44723 0.43451,-0.70306 -3.0527,-5.77789 -4.17958,-7.68783 -3.17329,-5.37832 -6.63855,-5.86154 -6.63855,-5.86154 -1.66289,-1.12807 -10.71676,14.56161 -10.71676,17.87045 0,1.91155 -1.50746,1.035 4.18405,1.00688 3.4375,-0.017 7.73804,-1.34976 11.82932,-1.88073 z m 53.52016,-13.39532 c 18.67029,-3.46124 51.3007,-11.36317 52.77428,-12.83675 2.16669,-2.16669 -0.0224,-2.18511 -4.10204,-3.43523 -3.19176,-0.97805 -9.75943,-2.56105 -25.02567,-3.9185 -3.98968,-0.35475 -4.66034,-2.62372 -4.96275,-3.11303 -0.30241,-0.48932 -1.82678,-3.25261 0.0849,-8.06975 5.01231,-12.63017 5.75354,-19.04438 5.38591,-22.88062 -0.28831,-3.00856 -1.0245,-2.12489 -4.17721,-2.44177 -1.925,-0.19348 -18.47685,-0.88064 -18.47685,-0.88064 0,0 -8.73644,0.6903 -9.67614,-0.24936 -0.9397,-0.9397 -3.49772,-3.72783 -4.02043,-10.86924 -0.15438,-2.10915 -2.67596,-0.52709 -10.19772,10.58011 -13.52804,19.97654 -22.32397,34.43516 -22.3293,38.38943 -0.006,4.67428 16.73274,25.10071 20.65367,25.1622 1.14433,0.0179 18.33867,-4.37445 24.06935,-5.43685 z m 81.00157,-36.54202 c 53.38762,-39.96825 96.19868,-70.52522 128.40854,-92.963 23.35303,-16.26801 28.1058,-18.79867 28.31882,-20.1041 0.17705,-1.08507 -0.2822,-2.18676 -2.15747,-4.78933 -1.87527,-2.60257 -10.3862,-14.14475 -25.34092,-35.12772 -14.95472,-20.98296 -24.38327,-30.22531 -25.2375,-30.93425 -2.04204,-1.69475 -5.90781,2.50509 -14.34956,8.98072 -84.34111,64.69772 -158.05484,120.32178 -160.04958,123.74152 -1.43899,2.46696 -3.36139,12.39737 -3.36139,14.32469 0,3.57289 -0.82899,4.44133 11.65592,2.96779 6.58707,-0.77745 17.61834,0.70064 19.14751,1.74121 l 4.06477,2.766 2.1441,5.64167 c -0.29558,8.81515 -4.49407,22.84779 -5.81788,27.88587 11.36722,2.44942 22.0593,1.01074 33.22425,5.68221 0,0 5.33387,-6.73818 9.35039,-9.81328 z m 194.01232,-138.66902 c 23.79961,-15.73404 20.17405,-14.64959 20.17405,-14.64959 1.3941,-3.70082 1.58005,-1.74222 -14.57762,-25.99913 -9.95019,-14.93785 -13.63689,-22.24969 -26.50954,-35.6893 -18.28834,-19.09383 -6.27139,-12.5256 -13.30239,-11.55859 -4.62975,0.63675 -4.33353,-2.53328 -20.89639,10.66933 -9.98694,7.96081 -15.61714,13.14892 -16.08251,13.97519 -1.07818,1.9143 2.85574,13.19444 35.40339,57.83142 17.57017,24.09636 24.05423,12.61623 25.68835,12.61623 0.75666,0 -1.60696,0.54573 10.10266,-7.19556 z"
         id="path3825"
         inkscape:connector-curvature="0"
         sodipodi:nodetypes="ccssssccssccccccccssssssssssssssscsssccscscsssssssscccccssssssssss" />
    </g>
  </g>
</svg>
