<?xml version="1.0" encoding="UTF-8" standalone="no"?>
<!-- Created with Inkscape (http://www.inkscape.org/) -->

<svg
   xmlns:dc="http://purl.org/dc/elements/1.1/"
   xmlns:cc="http://creativecommons.org/ns#"
   xmlns:rdf="http://www.w3.org/1999/02/22-rdf-syntax-ns#"
   xmlns:svg="http://www.w3.org/2000/svg"
   xmlns="http://www.w3.org/2000/svg"
   xmlns:sodipodi="http://sodipodi.sourceforge.net/DTD/sodipodi-0.dtd"
   xmlns:inkscape="http://www.inkscape.org/namespaces/inkscape"
   width="430"
   height="480"
   id="svg2"
   version="1.1"
   inkscape:version="0.48.4 r9939"
   sodipodi:docname="Documento nuevo 1">
  <defs
     id="defs4" />
  <sodipodi:namedview
     id="base"
     pagecolor="#ffffff"
     bordercolor="#666666"
     borderopacity="1.0"
     inkscape:pageopacity="0.0"
     inkscape:pageshadow="2"
     inkscape:zoom="0.49497475"
     inkscape:cx="199.98833"
     inkscape:cy="447.85094"
     inkscape:document-units="px"
     inkscape:current-layer="g3036"
     showgrid="false"
     inkscape:snap-page="true"
     inkscape:window-width="1366"
     inkscape:window-height="712"
     inkscape:window-x="0"
     inkscape:window-y="0"
     inkscape:window-maximized="1" />
  <metadata
     id="metadata7">
    <rdf:RDF>
      <cc:Work
         rdf:about="">
        <dc:format>image/svg+xml</dc:format>
        <dc:type
           rdf:resource="http://purl.org/dc/dcmitype/StillImage" />
        <dc:title></dc:title>
      </cc:Work>
    </rdf:RDF>
  </metadata>
  <g
     inkscape:label="Capa 1"
     inkscape:groupmode="layer"
     id="layer1"
     transform="translate(0,-572.36218)">
    <g
       id="g3007"
       transform="matrix(0.6644068,0,0,0.55616724,20.70639,689.14801)">
      <path
         style="fill:#0b556a;fill-opacity:1;stroke:#0c9ba0;stroke-width:3.30326915;stroke-miterlimit:4;stroke-opacity:1;stroke-dasharray:none"
         d="m 367.35445,210.5156 c -1.20312,-2.33619 -17.61622,-3.10827 -20.6004,-2.66082 -2.05314,0.30785 -2.52429,0.18964 -3.28974,-0.82541 -1.17897,-1.56342 -1.53402,-1.49761 -2.36851,0.43901 -1.3962,3.24019 -6.01976,3.94659 -7.33513,1.12069 -0.60956,-1.30955 -0.62079,-2.11775 -0.0829,-5.96301 1.26214,-9.02222 4.30225,-19.34 7.70034,-26.13404 2.22554,-4.44966 7.21039,-10.75188 10.05093,-12.70711 1.84974,-1.27325 3.01354,-1.66113 5.01188,-1.67039 1.43149,-0.007 3.77392,-0.38934 5.20541,-0.85045 1.43148,-0.4611 3.34802,-0.8358 4.25897,-0.83264 2.24572,0.008 5.5462,1.88372 7.66391,4.35606 1.72106,2.00927 1.82221,2.04577 6.40274,2.31047 5.86276,0.3388 16.68977,-0.64159 26.96559,-2.44173 10.40828,-1.82335 12.1893,-1.82643 13.17405,-0.0228 1.45282,2.66094 -0.65236,4.97797 -6.64779,7.31682 -9.63598,3.75903 -22.78292,7.22622 -32.65594,8.61222 -3.35235,0.47061 -6.24962,1.0488 -6.43836,1.28488 -0.18874,0.23608 -0.68998,3.36814 -1.11385,6.96014 -1.23585,24.36359 -2.24629,18.63453 -5.90123,21.70814 z m -22.23447,-11.57208 c 2.8685,-6.81948 5.09625,-15.39423 3.73768,-14.38658 -1.26802,0.94049 -6.14006,14.89626 -6.14006,17.58799 0,1.56886 0.90074,0.36852 2.40238,-3.20141 z m 19.08123,-41.84991 c -2.41332,-1.35965 -5.05438,-4.48092 -6.455,-7.62866 -0.92152,-2.07104 -1.06733,-3.25142 -1.06794,-8.64548 -4.8e-4,-5.5843 0.13333,-6.59012 1.26287,-9.48203 4.38792,-11.23413 15.50095,-14.55123 21.80701,-6.5091 5.77237,7.36151 5.24904,20.48896 -1.12159,28.13429 -2.88532,3.46265 -5.24188,4.74908 -9.17209,5.00699 -2.56108,0.16807 -3.75279,-0.0307 -5.25326,-0.87601 z"
         id="path3013"
         inkscape:connector-curvature="0"
         sodipodi:nodetypes="csssssssssssssssscccsssssscsssss" />
    </g>
    <g
       id="g3036"
       transform="translate(218.57143,-92.857143)">
      <path
         style="fill:#0b556a;fill-opacity:1"
         d="m 19.0662,943.90294 c 3.30019,0.0911 6.76524,0.59822 10.29911,0.89286 5.18322,0.43215 13.6871,0.99107 18.34376,0.99107 8.13106,1.23512 10.30839,0.73652 17.11159,0.98209 9.61828,-3.02791 6.31908,-0.9138 6.34822,-25.16517 -0.318,-6.12873 -0.37306,-6.61572 -0.61607,-15.27233 -0.087,-4.44121 0,-3.14934 0,-10.69196 0,-4.64144 -0.28212,-8.71962 -0.625,-9.0625 -0.34288,-0.34288 -2.07222,0.46128 -3.84375,1.8125 -1.77154,1.35121 -3.62692,2.46575 -4.125,2.46875 -0.49809,0.003 -2.25625,0.72743 -3.90625,1.59375 -3.76217,1.97531 -18.06637,2.45134 -25.03125,0.84375 -5.38798,-1.24358 -10.89026,-3.73868 -13.71875,-6.2187 -2.1574,-1.8916 -2.03071,-3.2472 -1.78125,18.28125 0.37831,29.13816 -0.32849,36.94843 1.54464,38.54464 z m -163.10713,-45.57589 c -0.3089,0.0106 -0.64208,0.0621 -0.96875,0.1875 -1.39759,0.5363 -5.4375,6.76699 -5.4375,8.375 0,0.49714 0.947,1.77752 2.125,2.875 l 2.15625,2 -2.9375,3.34375 c -5.11626,5.82709 -5.8096,8.69261 -4.4375,18.5625 1.15321,8.29537 2.0064,10.53374 4.125,10.8125 0.5225,0.0688 1.35904,0.1813 1.84375,0.25 1.08059,0.15327 2.56787,6.03857 4.1875,16.625 0.67317,4.4 1.64857,8.5625 2.1875,9.25 1.35622,1.7301 2.51734,1.57158 5.46875,-0.75 1.39842,-1.1 3.12998,-2 3.84375,-2 2.46032,0 2.56731,-4.02547 0.4375,-17.21875 l -2.15625,-13.25 2.21875,-1.78125 c 2.06096,-1.66887 2.1819,-2.32287 1.5625,-9.75 -0.36535,-4.3808 -1.23005,-9.68206 -1.90625,-11.75 -1.05173,-3.21632 -1.72649,-3.82228 -4.71875,-4.25 -3.36858,-0.48151 -3.51541,-0.66408 -3.65625,-4.9375 -0.13305,-4.03702 -1.77518,-6.66779 -3.9375,-6.59375 z m 289.5625,-49.375 c -1.39155,0.23771 -2.35006,2.31225 -2.40625,6.09375 -0.0572,3.84884 -0.33754,4.25361 -3.21875,5 -3.7813,0.97957 -4.15588,1.79956 -5.9375,13.3125 -1.73369,11.20325 -1.78244,10.09661 0.5625,12.28125 1.98344,1.84789 1.994,1.8789 0.0313,13.78125 -2.79871,16.97128 -2.73627,17.61533 1.75,20.6875 3.98807,2.731 5.81175,3.25336 6.625,1.9375 0.27598,-0.44655 1.21156,-5.05905 2.0625,-10.25 2.14147,-13.06345 2.7403,-14.82732 5.53125,-16.21875 2.10252,-1.04822 2.64261,-2.4051 3.8125,-9.71875 1.50049,-9.38039 0.94357,-12.48848 -3.34375,-19.15625 -2.33731,-3.63508 -2.3468,-3.66878 -0.40625,-5.90625 2.37214,-2.73515 2.38038,-2.18145 -0.0937,-7.03125 -1.77003,-3.46954 -3.55704,-4.8125 -4.96875,-4.8125 z m -258.0625,124.90625 c 2.08465,-2.08465 1.60966,5.0641 1.25,5.125 -0.35966,0.0609 -1.70213,0.0103 -2.96875,-0.0937 -10.05196,3.57699 -1.33186,34.7526 4.6875,34.9687 1.63498,0 2.21193,1.6753 4.125,12.25 4.77475,26.3931 5.91763,29.75 10.125,29.75 1.14542,0 3.4284,1.125 5.0625,2.5 3.45282,2.9054 3.79529,2.9573 6.34375,1.0938 1.87404,-1.3703 1.86129,-1.6627 0.0937,-14.75 -0.99181,-7.3436 -1.9767,-13.9103 -2.1875,-14.5938 -0.38525,-1.2489 0.45111,-2.1954 3.96875,-4.625 1.85653,-1.2822 1.85566,-1.6063 0.15625,-13.2187 -1.41808,-9.6899 -2.16129,-12.27792 -3.96875,-13.90625 -1.22102,-1.1 -3.60499,-3.81214 -5.3125,-6.03125 -1.70752,-2.21912 -4.26495,-4.64493 -5.6875,-5.40625 -1.82699,-0.97778 -2.59375,-2.1982 -2.59375,-4.15625 0,-1.5246 0.45,-3.06633 1,-3.40625 2.2775,-1.40757 1.48481,-5.86907 -4.65625,-10.03125 -3.61955,-2.45319 -4.48419,-1.5168 -6.57143,-0.82589 -1.60941,1.7838 -2.96285,1.30188 -2.86607,5.35714 z m 251.46875,-39 c -1.74333,0 -13.375,11.11621 -13.375,12.78125 0,0.5864 0.7875,2.44348 1.75,4.125 l 1.75,3.0625 -4.5,4.34375 c -11.75559,11.34741 -11.92375,11.74075 -14,24.46875 -1.91287,11.72639 -1.66573,14.21875 1.5,14.21875 2.32542,0 2.38771,2.7141 0.28125,16.875 -1.70858,11.4861 -1.85834,14.3336 -0.8125,15.5937 1.83467,2.2107 4.32179,1.9073 6.90625,-0.8437 1.2344,-1.314 3.46353,-2.6353 4.9375,-2.9375 1.47398,-0.3022 3.2383,-1.5112 3.9375,-2.6563 0.6992,-1.145 2.63867,-9.3862 4.28125,-18.3125 3.88593,-21.11717 3.7811,-20.7187 5.375,-20.7187 0.75359,0 2.33331,-0.7875 3.5,-1.75 1.65926,-1.36886 2.65387,-4.66853 4.65625,-15.1875 3.00338,-15.77747 2.5838,-18.434 -2.84375,-17.90625 -3.67949,0.35778 -3.76884,-0.15573 -1.28125,-6.9375 1.71859,-4.68529 0.84028,-8.21875 -2.0625,-8.21875 z m -88.0625,22.25 c -4.35497,-0.11356 -8.88574,3.36019 -10.3125,12.84375 -0.01,0.87726 0.9,2.41076 2,3.40625 3.53749,3.20139 2.57808,6.00837 -2.71875,8.03125 -5.60738,2.14148 -15.26973,11.38647 -15.375,14.71875 -0.0391,1.23737 -0.4212,6.3 -0.875,11.25 -0.97022,10.583 0.10152,13.5 4.9375,13.5 1.60486,0 3.12385,0.3868 3.40625,0.8437 0.28239,0.457 0.0205,7.8552 -0.59375,16.4688 -1.04359,14.6349 -0.9795,15.811 0.71875,17.6875 2.31818,2.5616 4.55497,2.549 7.875,-0.063 1.91768,-1.5085 3.41284,-1.9272 5.5,-1.4688 2.17665,0.4781 3.53118,0.087 5.59375,-1.6875 2.6015,-2.2377 2.82154,-3.1406 4.65625,-19.8125 2.57438,-23.3932 2.23366,-22.1792 6.1875,-21.4375 5.1229,0.9611 6.32234,-1.2543 8.125,-14.99995 2.01247,-15.34536 1.99494,-15.16131 -1,-18.15625 -2.12854,-2.12855 -3.286,-2.50068 -7.15625,-2.21875 -5.14051,0.37447 -6.73765,-1.18903 -2.96875,-2.90625 4.38069,-8.00488 -1.63504,-15.83403 -8,-16 z m -77.437502,10.125 c -7.513885,0.066 -12.915985,6.22511 -8.406255,12.1875 3.25941,4.30933 1.46157,7.4375 -4.25,7.4375 -3.97304,0 -10.77799,3.73721 -12.09375,6.625 -0.82874,1.81888 -0.97805,6.5367 -0.5,16.0625 0.6437,12.8263 0.80191,13.561 3,14.5625 4.49399,2.0476 5.375,-0.1519 5.375,-13.4375 0,-10.84296 0.16224,-11.92945 1.75,-11.625 1.60601,0.30796 1.78806,2.9149 2.375,31.75 0.58376,28.6793 0.79309,31.5476 2.4375,32.75 2.55536,1.8685 5.12068,1.6293 7.4375,-0.6875 1.848135,-1.8481 2.000005,-3.3368 2.000005,-19.5625 0,-11.4514 0.34784,-17.3406 1,-16.9375 0.60438,0.3735 1,7.4705 1,17.9375 0,12.6548 0.33661,17.5817 1.25,18.3125 2.62624,2.1011 5.46131,2.3088 7.56249,0.5312 2.01432,-1.704 2.11713,-2.9797 2.78125,-32.5312 0.38008,-16.9125 1.00901,-30.75 1.40625,-30.75 0.93687,0 2.14424,7.8751 2.375,15.5 0.21194,7.0033 0.91158,8.5 3.96875,8.5 3.666932,0 4.656252,-1.9184 4.656252,-9.1875 0.54988,-18.07452 2.31558,-21.15099 -0.6875,-24.34375 -4.833122,-6.54651 -21.848102,-1.69362 -14.312502,-13.125 1.51715,-2.7378 1.19753,-6.92318 -1.681,-8.14784 -3.27892,-1.49206 -2.44408,-1.2023 -8.44399,-1.82091 z"
         id="path3046"
         inkscape:connector-curvature="0"
         sodipodi:nodetypes="csccccsssssssccccscccsccsssscccssssccsssssssssssssscsccsssssssssssssscccscccsssssssssssssssccssssssssscssssscscccsssssssssssssssssccccccc" />
      <path
         style="fill:#0b556a;fill-opacity:1;stroke:#0c9ba0;stroke-width:2.0079999;stroke-miterlimit:4;stroke-opacity:1;stroke-dasharray:none"
         d="m -53.761599,945.87238 c -0.92674,-0.37395 -1.25396,-4.68522 -1.26531,-16.67105 -0.008,-8.89167 -0.41301,-16.79474 -0.89908,-17.56239 -0.48607,-0.76764 -1.60418,-1.11927 -2.484695,-0.78138 -1.28451,0.49291 -1.64575,2.4487 -1.82773,9.89571 -0.12474,5.10477 -0.10753,11.75639 0.0383,14.78139 0.39618,8.22088 -0.32554,10.19018 -3.59632,9.81306 -2.38333,-0.2748 -2.79771,-0.86297 -3.391,-4.81306 -0.37173,-2.475 -0.75807,-13.275 -0.85853,-24 -0.10046,-10.725 -0.47132,-22.10204 -0.82412,-25.28232 l -0.64152,-5.78231 -13.25,-13.37912 c -7.2875,-7.35852 -13.25,-14.03887 -13.25,-14.84524 0,-2.06415 2.66067,-4.0331 4.2062,-3.11267 0.71159,0.42378 6.52573,5.18753 12.92032,10.58609 10.87361,9.17993 14.83279,11.30846 16.37945,8.80591 0.3432,-0.55531 -0.30524,-2.19099 -1.44099,-3.63485 -4.15788,-5.2859 -1.33415,-12.35549 4.93502,-12.35549 3.795945,0 7.000005,3.14233 7.000005,6.86514 0,1.57583 -0.9,4.00931 -2,5.40773 -2.93195,3.72737 -2.49448,4.72713 2.06848,4.72713 3.64643,0 5.1599,-0.90772 14.58918,-8.75 14.4067,-11.98197 14.04073,-11.7452 15.84266,-10.24974 0.82482,0.68455 1.49968,2.02597 1.49968,2.98094 0,0.95498 -6.15246,7.62448 -13.67214,14.82113 l -13.67215,13.08482 -0.43519,28.30643 c -0.23936,15.56853 -0.85273,29.09392 -1.36304,30.05642 -0.92342,1.74165 -2.22523,2.04898 -4.60748,1.08772 z"
         id="path3038"
         inkscape:connector-curvature="0" />
    </g>
    <g
       id="layer1-4"
       inkscape:label="Capa 1"
       transform="translate(-147.54724,308.53529)">
      <path
         style="fill:#0b556a"
         d="m 343.32563,727.0175 c -10.12637,-1.05869 -34.48337,-6.73544 -44.704,-10.41893 -5.72368,-2.0628 -17.41564,-7.41163 -25.98213,-11.8863 -55.10871,-28.78576 -94.00997,-82.35746 -105.11868,-144.76105 -3.68764,-20.71543 -3.35727,-54.25528 0.72802,-73.90827 12.6976,-61.08408 48.68067,-110.36152 101.9017,-139.55051 l 13.65555,-7.48937 1.01563,-10.38 c 0.84574,-8.64351 1.65847,-10.93988 4.85821,-13.72672 3.41701,-2.97609 5.43001,-3.34673 18.17592,-3.34673 9.18247,0 15.21231,-0.66817 16.77924,-1.85929 1.90264,-1.44635 2.53623,-4.83251 2.85272,-15.24621 l 0.40683,-13.38691 38.21008,0 38.21008,0 0.40684,13.38691 c 0.31648,10.4137 0.95007,13.79986 2.85272,15.24621 1.56692,1.19112 7.59676,1.85929 16.77923,1.85929 12.89649,0 14.73291,0.34787 18.31931,3.47014 3.39171,2.9528 4.11601,4.9999 4.85821,13.73089 l 0.87225,10.26072 10.28733,5.64074 c 58.15693,31.88854 95.4031,84.52988 106.01463,149.83429 3.01436,18.55062 1.9256,54.76502 -2.19175,72.90199 -12.93586,56.98277 -46.14026,103.13018 -95.57414,132.82877 -35.09468,21.08397 -81.68138,31.18429 -123.6138,26.80034 z m 58.38361,-14.58037 c 37.71822,-7.3519 69.30877,-24.4506 97.55098,-52.80042 37.34153,-37.48379 55.66773,-82.09794 55.68457,-135.56094 0.0148,-46.94978 -15.49939,-88.86077 -46.40833,-125.37045 -14.8848,-17.58193 -49.68797,-44.02009 -57.94802,-44.02009 -2.80659,0 -2.92011,1.05342 -2.92539,27.14569 -0.004,24.15844 -0.31645,27.66182 -2.83125,31.83606 -3.84608,6.38399 -12.60965,8.57442 -32.8015,8.19865 -32.49209,-0.60467 -80.24565,-0.89694 -95.72071,-0.009 -10.80512,0.20485 -25.12984,0.44302 -29.63535,-9.84836 -1.58944,-3.85018 -2.13335,-11.81635 -2.13335,-31.24558 0,-30.44224 0.6761,-29.54758 -15.22299,-20.14405 -47.60539,28.15624 -81.3005,78.31452 -90.01355,133.99341 -4.82506,30.83357 -0.9305,69.92825 9.76883,98.06231 20.44071,53.74905 65.61268,96.58107 120.45123,114.21171 12.14131,3.90345 19.60882,5.45309 40.41451,8.38671 8.54922,1.20545 39.82613,-0.50796 51.77032,-2.83608 z m -35.60452,-402.7469 c 3.23316,0 7.59274,0.4762 9.68798,1.05822 5.27002,1.46393 8.68225,-2.31325 8.68225,-9.61087 0,-9.0288 -2.44049,-10.41204 -18.37023,-10.41204 -15.92974,0 -18.37023,1.38324 -18.37023,10.41204 0,7.29762 3.41223,11.0748 8.68226,9.61087 2.09523,-0.58202 6.45481,-1.05822 9.68797,-1.05822 z"
         id="path3114"
         inkscape:connector-curvature="0"
         sodipodi:nodetypes="sssssscssssscccssssscsssssssssscssccssssssssssssss" />
      <path
         sodipodi:nodetypes="cssccsscsscsscccccccccscccccscccscsccscscscscccscccsccccsssssscsssccccscssscscscccssssssssss"
         style="fill:#ffffff;fill-opacity:1;stroke:none;marker-end:none"
         d="m 375.29308,409.78929 c 1.67674,-0.97558 2.79416,-2.49398 3.27377,-4.44856 0.23537,-0.95923 0.30852,-13.00665 0.2472,-40.71747 l -0.0871,-39.35516 -0.70307,-1.50988 c -0.88962,-1.91042 -1.72962,-2.81347 -3.27293,-3.51848 -1.15449,-0.5274 -2.49791,-0.55889 -23.85606,-0.55889 -21.40369,0 -22.69913,0.0305 -23.85609,0.56185 -1.51503,0.69579 -3.00595,2.22004 -3.73112,3.81448 -0.51954,1.14234 -0.55592,3.39723 -0.64224,39.80926 -0.0666,28.0526 0.004,39.09257 0.25833,40.40728 0.42143,2.17902 1.14815,3.65045 2.37038,4.79942 1.85151,1.7405 1.27026,1.70388 25.90659,1.63171 l 22.63266,-0.0663 1.45964,-0.84925 z m -25.63545,-5.7971 c -1.12834,-1.11685 -0.89669,-2.76978 0.49125,-3.505 0.89481,-0.47403 1.81272,-0.0687 2.26723,1.00135 0.46808,1.1019 0.10743,2.48631 -0.76863,2.95038 -0.83681,0.4433 -1.16514,0.36959 -1.98985,-0.44673 z m -20.48899,-9.62345 c -0.0804,-0.20925 -0.11111,-14.82078 -0.0676,-32.47006 l 0.0788,-32.08959 21.64007,-0.0776 21.64006,-0.0777 -0.0777,32.47005 -0.0778,32.47003 -21.49456,0.0778 c -17.03357,0.0616 -21.52495,-9e-4 -21.641,-0.30273 z m 28.24082,-16.33444 c 0.24973,-0.24718 0.36702,-1.6881 0.36702,-4.50859 0,-3.50073 0.0751,-4.17389 0.48378,-4.32908 0.26609,-0.101 2.23421,-0.18374 4.3736,-0.18374 2.61764,0 4.00989,-0.11885 4.25687,-0.36329 0.45076,-0.44617 0.51282,-11.95661 0.0682,-12.6542 -0.23055,-0.36175 -1.19352,-0.47402 -4.73593,-0.55211 l -4.44652,-0.098 0,-4.08445 c 0,-2.24646 -0.14256,-4.34797 -0.3166,-4.67003 -0.29712,-0.54946 -0.70013,-0.58556 -6.53829,-0.58556 -4.77307,0 -6.29949,0.0928 -6.55594,0.39871 -0.19646,0.2343 -0.36955,2.13793 -0.41977,4.61667 l -0.0855,4.21795 -4.34422,0.15137 c -2.46893,0.086 -4.48509,0.2913 -4.67055,0.47554 -0.21583,0.21443 -0.29828,2.46909 -0.24347,6.66011 l 0.0827,6.33592 4.28185,0.15137 c 2.35502,0.0833 4.45391,0.26158 4.66415,0.39629 0.2754,0.17639 0.38233,1.41133 0.38233,4.41484 0,2.29344 0.0918,4.26074 0.20391,4.37175 0.38721,0.38328 12.79526,0.23141 13.19219,-0.16146 z m 50.23063,5.87061 c 4.45465,-5.25255 7.25893,-10.5891 8.87457,-16.88825 3.03957,-11.85081 0.93903,-23.90522 -5.95069,-34.14911 -2.07076,-3.0789 -5.25147,-6.53989 -6.01024,-6.53989 -0.6311,0 -5.18205,5.36198 -5.18205,6.10553 0,0.2397 0.49213,0.90527 1.0936,1.47908 3.89849,3.71909 7.38497,10.39623 8.51953,16.31627 0.62087,3.23958 0.6283,9.56136 0.0132,12.48286 -1.28506,6.11828 -3.78924,11.10906 -7.93507,15.81432 -1.09924,1.24755 -1.99859,2.39945 -1.99859,2.55978 0,0.16034 1.04723,1.60399 2.3272,3.20815 1.78432,2.23625 2.4757,2.89505 2.96387,2.82419 0.36737,-0.0532 1.75619,-1.41242 3.2832,-3.21293 z m -10.49259,-8.76169 c 8.34297,-9.63993 9.53029,-22.39281 3.07941,-33.07567 -1.74567,-2.89088 -4.58957,-5.91456 -5.22745,-5.55789 -0.80206,0.4485 -4.19148,5.00218 -4.19148,5.63126 0,0.32817 0.62641,1.28632 1.39205,2.12922 1.60072,1.76227 3.59914,5.69082 4.08563,8.0317 0.4768,2.29428 0.41142,6.89411 -0.12786,9.00346 -0.67429,2.6367 -2.38075,5.80152 -4.30689,7.98757 -0.92924,1.05463 -1.62255,2.09032 -1.54068,2.30152 0.082,0.2112 1.01879,1.48543 2.08201,2.83163 1.34172,1.69883 2.1344,2.4492 2.59103,2.45277 0.426,0.003 1.18889,-0.60844 2.16439,-1.73557 z m -9.65267,-8.80685 c 4.93355,-5.43143 5.02089,-14.11843 0.19397,-19.30165 -0.68231,-0.73271 -1.45993,-1.3322 -1.72801,-1.3322 -0.60241,0 -4.0224,3.30357 -4.0224,3.88548 0,0.23265 0.47799,1.0675 1.06218,1.85523 1.40557,1.89528 2.06774,4.39944 1.68774,6.38271 -0.33876,1.76813 -1.20293,3.53859 -2.134,4.37209 -1.44525,1.29378 -1.40184,1.5412 0.63994,3.64586 1.04477,1.07694 2.14028,1.95806 2.43446,1.95806 0.29417,0 1.13392,-0.6595 1.86612,-1.46558 z"
         id="path3373"
         inkscape:connector-curvature="0" />
    </g>
  </g>
</svg>
