<?xml version="1.0" encoding="UTF-8" standalone="no"?>
<!-- Created with Inkscape (http://www.inkscape.org/) -->

<svg
   xmlns:dc="http://purl.org/dc/elements/1.1/"
   xmlns:cc="http://creativecommons.org/ns#"
   xmlns:rdf="http://www.w3.org/1999/02/22-rdf-syntax-ns#"
   xmlns:svg="http://www.w3.org/2000/svg"
   xmlns="http://www.w3.org/2000/svg"
   xmlns:sodipodi="http://sodipodi.sourceforge.net/DTD/sodipodi-0.dtd"
   xmlns:inkscape="http://www.inkscape.org/namespaces/inkscape"
   width="430"
   height="480"
   id="svg2"
   version="1.1"
   inkscape:version="0.48.4 r9939"
   sodipodi:docname="dibujo4.svg">
  <defs
     id="defs4" />
  <sodipodi:namedview
     id="base"
     pagecolor="#ffffff"
     bordercolor="#666666"
     borderopacity="1.0"
     inkscape:pageopacity="0.0"
     inkscape:pageshadow="2"
     inkscape:zoom="0.7"
     inkscape:cx="82.666081"
     inkscape:cy="268.49466"
     inkscape:document-units="px"
     inkscape:current-layer="layer1"
     showgrid="false"
     inkscape:object-paths="true"
     inkscape:snap-midpoints="true"
     inkscape:window-width="1360"
     inkscape:window-height="705"
     inkscape:window-x="-8"
     inkscape:window-y="-8"
     inkscape:window-maximized="1" />
  <metadata
     id="metadata7">
    <rdf:RDF>
      <cc:Work
         rdf:about="">
        <dc:format>image/svg+xml</dc:format>
        <dc:type
           rdf:resource="http://purl.org/dc/dcmitype/StillImage" />
        <dc:title />
      </cc:Work>
    </rdf:RDF>
  </metadata>
  <g
     inkscape:label="Capa 1"
     inkscape:groupmode="layer"
     id="layer1"
     transform="translate(0,-572.36218)">
    <path
       sodipodi:nodetypes="sssssscssssscccssssscsssssssssscssccssssssssssssss"
       inkscape:connector-curvature="0"
       id="path3114"
       d="m 193.89706,1035.5889 c -10.12637,-1.0587 -34.48337,-6.7354 -44.704,-10.4189 -5.72368,-2.0628 -17.41564,-7.4116 -25.98213,-11.8863 C 68.102219,984.49794 29.200959,930.92624 18.092249,868.52265 c -3.68764,-20.71543 -3.35727,-54.25528 0.72802,-73.90827 12.6976,-61.08408 48.68067,-110.36152 101.901701,-139.55051 l 13.65555,-7.48937 1.01563,-10.38 c 0.84574,-8.64351 1.65847,-10.93988 4.85821,-13.72672 3.41701,-2.97609 5.43001,-3.34673 18.17592,-3.34673 9.18247,0 15.21231,-0.66817 16.77924,-1.85929 1.90264,-1.44635 2.53623,-4.83251 2.85272,-15.24621 l 0.40683,-13.38691 38.21008,0 38.21008,0 0.40684,13.38691 c 0.31648,10.4137 0.95007,13.79986 2.85272,15.24621 1.56692,1.19112 7.59676,1.85929 16.77923,1.85929 12.89649,0 14.73291,0.34787 18.31931,3.47014 3.39171,2.9528 4.11601,4.9999 4.85821,13.73089 l 0.87225,10.26072 10.28733,5.64074 c 58.15693,31.88854 95.4031,84.52988 106.01463,149.83429 3.01436,18.55062 1.9256,54.76502 -2.19175,72.90199 -12.93586,56.98277 -46.14026,103.13018 -95.57414,132.82878 -35.09468,21.084 -81.68138,31.1843 -123.6138,26.8003 z m 58.38361,-14.5803 c 37.71822,-7.3519 69.30877,-24.45064 97.55098,-52.80046 37.34153,-37.48379 55.66773,-82.09794 55.68457,-135.56094 0.0148,-46.94978 -15.49939,-88.86077 -46.40833,-125.37045 -14.8848,-17.58193 -49.68797,-44.02009 -57.94802,-44.02009 -2.80659,0 -2.92011,1.05342 -2.92539,27.14569 -0.004,24.15844 -0.31645,27.66182 -2.83125,31.83606 -3.84608,6.38399 -12.60965,8.57442 -32.8015,8.19865 -32.49209,-0.60467 -80.24565,-0.89694 -95.72071,-0.009 -10.80512,0.20485 -25.12984,0.44302 -29.63535,-9.84836 -1.58944,-3.85018 -2.13335,-11.81635 -2.13335,-31.24558 0,-30.44224 0.6761,-29.54758 -15.22299,-20.14405 -47.605391,28.15624 -81.300501,78.31452 -90.013551,133.99341 -4.82506,30.83357 -0.9305,69.92825 9.76883,98.06231 20.44071,53.74905 65.612681,96.58107 120.451231,114.21171 12.14131,3.9034 19.60882,5.4531 40.41451,8.3867 8.54922,1.2055 39.82613,-0.508 51.77032,-2.8361 z M 216.67615,618.26166 c 3.23316,0 7.59274,0.4762 9.68798,1.05822 5.27002,1.46393 8.68225,-2.31325 8.68225,-9.61087 0,-9.0288 -2.44049,-10.41204 -18.37023,-10.41204 -15.92974,0 -18.37023,1.38324 -18.37023,10.41204 0,7.29762 3.41223,11.0748 8.68226,9.61087 2.09523,-0.58202 6.45481,-1.05822 9.68797,-1.05822 z"
       style="fill:#0b556a"
       inkscape:export-filename="/home/alvin/path5940.png"
       inkscape:export-xdpi="90"
       inkscape:export-ydpi="90" />
    <path
       inkscape:connector-curvature="0"
       id="path3373"
       d="m 225.86451,718.36072 c 1.67674,-0.97558 2.79416,-2.49398 3.27377,-4.44856 0.23537,-0.95923 0.30852,-13.00665 0.2472,-40.71747 l -0.0871,-39.35516 -0.70307,-1.50988 c -0.88962,-1.91042 -1.72962,-2.81347 -3.27293,-3.51848 -1.15449,-0.5274 -2.49791,-0.55889 -23.85606,-0.55889 -21.40369,0 -22.69913,0.0305 -23.85609,0.56185 -1.51503,0.69579 -3.00595,2.22004 -3.73112,3.81448 -0.51954,1.14234 -0.55592,3.39723 -0.64224,39.80926 -0.0666,28.0526 0.004,39.09257 0.25833,40.40728 0.42143,2.17902 1.14815,3.65045 2.37038,4.79942 1.85151,1.7405 1.27026,1.70388 25.90659,1.63171 l 22.63266,-0.0663 1.45964,-0.84925 z m -25.63545,-5.7971 c -1.12834,-1.11685 -0.89669,-2.76978 0.49125,-3.505 0.89481,-0.47403 1.81272,-0.0687 2.26723,1.00135 0.46808,1.1019 0.10743,2.48631 -0.76863,2.95038 -0.83681,0.4433 -1.16514,0.36959 -1.98985,-0.44673 z m -20.48899,-9.62345 c -0.0804,-0.20925 -0.11111,-14.82078 -0.0676,-32.47006 l 0.0788,-32.08959 21.64007,-0.0776 21.64006,-0.0777 -0.0777,32.47005 -0.0778,32.47003 -21.49456,0.0778 c -17.03357,0.0616 -21.52495,-9e-4 -21.641,-0.30273 z m 28.24082,-16.33444 c 0.24973,-0.24718 0.36702,-1.6881 0.36702,-4.50859 0,-3.50073 0.0751,-4.17389 0.48378,-4.32908 0.26609,-0.101 2.23421,-0.18374 4.3736,-0.18374 2.61764,0 4.00989,-0.11885 4.25687,-0.36329 0.45076,-0.44617 0.51282,-11.95661 0.0682,-12.6542 -0.23055,-0.36175 -1.19352,-0.47402 -4.73593,-0.55211 l -4.44652,-0.098 0,-4.08445 c 0,-2.24646 -0.14256,-4.34797 -0.3166,-4.67003 -0.29712,-0.54946 -0.70013,-0.58556 -6.53829,-0.58556 -4.77307,0 -6.29949,0.0928 -6.55594,0.39871 -0.19646,0.2343 -0.36955,2.13793 -0.41977,4.61667 l -0.0855,4.21795 -4.34422,0.15137 c -2.46893,0.086 -4.48509,0.2913 -4.67055,0.47554 -0.21583,0.21443 -0.29828,2.46909 -0.24347,6.66011 l 0.0827,6.33592 4.28185,0.15137 c 2.35502,0.0833 4.45391,0.26158 4.66415,0.39629 0.2754,0.17639 0.38233,1.41133 0.38233,4.41484 0,2.29344 0.0918,4.26074 0.20391,4.37175 0.38721,0.38328 12.79526,0.23141 13.19219,-0.16146 z m 50.23063,5.87061 c 4.45465,-5.25255 7.25893,-10.5891 8.87457,-16.88825 3.03957,-11.85081 0.93903,-23.90522 -5.95069,-34.14911 -2.07076,-3.0789 -5.25147,-6.53989 -6.01024,-6.53989 -0.6311,0 -5.18205,5.36198 -5.18205,6.10553 0,0.2397 0.49213,0.90527 1.0936,1.47908 3.89849,3.71909 7.38497,10.39623 8.51953,16.31627 0.62087,3.23958 0.6283,9.56136 0.0132,12.48286 -1.28506,6.11828 -3.78924,11.10906 -7.93507,15.81432 -1.09924,1.24755 -1.99859,2.39945 -1.99859,2.55978 0,0.16034 1.04723,1.60399 2.3272,3.20815 1.78432,2.23625 2.4757,2.89505 2.96387,2.82419 0.36737,-0.0532 1.75619,-1.41242 3.2832,-3.21293 z m -10.49259,-8.76169 c 8.34297,-9.63993 9.53029,-22.39281 3.07941,-33.07567 -1.74567,-2.89088 -4.58957,-5.91456 -5.22745,-5.55789 -0.80206,0.4485 -4.19148,5.00218 -4.19148,5.63126 0,0.32817 0.62641,1.28632 1.39205,2.12922 1.60072,1.76227 3.59914,5.69082 4.08563,8.0317 0.4768,2.29428 0.41142,6.89411 -0.12786,9.00346 -0.67429,2.6367 -2.38075,5.80152 -4.30689,7.98757 -0.92924,1.05463 -1.62255,2.09032 -1.54068,2.30152 0.082,0.2112 1.01879,1.48543 2.08201,2.83163 1.34172,1.69883 2.1344,2.4492 2.59103,2.45277 0.426,0.003 1.18889,-0.60844 2.16439,-1.73557 z m -9.65267,-8.80685 c 4.93355,-5.43143 5.02089,-14.11843 0.19397,-19.30165 -0.68231,-0.73271 -1.45993,-1.3322 -1.72801,-1.3322 -0.60241,0 -4.0224,3.30357 -4.0224,3.88548 0,0.23265 0.47799,1.0675 1.06218,1.85523 1.40557,1.89528 2.06774,4.39944 1.68774,6.38271 -0.33876,1.76813 -1.20293,3.53859 -2.134,4.37209 -1.44525,1.29378 -1.40184,1.5412 0.63994,3.64586 1.04477,1.07694 2.14028,1.95806 2.43446,1.95806 0.29417,0 1.13392,-0.6595 1.86612,-1.46558 z"
       style="fill:#ffffff;fill-opacity:1;stroke:none;marker-end:none"
       sodipodi:nodetypes="cssccsscsscsscccccccccscccccscccscsccscscscscccscccsccccsssssscsssccccscssscscscccssssssssss"
       inkscape:export-filename="/home/alvin/path5940.png"
       inkscape:export-xdpi="90"
       inkscape:export-ydpi="90" />
    <path
       inkscape:connector-curvature="0"
       id="path6030"
       d="m 186.12904,966.05594 c -12.81928,-1.46269 -28.97202,-4.03685 -36.58409,-5.83018 -11.53098,-2.71658 -25.27976,-7.51193 -26.55297,-9.26125 -0.54089,-0.74315 -1.01968,-0.99859 -1.06398,-0.56766 -0.0443,0.43094 -0.33087,-0.34039 -0.63683,-1.71407 -0.69631,-3.12615 -0.089,-15.1174 0.69745,-13.77087 0.31843,0.54521 0.82757,-1.94021 1.13144,-5.52315 1.08692,-12.81644 5.55057,-31.04848 9.33072,-38.1119 2.54712,-4.75946 7.12013,-8.05655 15.5667,-11.22344 9.92809,-3.72235 18.00204,-7.80344 22.28944,-11.26651 l 3.52373,-2.84622 2.89515,2.43465 c 5.73774,4.82508 11.18262,6.96282 17.66417,6.9352 6.37023,-0.0271 10.46836,-1.48971 17.44143,-6.22467 l 3.68762,-2.50402 4.27233,3.00171 c 2.3498,1.65095 9.5446,5.25338 15.98845,8.00541 6.44386,2.75203 13.19453,5.91818 15.00149,7.0359 7.42173,4.59078 12.81785,21.62053 15.691,49.51967 1.80088,17.48706 2.14546,16.80144 -10.71867,21.32681 -11.18702,3.93539 -21.51481,6.33773 -37.12251,8.63507 -11.12884,1.63809 -26.92676,2.58567 -32.50207,1.94952 z m 89.71786,-27.20068 c -0.15582,-0.54747 -1.01712,-6.64601 -1.91399,-13.55233 -2.06863,-15.92947 -4.83198,-27.23999 -8.76169,-35.86199 -3.59561,-7.88898 -7.00576,-11.39858 -14.53188,-14.95569 -2.78741,-1.31743 -5.07754,-2.62652 -5.08917,-2.90909 -0.0117,-0.28258 1.31442,-1.44904 2.94679,-2.59214 l 2.96795,-2.07837 2.73602,2.01701 c 7.08051,5.21979 14.34269,6.04853 21.37557,2.4393 2.29699,-1.17879 4.76523,-2.59876 5.48499,-3.15548 1.07715,-0.83316 1.86862,-0.62008 4.47412,1.20448 1.74101,1.21918 6.46271,3.58828 10.49267,5.26466 13.45657,5.59764 14.64188,6.4408 17.20593,12.23917 2.8009,6.33398 5.16464,15.87938 5.90737,23.85559 0.31182,3.34848 0.82549,5.5473 1.16152,4.97195 0.78713,-1.34772 1.34142,8.88832 0.65669,12.12717 -0.29041,1.37368 -0.56426,2.22209 -0.60855,1.88534 -0.0443,-0.33673 -1.84358,0.12312 -3.99841,1.02189 -5.60397,2.3374 -18.07533,5.56815 -27.19273,7.04437 -12.87253,2.08423 -13.01125,2.09501 -13.3132,1.03416 z m -87.00138,-73.2563 c -9.63254,-3.81673 -17.68787,-14.15702 -21.85868,-28.05907 -0.89293,-2.9763 -2.33877,-7.47197 -3.21298,-9.99038 -1.60016,-4.60973 -2.1455,-10.84072 -1.05077,-12.00603 0.32454,-0.34546 0.59007,-6.49578 0.59007,-13.66738 0,-12.8895 0.0267,-13.09034 2.32687,-17.48446 2.74809,-5.24986 8.73262,-11.26868 14.49175,-14.57477 5.48904,-3.15106 11.93484,-3.21065 21.56248,-0.19935 14.63356,4.57703 20.99027,8.92797 24.66936,16.88529 2.34528,5.0725 2.4217,6.3317 1.73309,28.55874 -0.28881,9.32245 -0.62938,11.80789 -1.99703,14.57397 -0.90687,1.83415 -2.07262,5.01858 -2.59056,7.07651 -2.65327,10.54224 -12.14573,23.52728 -20.01876,27.38432 -4.78982,2.34655 -10.92598,2.97614 -14.64484,1.50261 z m 72.02521,-1.13077 c -6.16061,-3.4221 -10.95104,-10.27874 -14.2504,-20.39684 -3.22127,-9.87864 -3.8119,-12.94087 -2.90381,-15.05523 0.47119,-1.09711 0.64982,-5.35781 0.42804,-10.20976 -0.33685,-7.36924 -0.17992,-8.77868 1.36447,-12.25542 3.11763,-7.01837 11.21135,-13.1352 17.38037,-13.1352 7.80286,0 20.84968,5.36871 24.88476,10.23997 3.82678,4.6198 5.14477,11.99457 3.52625,19.73115 -0.33527,1.60262 -0.40123,4.03777 -0.14655,5.41145 0.59322,3.19985 -0.099,6.68346 -3.00811,15.13793 -4.79961,13.94874 -12.6937,21.96395 -21.54578,21.87637 -1.85294,-0.0183 -4.4311,-0.62332 -5.72924,-1.34442 z"
       style="fill:#0b556a;fill-opacity:1"
       inkscape:export-filename="/home/alvin/path5940.png"
       inkscape:export-xdpi="90"
       inkscape:export-ydpi="90" />
  </g>
</svg>
