<?xml version="1.0" standalone="no"?>
<!DOCTYPE svg PUBLIC "-//W3C//DTD SVG 20010904//EN"
 "http://www.w3.org/TR/2001/REC-SVG-20010904/DTD/svg10.dtd">
<svg version="1.0" xmlns="http://www.w3.org/2000/svg"
 width="60.000000pt" height="93.000000pt" viewBox="0 0 60.000000 93.000000"
 preserveAspectRatio="xMidYMid meet">
<metadata>
Created by potrace 1.12, written by Peter Selinger 2001-2015
</metadata>
<g transform="translate(0.000000,93.000000) scale(0.100000,-0.100000)"
fill="#000000" stroke="none">
<path d="M80 500 l0 -320 215 0 215 0 0 320 0 320 -215 0 -215 0 0 -320z m280
116 l0 -45 48 -3 47 -3 0 -65 0 -65 -41 -3 c-41 -3 -42 -4 -49 -48 l-6 -44
-70 0 -69 0 0 45 0 45 -45 0 -46 0 3 68 3 67 43 3 c41 3 42 4 42 41 0 21 3 41
7 44 3 4 35 7 70 7 l63 0 0 -44z"/>
</g>
</svg>
