<?xml version="1.0" encoding="UTF-8" standalone="no"?>
<!-- Created with Inkscape (http://www.inkscape.org/) -->

<svg
   xmlns:dc="http://purl.org/dc/elements/1.1/"
   xmlns:cc="http://creativecommons.org/ns#"
   xmlns:rdf="http://www.w3.org/1999/02/22-rdf-syntax-ns#"
   xmlns:svg="http://www.w3.org/2000/svg"
   xmlns="http://www.w3.org/2000/svg"
   xmlns:sodipodi="http://sodipodi.sourceforge.net/DTD/sodipodi-0.dtd"
   xmlns:inkscape="http://www.inkscape.org/namespaces/inkscape"
   width="300"
   height="300"
   id="svg2"
   version="1.1"
   inkscape:version="0.48.4 r9939"
   sodipodi:docname="banners2.svg">
  <defs
     id="defs4" />
  <sodipodi:namedview
     id="base"
     pagecolor="#ffffff"
     bordercolor="#666666"
     borderopacity="1.0"
     inkscape:pageopacity="0.0"
     inkscape:pageshadow="2"
     inkscape:zoom="0.7"
     inkscape:cx="149.21874"
     inkscape:cy="236.34161"
     inkscape:document-units="px"
     inkscape:current-layer="layer2"
     showgrid="false"
     inkscape:object-paths="true"
     inkscape:snap-midpoints="true"
     inkscape:window-width="1360"
     inkscape:window-height="705"
     inkscape:window-x="-8"
     inkscape:window-y="-8"
     inkscape:window-maximized="1" />
  <metadata
     id="metadata7">
    <rdf:RDF>
      <cc:Work
         rdf:about="">
        <dc:format>image/svg+xml</dc:format>
        <dc:type
           rdf:resource="http://purl.org/dc/dcmitype/StillImage" />
        <dc:title></dc:title>
      </cc:Work>
    </rdf:RDF>
  </metadata>
  <g
     inkscape:groupmode="layer"
     id="layer2"
     inkscape:label="Capa"
     transform="translate(0,-752.36218)" />
  <g
     inkscape:label="Capa 1"
     inkscape:groupmode="layer"
     id="layer1"
     transform="translate(0,-752.36218)">
    <path
       inkscape:connector-curvature="0"
       id="path3373-7"
       d="m 156.52427,981.39697 c 3.70579,-1.90996 6.17536,-4.88261 7.23532,-8.70918 0.52022,-1.87792 0.68186,-25.46385 0.54636,-79.71489 l -0.19254,-77.04778 -1.55384,-2.95596 c -1.96611,-3.74015 -3.82261,-5.50807 -7.23345,-6.88836 -2.5515,-1.03252 -5.52057,-1.09415 -52.72383,-1.09415 -47.303925,0 -50.166935,0.0597 -52.723925,1.09997 -3.34834,1.36223 -6.64338,4.34626 -8.24605,7.46784 -1.14823,2.23641 -1.22864,6.65096 -1.41942,77.93679 -0.14699,54.92014 0.0103,76.5337 0.57094,79.10755 0.93137,4.26604 2.53751,7.14667 5.23875,9.39612 4.09198,3.40747 2.80734,3.33578 57.255645,3.19451 l 50.02005,-0.12985 z"
       style="fill:#0b556a;fill-opacity:1;stroke:none;marker-end:none"
       sodipodi:nodetypes="cssccsscsscsscc"
       inkscape:export-filename="/home/alvin/path59390.png"
       inkscape:export-xdpi="90"
       inkscape:export-ydpi="90" />
    <path
       inkscape:connector-curvature="0"
       id="path3373"
       d="m 163.83565,1016.6868 c 4.33926,-2.4887 7.23105,-6.3622 8.47224,-11.3483 0.60911,-2.447 0.79842,-33.17994 0.63973,-103.87017 l -0.22541,-100.39491 -1.81948,-3.8517 c -2.30226,-4.87347 -4.47611,-7.17715 -8.47007,-8.97563 -2.98772,-1.3454 -6.46438,-1.42573 -61.73745,-1.42573 -55.390925,0 -58.743415,0.0778 -61.737535,1.43328 -3.92077,1.77496 -7.779136,5.66332 -9.655816,9.73073 -1.34452,2.9141 -1.43867,8.66632 -1.66206,101.55331 -0.17236,71.56211 0.0104,99.72505 0.66853,103.07892 1.09063,5.5586 2.97132,9.3122 6.134346,12.2433 4.79155,4.44 3.28732,4.3466 67.044045,4.1624 l 58.5714,-0.1691 3.77743,-2.1664 z m -66.342365,-14.7884 c -2.92005,-2.84912 -2.32056,-7.06574 1.27132,-8.94128 2.315685,-1.20925 4.691155,-0.17525 5.867385,2.55444 1.21136,2.81095 0.27802,6.34254 -1.98914,7.52644 -2.1656,1.1308 -3.015285,0.9428 -5.149565,-1.1396 z m -53.02376,-24.54943 c -0.20807,-0.5338 -0.28755,-37.80777 -0.17495,-82.83104 l 0.20393,-81.86045 56.002655,-0.19796 56.00264,-0.19821 -0.20108,82.83101 -0.20134,82.83096 -55.62609,0.19846 c -44.081435,0.15715 -55.704745,-0.002 -56.005065,-0.77226 z m 73.084835,-41.66911 c 0.64628,-0.63056 0.94982,-4.30634 0.94982,-11.5014 0,-8.93036 0.19435,-10.64759 1.25198,-11.04347 0.68862,-0.25766 5.78194,-0.46872 11.3185,-0.46872 6.77423,0 10.37726,-0.30319 11.01642,-0.92676 1.16653,-1.13818 1.32714,-30.50128 0.1765,-32.28083 -0.59665,-0.92282 -3.08873,-1.20922 -12.25619,-1.40843 l -11.50721,-0.25 0,-10.41942 c 0,-5.73071 -0.36894,-11.09166 -0.81934,-11.91323 -0.76892,-1.40167 -1.81187,-1.49376 -16.92054,-1.49376 -12.352295,0 -16.302535,0.23673 -16.966205,1.0171 -0.50842,0.5977 -0.95637,5.45386 -1.08633,11.77712 l -0.22127,10.75998 -11.24247,0.38614 c -6.38938,0.21939 -11.60703,0.74311 -12.08699,1.2131 -0.55855,0.54701 -0.77192,6.29864 -0.63008,16.98993 l 0.21402,16.16291 11.08107,0.38615 c 6.09459,0.21249 11.52634,0.66729 12.07042,1.01093 0.71271,0.44997 0.98944,3.6003 0.98944,11.26224 0,5.85056 0.23757,10.86914 0.5277,11.15233 1.00207,0.97774 33.113045,0.59032 34.140265,-0.41189 z m 129.9926,14.97591 c 11.52826,-13.39924 18.7855,-27.01277 22.96663,-43.08188 7.86615,-30.23139 2.43013,-60.98215 -15.39988,-87.11429 -5.35895,-7.85427 -13.59035,-16.68324 -15.55399,-16.68324 -1.63323,0 -13.4107,13.67839 -13.4107,15.57519 0,0.61147 1.27359,2.30934 2.83014,3.77313 10.08896,9.48739 19.11168,26.52075 22.04782,41.62276 1.60676,8.26416 1.62599,24.391 0.0342,31.84374 -3.32562,15.60772 -9.80623,28.33918 -20.53528,40.34229 -2.84474,3.1825 -5.17218,6.12099 -5.17218,6.52999 0,0.40903 2.71014,4.09178 6.02259,8.18398 4.61767,5.70467 6.4069,7.38527 7.67024,7.2045 0.95073,-0.13571 4.54488,-3.60308 8.49665,-8.19617 z m -27.15393,-22.35105 c 21.5909,-24.59144 24.66358,-57.124 7.96925,-84.37595 -4.51764,-7.37462 -11.87742,-15.08802 -13.52819,-14.17816 -2.07567,1.14412 -10.8472,12.76055 -10.8472,14.36533 0,0.83716 1.6211,3.2814 3.60251,5.43164 4.14253,4.49554 9.31427,14.51726 10.57326,20.48884 1.23392,5.8527 1.06472,17.58686 -0.33089,22.9678 -1.745,6.72622 -6.16118,14.79967 -11.14586,20.37627 -2.4048,2.69036 -4.19903,5.3324 -3.98715,5.87117 0.21221,0.53878 2.63654,3.78933 5.38806,7.22349 3.47226,4.33371 5.52365,6.2479 6.70537,6.25701 1.10245,0.008 3.07674,-1.55213 5.60125,-4.42744 z m -24.98029,-22.46625 c 12.76761,-13.85556 12.99364,-36.01608 0.50198,-49.23846 -1.76576,-1.86914 -3.77818,-3.39844 -4.47194,-3.39844 -1.55899,0 -10.40963,8.4274 -10.40963,9.91185 0,0.59349 1.23699,2.72319 2.74883,4.73269 3.63749,4.83485 5.35113,11.22296 4.36773,16.28228 -0.87669,4.51049 -3.11309,9.02693 -5.52262,11.15319 -3.74018,3.30042 -3.62784,3.93159 1.65612,9.30057 2.70377,2.74728 5.53886,4.99501 6.30017,4.99501 0.76129,0 2.93449,-1.68238 4.82936,-3.73869 z"
       style="fill:#ffffff;fill-opacity:1;stroke:#0b556a;stroke-width:3.85408473;stroke-miterlimit:4;stroke-opacity:1;stroke-dasharray:none;marker-end:none"
       sodipodi:nodetypes="cssccsscsscsscccccccccscccccscccscsccscscscscccscccsccccsssssscsssccccscssscscscccssssssssss"
       inkscape:export-filename="/home/alvin/path59390.png"
       inkscape:export-xdpi="90"
       inkscape:export-ydpi="90" />
  </g>
</svg>
