<?xml version="1.0" encoding="UTF-8" standalone="no"?>
<!-- Created with Inkscape (http://www.inkscape.org/) -->

<svg
   xmlns:dc="http://purl.org/dc/elements/1.1/"
   xmlns:cc="http://creativecommons.org/ns#"
   xmlns:rdf="http://www.w3.org/1999/02/22-rdf-syntax-ns#"
   xmlns:svg="http://www.w3.org/2000/svg"
   xmlns="http://www.w3.org/2000/svg"
   xmlns:sodipodi="http://sodipodi.sourceforge.net/DTD/sodipodi-0.dtd"
   xmlns:inkscape="http://www.inkscape.org/namespaces/inkscape"
   width="640"
   height="480"
   id="svg2"
   version="1.1"
   inkscape:version="0.48.4 r9939"
   sodipodi:docname="nova.svg">
  <defs
     id="defs4" />
  <sodipodi:namedview
     id="base"
     pagecolor="#ffffff"
     bordercolor="#666666"
     borderopacity="1.0"
     inkscape:pageopacity="0.0"
     inkscape:pageshadow="2"
     inkscape:zoom="0.7"
     inkscape:cx="144.83621"
     inkscape:cy="176.00202"
     inkscape:document-units="px"
     inkscape:current-layer="layer1"
     showgrid="false"
     inkscape:window-width="1366"
     inkscape:window-height="705"
     inkscape:window-x="-8"
     inkscape:window-y="-8"
     inkscape:window-maximized="1" />
  <metadata
     id="metadata7">
    <rdf:RDF>
      <cc:Work
         rdf:about="">
        <dc:format>image/svg+xml</dc:format>
        <dc:type
           rdf:resource="http://purl.org/dc/dcmitype/StillImage" />
        <dc:title></dc:title>
      </cc:Work>
    </rdf:RDF>
  </metadata>
  <g
     inkscape:label="Capa 1"
     inkscape:groupmode="layer"
     id="layer1"
     transform="translate(0,-572.36218)">
    <path
       style="fill:#ffffff;fill-rule:nonzero"
       d="m 212.14344,1002.2905 c 0,-17.9327 1.87919,-18.73545 5.10215,-21.87043 2.02048,-1.96534 2.24502,-7.34961 2.24502,-9.34604 0,-4.22759 -100.9952,-294.7731 -106.74609,-307.08989 -2.12793,-4.55738 -4.80856,-12.81367 -9.49783,-16.95199 l -10.628899,-9.38009 0.526262,-17.15572 0.526271,-19.29855 95.054006,-0.51134 91.83974,-0.51132 0.35715,22.4889 c 0.33306,20.97235 -0.81009,16.46434 -5.34316,18.68437 -10.3076,5.04788 -8.40526,11.73733 13.43621,73.90257 11.12353,31.65989 23.59523,65.62668 24.6593,66.75156 1.33942,1.41599 4.80805,-5.44603 6.45174,-7.83726 1.30581,-1.8997 10.89162,-28.18415 21.73836,-59.28291 21.31737,-61.1193 23.05907,-68.75234 12.55609,-73.89591 -4.52102,-2.21405 -2.60607,1.74807 -5.33333,-19.03671 l -0.35714,-21.41747 92.55396,0.15418 95.05402,0.51134 0.52252,18.96243 -0.54892,16.81961 -9.35831,9.57968 -9.00108,11.36541 -52.70386,153.76601 c -28.56576,83.34195 -55.00774,154.55622 -55.64096,157.26803 -0.85893,3.67836 -0.64859,8.12785 2.9268,12.27436 4.56592,5.29535 6.8004,3.28899 5.3422,21.23198 l -1.59306,19.6023 -100.81958,0.1529 -103.31958,0.5099 z"
       id="path2998-1"
       inkscape:connector-curvature="0"
       sodipodi:nodetypes="ssssscccccsssssssscccccccsssscccs" />
    <g
       id="g2996"
       style="fill-rule:nonzero"
       transform="matrix(1.8613602,0,0,2.001173,-316.28502,8.0962037)">
      <path
         style="fill:#7cc6dd;fill-rule:nonzero"
         d="m 303.23425,490.42179 c -0.31627,-0.51173 1.42486,-4.02003 2.55963,-5.61368 3.1867,-4.47531 1.65831,-7.60778 -2.58827,-18.6816 -1.96904,-5.13468 -13.64085,-37.79292 -27.68339,-75.19292 -14.04255,-37.4 -27.20851,-68.10614 -27.94817,-69.5454 -2.43308,-4.64363 -6.60645,-6.0415 -9.1455,-10.58515 2.77768,1.44047 4.55297,-2.15043 26.71429,-1.91598 12.05341,0.12752 29.15104,-0.99494 29.26364,1.88963 0.13351,3.42048 -1.3961,10.08703 -0.65627,14.71368 16.61903,26.54414 24.17936,84.09903 45.95104,107.30036 13.03774,-35.33896 36.75277,-59.10334 46.21521,-104.78855 1.44003,-6.28019 -3.5824,-9.19947 -3.54926,-12.98342 0.42954,-0.42955 12.002,-4.70882 24.50188,-5.80444 1.84749,-0.16193 4.82875,-0.29799 6.62668,-0.29588 15.18117,0.0178 22.6606,2.19443 23.5015,2.72931 0.67743,4.28281 -0.70371,2.66348 -3.14777,7.34935 -1.18953,2.32221 -18.0342,36.01506 -33.94055,78.36506 -31.05237,82.67563 -33.72267,82.16989 -29.3913,88.25275 1.23842,1.73919 4.84863,6.08315 4.53064,6.59767 -0.77141,1.24817 -58.54256,2.67175 -59.31403,1.42357 z"
         id="path3008"
         inkscape:connector-curvature="0"
         sodipodi:nodetypes="csssccssccccssccssscc" />
      <path
         style="fill:#18225d;fill-rule:nonzero"
         d="m 282.99998,498.0969 c 0,-9.08334 0.24533,-10.57536 2,-12.16331 1.1,-0.99549 2,-2.63735 2,-3.64859 0,-2.14138 -54.98454,-149.30982 -58.11549,-155.54857 -1.1585,-2.30843 -4.09788,-6.00959 -6.53195,-8.2248 l -4.42559,-4.02764 0.28651,-9.7752 0.28652,-9.7752 51.75,-0.259 51.75,-0.259 0,10.84848 c 0,10.62435 -0.0521,10.87221 -2.52008,11.99671 -5.61173,2.55688 -5.3538,3.95533 6.53729,35.44356 6.05596,16.03651 11.48482,29.62349 12.06413,30.19327 0.72922,0.71723 1.451,0.49768 2.34587,-0.71354 0.71092,-0.96224 6.12414,-14.63776 12.02939,-30.39005 11.60576,-30.95843 11.77624,-31.93033 6.05813,-34.53567 -2.46136,-1.12147 -2.51473,-1.37604 -2.51473,-11.99428 l 0,-10.84848 51.75,0.259 51.75,0.259 0.28446,9.60495 0.28446,9.60495 -5.28934,5.39505 -5.28934,5.39505 -28.69343,76.61996 c -15.78139,42.14097 -28.9755,77.74381 -29.32025,79.11741 -0.46763,1.86318 0.0358,3.21245 1.98232,5.31276 2.4858,2.68222 2.59571,3.26758 2.32513,12.38259 l -0.28401,9.56728 -56.25,0.25833 -56.25,0.25832 z m 108.8,6.13669 c 0.69255,-0.69255 1.2,-4.01 1.2,-7.84501 0,-5.37502 -0.38224,-6.99094 -2,-8.45499 -1.33544,-1.20856 -2,-3.07997 -2,-5.63203 0,-2.56085 9.41494,-28.94952 28.53163,-79.96986 15.6924,-41.88129 29.02852,-77.07624 29.63583,-78.211 0.6073,-1.13476 3.08867,-4.18477 5.51414,-6.7778 l 4.40995,-4.71459 -0.29578,-7.34736 -0.29577,-7.34736 -48.5,0 -48.5,0 -0.29312,7.80851 c -0.28435,7.57496 -0.2021,7.89354 2.75,10.65121 2.27465,2.12484 3.04312,3.73045 3.04312,6.35816 0,3.53213 -24.64743,70.68212 -25.9439,70.68212 -1.2298,0 -26.06825,-67.45987 -26.06214,-70.78333 0.004,-2.41429 0.93244,-4.20973 3.50604,-6.78334 3.25532,-3.25532 3.5,-3.93809 3.5,-9.76666 0,-3.54074 -0.52199,-6.78866 -1.2,-7.46667 -1.72815,-1.72815 -94.87185,-1.72815 -96.6,0 -0.67894,0.67894 -1.2,3.93098 -1.2,7.48941 0,6.09817 0.14444,6.44938 4.75,11.55 2.6125,2.89333 5.52131,7.06059 6.46403,9.26059 5.39897,12.59943 57.78597,154.04225 57.78597,156.01981 0,1.30743 -1.125,3.59104 -2.5,5.07469 -2.10361,2.26983 -2.5,3.67329 -2.5,8.85152 0,3.4531 0.52666,6.68064 1.2,7.35398 0.90233,0.90233 14,1.2 52.8,1.2 38.8,0 51.89767,-0.29767 52.8,-1.2 z M 298.79432,493.8946 c -0.29644,-0.29644 0.33328,-2.20894 1.39939,-4.25 1.3565,-2.59703 1.81499,-5.06184 1.52735,-8.21101 -0.23979,-2.62541 -12.61257,-36.99293 -29.70112,-82.5 -21.93999,-58.42652 -30.25998,-79.44008 -33.15503,-83.73869 -2.12571,-3.15628 -3.86493,-5.96878 -3.86493,-6.25 0,-0.28122 5.3449,-0.19881 11.87755,-0.19881 8.2858,0 12.90803,0.13393 12.90803,0.13393 0.44623,0.13431 70.78874,185.14976 70.7119,185.22056 0,0 -30.69972,0.79744 -31.70314,-0.20598 z m 48.57135,-0.0685 c 0,0 10.34703,-29.80695 35,-91.89253 19.87387,-50.05 36.98797,-92.91964 36.98797,-92.91964 0.0548,0.18182 4.25071,-0.58036 12.70536,-0.58036 6.56754,0 11.94098,0.27274 11.94098,0.6061 0,0.33335 -1.35948,2.32257 -3.02106,4.42049 -4.07971,5.15106 -3.06275,2.59769 -35.03824,87.97341 -16.9108,45.15245 -28.45974,77.39261 -28.73198,80.20853 -0.34226,3.54022 0.051,5.56651 1.58498,8.16639 1.1221,1.90182 1.77756,3.72048 1.45658,4.04147 -0.85383,0.85383 -32.88459,-0.0239 -32.88459,-0.0239 z M 305.2313,394.69611 c -18.18069,-46.60562 -32.57837,-86.3431 -32.49526,-85.85714 0.0468,0.27343 34.26394,-0.74339 34.26394,0.0502 0,0.25058 -1.125,2.11337 -2.5,4.13955 -1.95185,2.87621 -2.5,4.94851 -2.5,9.45136 0,4.99523 1.98546,11.03498 14.82928,45.11046 8.1561,21.63867 16.11486,43.07241 17.68613,47.63052 2.08737,6.0553 3.27479,8.20699 4.40856,7.98865 1.9281,-0.37132 5.76034,-9.64578 24.03624,-58.17049 13.53238,-35.93007 14.23965,-38.16581 13.83657,-43.73843 -0.28667,-3.96307 -1.13565,-6.83429 -2.61079,-8.82952 -1.2023,-1.62619 -2.18599,-3.19993 -2.18599,-3.4972 0,-0.29727 7.875,-0.54049 17.5,-0.54049 9.625,0 17.45979,0.73929 17.50986,0.75 -0.0237,0.38583 -67.37131,170.25 -68.02802,170.25 -0.38209,0 -15.56982,-38.13187 -33.75052,-84.73747 z"
         id="path2998"
         inkscape:connector-curvature="0"
         sodipodi:nodetypes="ssssscccccsssssssscccccccsssscccsssssssscccccsssscssssssssssssssssssssccscssssssssccssssssssssssscss" />
    </g>
    <text
       xml:space="preserve"
       style="font-size:77.2000351px;font-style:normal;font-weight:normal;line-height:125%;letter-spacing:0px;word-spacing:0px;fill:#18225d;fill-opacity:1;stroke:none;font-family:Sans"
       x="458.9299"
       y="988.11774"
       id="text3014"
       sodipodi:linespacing="125%"
       transform="scale(0.96443483,1.0368767)"><tspan
         sodipodi:role="line"
         id="tspan3016"
         x="458.9299"
         y="988.11774"
         style="font-size:23.16001129px;font-weight:bold;text-align:center;text-anchor:middle;fill:#18225d;fill-opacity:1;-inkscape-font-specification:Sans Bold">TM</tspan></text>
  </g>
</svg>
