<?xml version="1.0" encoding="UTF-8" standalone="no"?>
<!-- Created with Inkscape (http://www.inkscape.org/) -->

<svg
   xmlns:dc="http://purl.org/dc/elements/1.1/"
   xmlns:cc="http://creativecommons.org/ns#"
   xmlns:rdf="http://www.w3.org/1999/02/22-rdf-syntax-ns#"
   xmlns:svg="http://www.w3.org/2000/svg"
   xmlns="http://www.w3.org/2000/svg"
   xmlns:sodipodi="http://sodipodi.sourceforge.net/DTD/sodipodi-0.dtd"
   xmlns:inkscape="http://www.inkscape.org/namespaces/inkscape"
   width="240"
   height="260"
   id="svg2"
   version="1.1"
   inkscape:version="0.48.4 r9939"
   sodipodi:docname="dibujo5.svg">
  <defs
     id="defs4" />
  <sodipodi:namedview
     id="base"
     pagecolor="#ffffff"
     bordercolor="#666666"
     borderopacity="1.0"
     inkscape:pageopacity="0.0"
     inkscape:pageshadow="2"
     inkscape:zoom="0.7"
     inkscape:cx="78.941164"
     inkscape:cy="202.64201"
     inkscape:document-units="px"
     inkscape:current-layer="layer1"
     showgrid="false"
     inkscape:object-paths="true"
     inkscape:snap-midpoints="true"
     inkscape:window-width="1360"
     inkscape:window-height="705"
     inkscape:window-x="-8"
     inkscape:window-y="-8"
     inkscape:window-maximized="1" />
  <metadata
     id="metadata7">
    <rdf:RDF>
      <cc:Work
         rdf:about="">
        <dc:format>image/svg+xml</dc:format>
        <dc:type
           rdf:resource="http://purl.org/dc/dcmitype/StillImage" />
        <dc:title></dc:title>
      </cc:Work>
    </rdf:RDF>
  </metadata>
  <g
     inkscape:label="Capa 1"
     inkscape:groupmode="layer"
     id="layer1"
     transform="translate(0,-792.36218)">
    <path
       inkscape:connector-curvature="0"
       id="path3373"
       d="m 227.57879,722.075 c 1.67674,-0.97558 2.79416,-2.49398 3.27377,-4.44856 0.23537,-0.95923 0.30852,-13.00665 0.2472,-40.71747 l -0.0871,-39.35516 -0.70307,-1.50988 c -0.88962,-1.91042 -1.72962,-2.81347 -3.27293,-3.51848 -1.15449,-0.5274 -2.49791,-0.55889 -23.85606,-0.55889 -21.40369,0 -22.69913,0.0305 -23.85609,0.56185 -1.51503,0.69579 -3.00595,2.22004 -3.73112,3.81448 -0.51954,1.14234 -0.55592,3.39723 -0.64224,39.80926 -0.0666,28.0526 0.004,39.09257 0.25833,40.40728 0.42143,2.17902 1.14815,3.65045 2.37038,4.79942 1.85151,1.7405 1.27026,1.70388 25.90659,1.63171 l 22.63266,-0.0663 1.45964,-0.84925 z m -25.63545,-5.7971 c -1.12834,-1.11685 -0.89669,-2.76978 0.49125,-3.505 0.89481,-0.47403 1.81272,-0.0687 2.26723,1.00135 0.46808,1.1019 0.10743,2.48631 -0.76863,2.95038 -0.83681,0.4433 -1.16514,0.36959 -1.98985,-0.44673 z m -20.48899,-9.62345 c -0.0804,-0.20925 -0.11111,-14.82078 -0.0676,-32.47006 l 0.0788,-32.08959 21.64007,-0.0776 21.64006,-0.0777 -0.0777,32.47005 -0.0778,32.47003 -21.49456,0.0778 c -17.03357,0.0616 -21.52495,-9e-4 -21.641,-0.30273 z m 28.24082,-16.33444 c 0.24973,-0.24718 0.36702,-1.6881 0.36702,-4.50859 0,-3.50073 0.0751,-4.17389 0.48378,-4.32908 0.26609,-0.101 2.23421,-0.18374 4.3736,-0.18374 2.61764,0 4.00989,-0.11885 4.25687,-0.36329 0.45076,-0.44617 0.51282,-11.95661 0.0682,-12.6542 -0.23055,-0.36175 -1.19352,-0.47402 -4.73593,-0.55211 l -4.44652,-0.098 0,-4.08445 c 0,-2.24646 -0.14256,-4.34797 -0.3166,-4.67003 -0.29712,-0.54946 -0.70013,-0.58556 -6.53829,-0.58556 -4.77307,0 -6.29949,0.0928 -6.55594,0.39871 -0.19646,0.2343 -0.36955,2.13793 -0.41977,4.61667 l -0.0855,4.21795 -4.34422,0.15137 c -2.46893,0.086 -4.48509,0.2913 -4.67055,0.47554 -0.21583,0.21443 -0.29828,2.46909 -0.24347,6.66011 l 0.0827,6.33592 4.28185,0.15137 c 2.35502,0.0833 4.45391,0.26158 4.66415,0.39629 0.2754,0.17639 0.38233,1.41133 0.38233,4.41484 0,2.29344 0.0918,4.26074 0.20391,4.37175 0.38721,0.38328 12.79526,0.23141 13.19219,-0.16146 z m 50.23063,5.87061 c 4.45465,-5.25255 7.25893,-10.5891 8.87457,-16.88825 3.03957,-11.85081 0.93903,-23.90522 -5.95069,-34.14911 -2.07076,-3.0789 -5.25147,-6.53989 -6.01024,-6.53989 -0.6311,0 -5.18205,5.36198 -5.18205,6.10553 0,0.2397 0.49213,0.90527 1.0936,1.47908 3.89849,3.71909 7.38497,10.39623 8.51953,16.31627 0.62087,3.23958 0.6283,9.56136 0.0132,12.48286 -1.28506,6.11828 -3.78924,11.10906 -7.93507,15.81432 -1.09924,1.24755 -1.99859,2.39945 -1.99859,2.55978 0,0.16034 1.04723,1.60399 2.3272,3.20815 1.78432,2.23625 2.4757,2.89505 2.96387,2.82419 0.36737,-0.0532 1.75619,-1.41242 3.2832,-3.21293 z m -10.49259,-8.76169 c 8.34297,-9.63993 9.53029,-22.39281 3.07941,-33.07567 -1.74567,-2.89088 -4.58957,-5.91456 -5.22745,-5.55789 -0.80206,0.4485 -4.19148,5.00218 -4.19148,5.63126 0,0.32817 0.62641,1.28632 1.39205,2.12922 1.60072,1.76227 3.59914,5.69082 4.08563,8.0317 0.4768,2.29428 0.41142,6.89411 -0.12786,9.00346 -0.67429,2.6367 -2.38075,5.80152 -4.30689,7.98757 -0.92924,1.05463 -1.62255,2.09032 -1.54068,2.30152 0.082,0.2112 1.01879,1.48543 2.08201,2.83163 1.34172,1.69883 2.1344,2.4492 2.59103,2.45277 0.426,0.003 1.18889,-0.60844 2.16439,-1.73557 z m -9.65267,-8.80685 c 4.93355,-5.43143 5.02089,-14.11843 0.19397,-19.30165 -0.68231,-0.73271 -1.45993,-1.3322 -1.72801,-1.3322 -0.60241,0 -4.0224,3.30357 -4.0224,3.88548 0,0.23265 0.47799,1.0675 1.06218,1.85523 1.40557,1.89528 2.06774,4.39944 1.68774,6.38271 -0.33876,1.76813 -1.20293,3.53859 -2.134,4.37209 -1.44525,1.29378 -1.40184,1.5412 0.63994,3.64586 1.04477,1.07694 2.14028,1.95806 2.43446,1.95806 0.29417,0 1.13392,-0.6595 1.86612,-1.46558 z"
       style="fill:#ffffff;fill-opacity:1;stroke:none;marker-end:none"
       sodipodi:nodetypes="cssccsscsscsscccccccccscccccscccscsccscscscscccscccsccccsssssscsssccccscssscscscccssssssssss"
       inkscape:export-filename="/home/alvin/path5941.png"
       inkscape:export-xdpi="90"
       inkscape:export-ydpi="90" />
    <path
       inkscape:connector-curvature="0"
       id="path6103"
       d="m 95.428599,1041.3203 c -43.40772,-3.5733 -82.948458,-12.8315 -86.980878,-20.3662 -2.1025105,-3.9285 2.98863,-24.76729 8.54516,-34.97647 4.78083,-8.78395 8.64598,-11.49046 35.599518,-24.928 23.99877,-11.96445 25.43793,-12.83965 27.26343,-16.5798 1.36519,-2.79705 1.89057,-5.85916 1.80153,-10.5 -0.12194,-6.35578 -4.10864,-23.95796 -8.3351,-36.80142 -1.78625,-5.42808 -2.38204,-6.25 -4.53051,-6.25 -2.03735,0 -2.93445,-1.00621 -5.08479,-5.70315 -3.33746,-7.28999 -4.04696,-14.20323 -1.95937,-19.0919 1.10377,-2.58479 1.6874,-7.78657 1.93036,-17.20495 0.31766,-12.31428 0.59948,-14.05338 3.20867,-19.80048 8.99572,-19.81436 39.867181,-29.67347 61.246181,-19.55959 8.15321,3.85709 17.44996,13.41648 20.17987,20.74996 3.11244,8.36109 3.54321,13.17736 2.16085,24.15971 -1.18753,9.43459 -1.16578,9.68915 1.00025,11.70712 1.99048,1.85441 2.15319,2.71604 1.61047,8.52795 -0.72974,7.81457 -5.12786,16.5288 -8.6032,17.04598 -2.86842,0.42687 -4.18674,3.6848 -7.5186,18.58054 -3.00952,13.45463 -3.63983,29.48809 -1.34907,34.31659 1.51812,3.19989 4.74375,4.86837 32.44264,16.78113 10.52008,4.52449 21.12082,9.59783 23.5572,11.2741 8.79963,6.05431 14.17876,13.64597 17.18045,24.24709 1.97989,6.99239 3.86958,21.19489 3.09027,23.22569 -1.91013,4.9777 -37.79352,14.8989 -67.45534,18.6504 -15.3396,1.94 -40.30377,3.2115 -48.999991,2.4957 z"
       style="fill:#0b556a;fill-opacity:1"
       sodipodi:nodetypes="ssssssssssssssssssssssssss"
       inkscape:export-filename="K:\Iconos\PNG\perfildes.png"
       inkscape:export-xdpi="90"
       inkscape:export-ydpi="90" />
    <path
       sodipodi:nodetypes="sssssssssssssscsssssssscsssssss"
       inkscape:connector-curvature="0"
       id="path3008"
       d="m 168.82265,933.05275 c -0.4877,0.1103 -1.98405,0.4112 -3.32523,0.6685 -17.41962,3.34194 -32.84013,16.36035 -39.21426,33.10572 -4.4065,11.5761 -4.7281,25.09581 -0.8711,36.62053 3.73499,11.1606 11.21618,20.9533 20.9547,27.4293 9.94826,6.6156 20.0018,9.4116 32.20989,8.958 14.27475,-0.5304 26.09935,-5.6952 36.15282,-15.7908 10.45436,-10.4983 15.99001,-24.7869 15.35995,-39.64703 -0.6094,-14.37255 -5.76572,-26.17534 -15.77682,-36.11306 -7.05939,-7.00763 -14.71021,-11.40611 -24.34569,-13.99636 -3.72996,-1.0027 -5.34866,-1.1735 -12.27699,-1.2952 -4.3893,-0.077 -8.37957,-0.05 -8.86727,0.06 z m 17.58708,14.09408 c 4.06797,1.03079 10.18537,3.74138 12.23974,5.42334 l 1.00819,0.82542 -28.15376,28.11091 c -26.74482,26.7041 -28.18682,28.0672 -28.81484,27.2369 -2.82939,-3.7404 -5.58828,-11.1116 -6.45496,-17.24631 -1.30726,-9.25322 1.27042,-20.10244 6.62228,-27.87255 4.77322,-6.93001 12.41912,-12.78633 20.24506,-15.50653 2.67624,-0.93022 4.09715,-1.26197 9.4898,-2.21557 2.44138,-0.43172 9.82939,0.23357 13.81849,1.24439 z m 26.18724,21.09 c 3.28273,6.53666 4.04667,9.95937 4.05169,18.15308 0.004,6.20535 -0.11063,7.23837 -1.19149,10.75673 -4.65353,15.14806 -16.26708,25.85686 -31.35266,28.91026 -4.4902,0.9088 -13.74082,0.6605 -17.94205,-0.4817 -3.00626,-0.8173 -10.62961,-4.2932 -11.8647,-5.4097 -0.77548,-0.701 0.50427,-2.0531 27.0285,-28.55687 15.88597,-15.87371 28.12544,-27.76804 28.50136,-27.69764 0.36237,0.0678 1.60857,2.01449 2.76935,4.32584 z"
       style="fill:#d2302c;fill-opacity:1"
       inkscape:export-filename="K:\Iconos\PNG\perfildes.png"
       inkscape:export-xdpi="90"
       inkscape:export-ydpi="90" />
  </g>
</svg>
