<?xml version="1.0" encoding="UTF-8" standalone="no"?>
<!-- Created with Inkscape (http://www.inkscape.org/) -->

<svg
   xmlns:dc="http://purl.org/dc/elements/1.1/"
   xmlns:cc="http://creativecommons.org/ns#"
   xmlns:rdf="http://www.w3.org/1999/02/22-rdf-syntax-ns#"
   xmlns:svg="http://www.w3.org/2000/svg"
   xmlns="http://www.w3.org/2000/svg"
   xmlns:sodipodi="http://sodipodi.sourceforge.net/DTD/sodipodi-0.dtd"
   xmlns:inkscape="http://www.inkscape.org/namespaces/inkscape"
   width="487"
   height="435"
   id="svg2"
   version="1.1"
   inkscape:version="0.48.4 r9939"
   sodipodi:docname="dibujo0.svg">
  <defs
     id="defs4" />
  <sodipodi:namedview
     id="base"
     pagecolor="#ffffff"
     bordercolor="#666666"
     borderopacity="1.0"
     inkscape:pageopacity="0.0"
     inkscape:pageshadow="2"
     inkscape:zoom="0.7"
     inkscape:cx="356.04492"
     inkscape:cy="129.77931"
     inkscape:document-units="px"
     inkscape:current-layer="layer2"
     showgrid="false"
     inkscape:object-paths="true"
     inkscape:snap-midpoints="true"
     inkscape:window-width="1360"
     inkscape:window-height="705"
     inkscape:window-x="-8"
     inkscape:window-y="-8"
     inkscape:window-maximized="1"
     inkscape:snap-page="true"
     width="471px" />
  <metadata
     id="metadata7">
    <rdf:RDF>
      <cc:Work
         rdf:about="">
        <dc:format>image/svg+xml</dc:format>
        <dc:type
           rdf:resource="http://purl.org/dc/dcmitype/StillImage" />
        <dc:title></dc:title>
      </cc:Work>
    </rdf:RDF>
  </metadata>
  <g
     inkscape:groupmode="layer"
     id="layer2"
     inkscape:label="Capa"
     style="display:inline"
     transform="translate(0,-617.36218)">
    <rect
       style="fill:#ffffff;fill-opacity:1"
       id="rect3900"
       width="349.41223"
       height="276.97287"
       x="70.216766"
       y="741.24243"
       rx="76.5625"
       ry="76.5625"
       inkscape:export-filename="/home/alvin/path3033.png"
       inkscape:export-xdpi="90"
       inkscape:export-ydpi="90" />
  </g>
  <g
     inkscape:label="Capa 1"
     inkscape:groupmode="layer"
     id="layer1"
     style="display:inline"
     transform="translate(0,-617.36218)">
    <path
       inkscape:connector-curvature="0"
       id="path3032"
       d="m 61.29919,1037.5953 c -19.94226,-3.3577 -32.89639,-11.6359 -38.97048,-24.9035 -4.43237,-9.6815 -5.4378,-23.42717 -6.35987,-86.94844 -0.4986,-34.34918 -1.9214,-63 -1.9214,-63 -0.13628,-18.28785 0,0 0.80622,-49.77144 0.59222,-0.71358 -0.23096,-13.52126 0.63998,-22.28837 3.08059,-31.01003 4.55951,-37.75723 9.77476,-44.59489 1.79864,-2.35817 5.18961,-5.75153 7.53551,-7.5408 7.48973,-5.71261 11.49889,-6.36121 45.17701,-7.30873 42.02623,-1.18239 49.67072,-2.59075 53.42037,-9.84177 2.54974,-4.93067 3.45086,-13.43544 4.67833,-44.154 0.74745,-18.7056 1.5854,-29.92446 2.29004,-30.65999 1.09978,-1.14802 97.29055,-13.3789 105.01623,-13.35307 3.9251,0.0131 104.10487,11.79214 106.23299,12.49074 0.76936,0.25256 1.35209,6.79489 1.79905,20.19794 0.96316,28.88263 2.46816,46.99911 4.38078,52.73358 3.34631,10.03308 8.80281,11.3022 54.18221,12.60223 36.93439,1.05809 39.39181,1.598 49.25186,10.82093 8.83018,8.25959 10.57165,14.17051 13.30727,45.16764 0.94653,10.725 1.61676,38.84064 1.61676,38.84064 l -0.31362,33.31144 c -0.49774,2.39136 -1.31359,34.04792 -1.81299,70.34792 -0.9702,70.52064 -1.23857,74.13134 -6.25997,84.22554 -5.51989,11.0963 -17.35414,18.5092 -35.78931,22.4183 l -10.5,2.2265 -175.68173,0.065 c -127.86747,0.047 -177.53742,-0.2476 -182.5,-1.0832 z m 208.45314,-31.5328 c 1.79927,-1.1048 4.47375,-3.5851 5.94329,-5.5117 2.3521,-3.08379 2.76086,-4.77796 3.41534,-14.15525 0.4089,-5.8587 0.76204,-56.77719 0.78475,-113.15219 0.0407,-101.07961 0.013,-102.56236 -1.99882,-107 -2.38216,-5.2545 -5.23205,-8.5369 -9.41597,-10.84501 -2.70363,-1.4915 -9.32248,-1.65499 -67,-1.65499 -57.8347,0 -64.289,0.16036 -67,1.66468 -4.51672,2.5063 -9.41205,8.04187 -10.5161,11.89144 -1.3291,4.63433 -2.41393,187.3306 -1.24724,210.04953 0.84069,16.3709 1.08916,17.92142 3.54274,22.10809 4.22109,7.2028 6.37236,8.1276 20.7206,8.9078 6.875,0.3738 36.575,0.4606 66,0.193 51.36799,-0.4672 53.63037,-0.5667 56.77141,-2.4954 z m -71.69883,-17.454 c -2.48334,-3.15705 -2.49658,-3.31478 -0.51588,-6.14263 3.01473,-4.30413 8.4433,-1.96361 8.4433,3.64032 0,2.28545 -2.49738,5.13717 -4.49885,5.13717 -0.74579,0 -2.28865,-1.18569 -3.42857,-2.63486 z m -56.60898,-26.6072 c -0.26384,-0.69187 -0.36359,-41.30794 -0.22166,-90.25794 l 0.25806,-89 59.77836,-0.25788 c 52.33336,-0.22576 59.84994,-0.0713 60.35309,1.23983 0.3161,0.82375 0.19084,41.43979 -0.27836,90.25788 l -0.85309,88.76017 -59.27834,0.25794 c -46.8914,0.20404 -59.37858,-0.005 -59.75806,-1 z m 78.119,-46.19907 c 0.99205,-1.35861 1.4174,-4.84795 1.4174,-11.62755 0,-6.5418 0.4058,-10.01555 1.25,-10.70021 0.6875,-0.55758 6.11149,-1.18744 12.05331,-1.39968 8.10898,-0.28966 11.03559,-0.7532 11.73468,-1.85866 1.48359,-2.34596 1.22321,-33.68568 -0.28799,-34.66375 -0.6875,-0.44496 -6.425,-1.25902 -12.75,-1.80902 l -11.5,-1 -0.5,-11.3316 c -0.42879,-9.7177 -0.77647,-11.53362 -2.44113,-12.75 -1.4756,-1.07823 -5.61257,-1.4184 -17.25,-1.4184 -19.56673,0 -19.30229,-0.18816 -19.32418,13.75 -0.008,5.3625 -0.34592,10.24425 -0.75,10.84832 -0.40918,0.61171 -5.56266,1.38682 -11.63159,1.74947 -5.99329,0.35813 -11.50579,1.15649 -12.25,1.77412 -1.8507,1.53595 -1.97507,34.37566 -0.1345,35.51319 0.67023,0.41423 6.13245,1.07741 12.13827,1.47373 7.35744,0.48552 11.19579,1.15619 11.76609,2.05588 0.46553,0.73441 0.85331,5.2435 0.86173,10.02019 0.008,4.7767 0.46544,9.86883 1.01559,11.31585 l 1.00029,2.63094 17.08231,-0.31584 c 15.55013,-0.28752 17.20945,-0.48996 18.49972,-2.25698 z m 134.78875,24.36367 c 3.19014,-2.50937 14.09908,-16.48774 18.30499,-23.45543 16.072,-26.62562 20.52119,-61.56061 11.74834,-92.2479 -4.66761,-16.32722 -14.69067,-34.40457 -25.16345,-45.38419 -3.06112,-3.20926 -6.30348,-5.83502 -7.20524,-5.83502 -2.89159,0 -14.05599,12.76938 -14.05599,16.07667 0,0.99382 2.21982,4.34367 4.93294,7.4441 9.45438,10.80404 17.66611,27.37259 20.73461,41.83552 2.16759,10.2166 1.32455,33.55833 -1.55774,43.12993 -3.21327,10.67077 -10.35875,24.05492 -18.11089,33.92341 -3.84941,4.9003 -6.99892,9.44809 -6.99892,10.1062 0,1.28565 5.6975,9.23756 9.84046,13.73417 3.03776,3.29706 4.07642,3.38982 7.53089,0.67254 z m -24.87353,-29.67254 c 4.9735,-4.93662 12.29971,-16.21197 15.44874,-23.77626 10.53206,-25.29915 6.89508,-54.70799 -9.43447,-76.28776 -5.23872,-6.92304 -8.70089,-9.71124 -10.97505,-8.83857 -2.13535,0.81942 -10.53704,12.53931 -10.53704,14.6986 0,1.00429 2.40902,5.4251 5.35339,9.82402 7.88331,11.77778 10.00749,19.27677 9.46619,33.41848 -0.38747,10.12283 -0.7632,11.99386 -3.64535,18.15286 -1.76734,3.77672 -5.51656,9.97364 -8.33161,13.77092 -4.6549,6.27912 -5.0049,7.11596 -3.86613,9.24378 2.30801,4.31257 10.15928,12.54393 11.96469,12.54393 0.98235,0 3.03284,-1.2375 4.55664,-2.75 z m -25.69672,-26 c 7.71349,-8.17742 11.81624,-21.82566 10.13329,-33.70946 -1.46382,-10.3364 -9.3504,-23.54054 -14.06033,-23.54054 -2.28064,0 -10.87406,7.64056 -10.87406,9.66832 0,0.77749 1.43114,4.16345 3.18031,7.52437 4.22408,8.11631 4.78437,14.69408 1.83553,21.54885 -1.21043,2.81372 -3.05917,5.89268 -4.10831,6.84214 -1.04914,0.94946 -1.90753,2.65359 -1.90753,3.78696 0,2.33163 8.67009,11.62936 10.84433,11.62936 0.78073,0 3.01128,-1.6875 4.95677,-3.75 z m -79.8011,-156.75 c 4.675,-0.8235 13.675,-1.49727 20,-1.49727 6.325,0 15.325,0.67377 20,1.49727 12.56847,2.21392 17.82114,1.98558 22.16094,-0.96339 8.30609,-5.64414 11.81625,-23.52288 7.76916,-39.57172 -1.16996,-4.63951 -6.26325,-9.38391 -12.19925,-11.36362 -7.57606,-2.52667 -27.43692,-3.92461 -46.23085,-3.25403 -18.72714,0.66819 -27.04704,1.87087 -32.62375,4.71589 -8.00907,4.08592 -10.26271,10.23494 -9.68209,26.41736 0.31435,8.76126 0.82853,11.83924 2.50902,15.01951 2.17601,4.118 6.65119,8.83361 9.29682,9.79629 2.81524,1.0244 10.48993,0.70275 19,-0.79629 z"
       style="fill:#0b556a;fill-opacity:1"
       sodipodi:nodetypes="sssccssssssssssssssccssscssssssssssssssssssssscscscscscssssssscssscsssssscscsssssssssssssssssssssssssssssssssssssssssssssssss"
       inkscape:export-xdpi="90"
       inkscape:export-ydpi="90"
       inkscape:export-filename="/home/alvin/path3033.png" />
  </g>
</svg>
