<?xml version="1.0" encoding="UTF-8" standalone="no"?>
<!-- Created with Inkscape (http://www.inkscape.org/) -->

<svg
   xmlns:osb="http://www.openswatchbook.org/uri/2009/osb"
   xmlns:dc="http://purl.org/dc/elements/1.1/"
   xmlns:cc="http://creativecommons.org/ns#"
   xmlns:rdf="http://www.w3.org/1999/02/22-rdf-syntax-ns#"
   xmlns:svg="http://www.w3.org/2000/svg"
   xmlns="http://www.w3.org/2000/svg"
   xmlns:sodipodi="http://sodipodi.sourceforge.net/DTD/sodipodi-0.dtd"
   xmlns:inkscape="http://www.inkscape.org/namespaces/inkscape"
   width="470"
   height="440"
   id="svg2982"
   version="1.1"
   inkscape:version="0.48.4 r9939"
   sodipodi:docname="dibujo-6.svg">
  <defs
     id="defs2984">
    <linearGradient
       id="linearGradient5331"
       osb:paint="solid">
      <stop
         style="stop-color:#cccccf;stop-opacity:1;"
         offset="0"
         id="stop5333" />
    </linearGradient>
  </defs>
  <sodipodi:namedview
     id="base"
     pagecolor="#ffffff"
     bordercolor="#666666"
     borderopacity="1.0"
     inkscape:pageopacity="0.0"
     inkscape:pageshadow="2"
     inkscape:zoom="0.77472527"
     inkscape:cx="152.09511"
     inkscape:cy="210.92075"
     inkscape:current-layer="layer1"
     inkscape:document-units="px"
     showgrid="false"
     inkscape:window-width="1360"
     inkscape:window-height="705"
     inkscape:window-x="-8"
     inkscape:window-y="-8"
     inkscape:window-maximized="1" />
  <metadata
     id="metadata2987">
    <rdf:RDF>
      <cc:Work
         rdf:about="">
        <dc:format>image/svg+xml</dc:format>
        <dc:type
           rdf:resource="http://purl.org/dc/dcmitype/StillImage" />
        <dc:title />
      </cc:Work>
    </rdf:RDF>
  </metadata>
  <g
     id="layer1"
     inkscape:label="Layer 1"
     inkscape:groupmode="layer"
     transform="translate(0,-40)">
    <path
       sodipodi:nodetypes="csssssssssscsc"
       inkscape:connector-curvature="0"
       id="path3007-0"
       d="M 113.52964,378.77271 C 58.77878,334.84321 18.66405,262.84233 12.63893,207.17285 6.09554,146.71521 38.32221,88.569729 87.70598,64.501035 107.20425,54.997934 118.4971,52.46826 138.99247,52.46826 c 28.96029,0 52.28158,8.853098 79.67246,29.439149 8.63193,6.487483 16.12112,13.620836 16.64266,13.620836 0.52152,0 9.22296,-7.187345 13.75879,-10.951911 22.83074,-18.948659 47.8786,-28.33742 73.79904,-31.696977 37.39141,-4.846329 72.18312,13.390357 100.64843,44.005718 13.37846,14.388975 26.19723,34.856705 31.03118,53.771175 8.50862,33.29283 2.85564,82.90322 -12.19496,114.80422 -24.5841,52.10806 -58.50778,96.2173 -117.55063,142.37398 -54.51534,40.07285 -82.2477,60.0933 -88.98467,60.14918 -1.87782,0.0156 -50.74156,-29.40614 -122.28513,-89.21092 z"
       style="fill:#ffffff"
       inkscape:export-filename="/home/alvin/path3006.png"
       inkscape:export-xdpi="90"
       inkscape:export-ydpi="90" />
    <path
       sodipodi:nodetypes="cssscsscsscsssssssssssssssscsssssssssssscsssscssssssssssssscssccssssssssscssssss"
       inkscape:connector-curvature="0"
       id="path3013"
       d="m 100.24707,161.92681 c 39.46757,-1.53555 57.48437,4.45892 95.75648,15.6572 9.78633,2.86346 19.1608,-15.18981 34.69576,-15.98843 81.11834,-4.17022 84.52975,26.33641 99.16579,15.17776 43.18015,-32.92094 138.72308,-24.13267 129.74047,21.80431 0.20298,33.99989 -5.94526,50.43519 -22.91409,84.35844 -22.04869,44.07869 -55.40102,79.75485 -115.61075,126.2438 -26.55401,20.50282 -82.16463,60.41959 -85.32473,60.26804 -1.62703,-0.078 -14.8964,-8.87516 -34.94141,-23.00114 C 161.72092,418.89698 132.25405,396.02804 109.4592,375.4543 45.02357,317.29719 10.173629,250.20054 13.840459,195.2132 M 250.23845,363.37247 c 2.4343,-6.88444 -0.87504,-11.03662 -5.84278,-6.56518 -3.6009,3.24116 -4.08556,8.48661 -1.74249,10.81699 2.46948,2.45612 5.90286,0.50621 7.58527,-4.25181 z m 31.44963,-1.06242 c 3.04233,-2.09079 6.47624,0.0177 -10.45527,-10.36024 -5.6224,-3.44602 -10.22252,-7.3977 -10.22252,-8.78153 0,-3.90273 2.81437,-3.07752 15.54114,4.55684 8.09476,4.85578 11.81917,6.46764 16.32382,6.46764 6.93016,0 11.92653,-4.67278 7.31338,-6.34008 -1.33237,-0.48155 -2.77729,-1.30635 -7.17742,-2.81917 -9.22099,-3.1703 -21.33395,-10.69189 -21.33395,-13.24741 0,-2.98137 5.27312,-1.92739 13.05747,2.60988 12.81169,7.46754 34.58209,9.13414 32.51468,2.96548 -0.35944,-1.07248 -4.0681,-2.56276 -10.7205,-4.79117 -7.29755,-2.44449 -16.21153,-7.26801 -22.47236,-12.1602 -10.63469,-8.30989 -26.9397,-16.8423 -32.24368,-16.8731 -1.63628,-0.009 -6.57443,2.71535 -10.97369,6.05522 -10.00863,7.59844 -17.72201,11.60968 -22.32486,11.60968 -5.76238,0 -12.08302,-3.61727 -14.13055,-8.08679 -1.67566,-3.65775 -0.9415,-5.28977 6.0768,-13.5087 4.39047,-5.14154 12.96014,-12.29037 19.04368,-15.88627 6.08356,-3.59588 12.66104,-7.78161 14.61666,-9.30164 3.3458,-2.60059 3.13595,-2.69505 -3.55567,-1.60054 -3.91122,0.63975 -14.29842,3.91426 -23.08266,7.27668 -12.36479,4.73298 -17.80763,5.93799 -24.10329,5.33632 -7.8172,-0.74707 -49.34852,-18.03155 -80.33383,-33.43331 -7.55629,-3.75598 -14.57455,-6.82904 -15.59611,-6.82904 -1.24064,0 -1.6965,10.60465 -1.37285,31.9364 l -1.22677,29.5405 50.82984,14.00735 c 35.41938,9.76064 45.64829,11.64276 49.77039,14.75983 6.74721,5.10211 5.65869,8.10331 12.59346,4.14484 5.2026,-2.96974 7.96858,-4.55681 13.14797,-0.74822 2.94396,2.16478 6.59271,3.45414 8.12254,2.87028 1.52765,-0.58305 4.74327,0.22096 7.14584,1.78666 2.40257,1.56572 6.28145,2.84674 8.61977,2.84674 2.33829,0 11.82327,4.07377 16.11955,7.32689 7.28511,5.51621 14.08596,9.55206 16.12199,9.65219 0.48891,0.024 2.90028,0.026 4.367,-0.98201 z m -47.56649,-3.68309 c 3.19886,-4.85567 2.10564,-9.13362 -1.97854,-9.13362 -3.19543,0 -6.93985,4.47333 -6.93985,8.78364 0,4.71791 5.52588,5.4996 8.91839,0.34998 z m -15.59479,-6.11159 c 3.21738,-4.88377 1.28815,-8.52842 -2.8497,-8.52842 -3.52438,0 -7.96107,7.47137 -6.64805,10.87455 1.55761,4.03706 6.24457,2.59199 9.49775,-2.34613 z m -18.36598,-5.32189 c -0.85685,-2.31811 -0.78569,-2.70588 -2.99702,-4.24638 -4.17565,-2.90895 -6.93105,-0.10166 -5.07393,4.7118 1.1169,2.89486 4.05668,4.49855 5.63696,1.95544 z M 368.4616,315.60213 c 18.10174,-8.00996 30.72839,-13.39109 32.2511,-15.63414 3.32487,-4.89775 1.93115,-56.72195 0.32235,-56.72195 -0.99453,0 -17.3199,7.95826 -40.9888,19.65758 -23.66888,11.6993 -45.99761,21.74367 -49.61936,22.32086 -5.09237,0.8115 -10.23324,-0.40289 -22.6796,-5.35752 -8.85201,-3.5238 -18.28912,-6.40706 -20.97133,-6.40721 -8.67787,-5.6e-4 -37.62079,15.87507 -47.95931,26.3064 -7.45027,7.51714 -8.99933,10.01629 -7.39791,11.93546 1.11403,1.33508 4.12764,2.42323 6.69687,2.4181 4.59888,-0.009 6.63775,-1.08842 21.41642,-11.33674 4.09041,-2.83652 9.6332,-5.15731 12.31731,-5.15731 7.13407,0 22.60459,7.60327 35.9306,17.65872 7.48007,5.64425 15.44431,9.86874 22.22288,11.78772 5.8106,1.64498 11.76478,3.81091 13.23149,4.8132 4.68907,3.20428 11.56407,-1.38731 45.22729,-16.28317 z"
       style="fill:#d4a57a"
       inkscape:export-filename="/home/alvin/path3006.png"
       inkscape:export-xdpi="90"
       inkscape:export-ydpi="90" />
    <path
       sodipodi:nodetypes="ssssssssssssssssssssssscscsssssssssscscssssssssssssssssssssssssssssssssssssssscssscssccsscsssssssssssscsssssssssssscscssscsscccsssssssscsscssscssssssssscssssssssscssssscccsscsscsssscsssscccscssscscccssssccssssssscsscsscscscssscsscsssssssssssssssscssss"
       inkscape:connector-curvature="0"
       id="path3007"
       d="M 197.81954,446.83564 C 149.00951,412.55112 119.32072,388.87583 94.54735,364.48129 43.44737,314.16275 16.9317,264.96643 10.906579,209.29695 4.363189,148.83931 35.22078,87.955673 84.60455,63.886979 c 19.49827,-9.503101 33.98564,-12.945495 54.48101,-12.945495 28.96029,0 53.1943,8.853098 80.58518,29.439149 8.63193,6.487483 16.12112,11.795398 16.64266,11.795398 0.52152,0 4.65936,-3.080108 9.19519,-6.844674 22.83074,-18.948659 48.33496,-30.619219 74.2554,-33.978776 37.39141,-4.846329 75.834,10.19584 104.29931,40.811201 13.37846,14.388978 27.56631,40.333018 32.40026,59.247488 8.50862,33.29283 5.95842,73.4114 -6.81038,107.13784 -20.40033,53.88371 -58.56314,100.04377 -125.67337,152.00896 -21.82696,16.9012 -85.94184,61.7844 -88.25792,61.7844 -0.87387,0 -17.92992,-11.47808 -37.90235,-25.50683 z m 81.2112,-9.3236 c 31.95446,-22.36215 53.83822,-39.45109 53.83822,-42.04201 0,-4.90689 -9.25668,-47.9254 -10.60657,-49.29182 -2.96508,-3.00144 -12.49784,0.78235 -15.23519,6.04721 -1.56882,3.01734 -4.66928,5.60227 -7.52488,6.27367 -2.67118,0.62805 -7.5806,3.16109 -10.90982,5.629 -5.17059,3.83292 -8.22031,4.55781 -20.91769,4.97205 -11.42767,0.37283 -16.01062,1.29658 -19.82112,3.99524 l -4.95654,3.51027 3.11226,35.04884 c 1.71174,19.27687 3.15486,36.83917 3.20692,39.02734 0.0541,2.27492 1.21132,3.97849 2.70251,3.97849 1.43433,0 13.63469,-7.71673 27.1119,-17.14828 z M 194.943,432.99967 c 0.7292,-3.5707 5.47038,-67.42997 5.47556,-73.75053 10e-4,-1.51165 -2.4854,-3.08581 -6.00564,-3.80191 -7.10106,-1.44448 -9.03978,-3.96071 -9.07658,-11.78039 -0.021,-4.4568 -1.05849,-6.25194 -4.52002,-7.82058 -2.73555,-1.23966 -5.10526,-1.39775 -6.0587,-0.40415 -0.86122,0.89752 -5.14411,11.57806 -9.51749,23.73454 -17.78021,49.42272 -17.10179,45.30891 -8.60232,52.16237 8.55189,6.89568 34.9133,25.52997 36.19322,25.58414 0.71472,0.0303 1.66511,-1.73532 2.11197,-3.92349 z m 53.57881,-63.21372 c 0.38382,0 1.87135,-2.25701 3.30561,-5.01554 2.23641,-4.30135 2.25792,-5.68624 0.15111,-9.7252 -2.89979,-5.55917 -1.14025,-6.04218 4.69131,-1.28787 3.99716,3.25882 4.04326,3.53549 0.96804,5.80867 -3.09098,2.28485 -3.06513,2.53438 0.60503,5.83788 3.7404,3.36674 3.89356,3.37005 6.27057,0.13687 2.15923,-2.93697 3.06053,-3.05705 7.91977,-1.05519 7.32754,3.01874 15.07109,-0.0829 13.65483,-5.46953 -0.83764,-3.18583 -0.34369,-3.46532 4.32265,-2.44596 7.46048,1.62973 14.7068,-3.24441 13.27263,-8.92768 -0.97018,-3.8446 -0.45411,-4.21874 6.51018,-4.71973 5.84212,-0.42024 7.96337,-1.44975 9.31886,-4.5226 1.2049,-2.73154 3.27993,-3.97849 6.62057,-3.97849 8.6111,0 73.17291,-27.65121 77.40474,-33.15171 2.67447,-3.47625 3.19152,-61.52746 0.56241,-63.14354 -0.91293,-0.56118 -20.89496,8.50491 -44.40451,20.14685 -23.50953,11.64196 -45.86774,22.09783 -49.68491,23.23529 -6.41707,1.91222 -8.33984,1.52387 -25.50624,-5.15158 -16.89255,-6.56893 -19.15732,-7.03918 -25.12667,-5.21703 -5.64992,1.72462 -6.87493,1.57526 -8.82427,-1.07624 -2.09229,-2.84591 -3.06571,-2.88301 -12.86447,-0.49026 -5.8305,1.42377 -17.74175,5.13876 -26.46946,8.25557 -18.89789,6.7488 -22.68453,6.47286 -43.93185,-3.20145 -8.17763,-3.72342 -19.26855,-8.69676 -24.64649,-11.05187 -5.37794,-2.35509 -18.50109,-8.5012 -29.16254,-13.65801 -10.66147,-5.15683 -19.96093,-8.74224 -20.66543,-7.96759 -2.41627,2.65678 -3.49897,63.53683 -1.18149,66.43406 1.16554,1.45709 10.91942,4.70955 21.67528,7.22763 37.89665,8.87211 76.47366,19.20292 78.82523,21.10921 1.91978,1.55622 1.66258,2.19159 -1.33336,3.29386 -4.56709,1.68035 -4.72812,5.14441 -0.48163,10.36026 2.75032,3.37813 3.80701,3.66075 7.11131,1.9019 2.13455,-1.1362 3.88156,-3.43029 3.88226,-5.09798 8e-4,-1.94283 1.51464,-3.11866 4.21373,-3.27288 3.93315,-0.22474 4.08292,0.10056 2.25866,4.90759 -1.37253,3.6165 -1.39829,6.02423 -0.0866,8.09243 2.82068,4.44751 4.97782,4.50851 10.36601,0.29306 3.96719,-3.10372 4.77791,-4.96304 4.22348,-9.68631 -0.59078,-5.03313 -0.30485,-5.55831 2.05795,-3.77986 1.50922,1.136 3.02566,2.23913 3.36985,2.45142 0.34418,0.2123 -0.65584,2.20591 -2.22229,4.43023 -3.60164,5.11426 -3.64692,11.00601 -0.10702,13.92799 2.27415,1.87717 3.63696,1.60382 8.00024,-1.60464 l 5.2591,-3.86721 0,4.11981 c 0,4.96655 3.43665,8.78735 6.76222,7.5181 1.32978,-0.50752 2.73176,-0.92276 3.11559,-0.92276 z m -10.22872,-17.49023 c -0.71563,-4.84963 -0.48154,-5.12258 2.89739,-3.37851 2.02176,1.04357 3.88084,2.05971 4.13128,2.25812 0.25044,0.1984 -1.05337,1.71873 -2.89738,3.37851 -3.20767,2.88719 -3.38642,2.7895 -4.13129,-2.25812 z m 146.15429,-1.46496 c 16.96661,-18.06948 28.4239,-33.04628 28.4239,-37.15545 0,-1.83304 -1.02212,-4.72305 -2.27136,-6.42225 -2.10456,-2.86261 -4.09554,-2.26911 -27.1119,8.08127 -13.6623,6.14391 -25.7854,11.77146 -26.94025,12.5057 -1.84775,1.17476 1.60617,14.15102 9.16458,34.431 1.7138,4.59833 6.3114,1.79089 18.73503,-11.44027 z M 102.633,337.9692 c 5.54889,-8.74655 9.77979,-16.82507 9.40201,-17.9523 -0.37777,-1.12719 -5.84628,-3.32035 -12.15222,-4.8737 l -11.00901,-3.96518 -1.01305,-6.81607 c -0.64494,-4.33936 -1.18735,-8.59465 -1.95816,-9.37405 -0.7708,-0.77941 -6.43322,4.22781 -12.58321,11.12713 -9.78039,10.9721 -10.9529,13.03336 -9.35569,16.44693 2.39566,5.12005 24.99221,31.31004 27.0141,31.31004 0.86147,0 6.10633,-7.15627 11.65523,-15.9028 z m 203.56852,-61.07112 c 0,-1.48987 -4.40572,-16.01134 -9.79048,-32.26995 -14.45858,-43.65589 -35.26121,-83.54441 -42.37094,-81.24517 -3.83507,1.24024 -6.59746,9.86278 -7.69509,24.0196 -0.98575,12.71371 -0.71504,14.57068 2.76546,18.97149 4.50662,5.69826 2.59364,9.32532 -3.06468,5.81075 -2.02643,-1.25869 -4.17548,-1.80014 -4.77566,-1.20318 -2.11396,2.10251 -4.55148,26.12542 -4.03631,39.77961 l 0.52127,13.81586 15.11154,1.01252 c 11.59668,0.777 18.83319,2.49784 31.11202,7.39838 17.82892,7.11561 22.22287,7.88874 22.22287,3.91009 z m -98.05231,-1.38609 c 1.06783,-1.2797 2.49058,-6.97322 3.16168,-12.65229 0.95455,-8.07782 0.73303,-10.02612 -1.01763,-8.95001 -2.46238,1.51361 -10.71648,18.19887 -10.74413,21.71876 -0.0229,2.92259 6.13376,2.83922 8.60008,-0.11649 z m 234.81802,-13.21062 c 2.02555,-5.14174 3.68281,-10.88543 3.68281,-12.76381 0,-4.25545 -12.02344,-13.21818 -40.05803,-29.86082 -29.18877,-17.32779 -32.75061,-17.06313 -14.6616,1.08943 6.08305,6.1044 12.48322,11.09893 14.22265,11.09893 1.90986,0 3.16256,1.31652 3.16256,3.32368 0,1.82802 3.40009,7.79336 7.55578,13.25629 4.15566,5.46295 10.23908,13.59202 13.51866,18.0646 3.2796,4.47259 6.62248,7.45886 7.42865,6.63615 0.80613,-0.82274 3.12297,-5.70273 5.14852,-10.84445 z m -88.21568,-4.90586 c 10.41302,-5.40866 19.37947,-10.55283 19.92548,-11.43147 2.15596,-3.46957 -29.55217,-46.20018 -44.08633,-59.41176 -8.15054,-7.40884 -12.75801,-9.90992 -26.76735,-14.53022 -9.30718,-3.06952 -19.34771,-5.58095 -22.31227,-5.58095 l -5.39014,0 8.68632,11.41417 c 13.10383,17.21892 27.05202,43.91318 44.15872,84.51154 1.12689,2.67443 3.12978,4.86259 4.45084,4.86259 1.32108,0 10.9217,-4.42526 21.33473,-9.8339 z M 158.8743,253.52574 c 18.29599,-24.94872 40.66181,-49.87309 52.21335,-58.18636 3.52213,-2.53479 3.51583,-2.59158 -0.66927,-6.02584 -7.71002,-6.32676 -11.94248,-6.16775 -22.56612,0.84784 -14.44134,9.53665 -62.98935,56.25792 -62.98935,60.61921 0,1.51791 21.40649,12.3304 25.27802,12.76801 0.7025,0.0793 4.63251,-4.43086 8.73337,-10.02286 z m -107.28634,-4.4836 c 40.13489,-27.13976 92.45635,-56.55678 118.60962,-66.68669 5.86683,-2.27241 11.04382,-4.43892 11.50439,-4.81449 1.78603,-1.45634 -4.6803,-3.97414 -10.27268,-3.99991 -16.72921,-0.0771 -103.77124,27.49583 -144.79143,45.86654 -9.74808,4.36562 -9.84772,4.84067 -4.80895,22.9254 4.08419,14.65855 6.33328,19.59178 8.9321,19.59178 0.97667,0 10.34881,-5.79718 20.82695,-12.88263 z M 236.01858,184.1212 c 1.12773,-4.37521 3.3769,-10.49576 4.99815,-13.60126 1.89395,-3.62788 2.299,-6.04513 1.13302,-6.76183 -2.65187,-1.63007 -10.9563,0.62615 -15.07695,4.0963 -4.54441,3.82702 -11.54057,12.7466 -11.54057,14.71337 0,2.24711 12.94329,10.29084 15.88481,9.87179 1.40696,-0.20044 3.4707,-3.93111 4.60154,-8.31837 z M 40.41604,180.11616 c 10.75586,-4.30356 23.52461,-9.27077 28.37498,-11.03823 12.69657,-4.62658 7.39851,-5.89918 -25.18324,-6.04896 l -27.03132,-0.12431 -1.04907,6.6308 c -2.148581,13.58017 -2.279971,15.30354 -1.350511,17.71256 1.12426,2.91395 1.14764,2.90758 26.239161,-7.13187 z m 172.24497,-3.88766 c 4.03648,-6.12713 3.62453,-6.72923 -2.46227,-3.59863 -5.30674,2.72937 -6.40872,4.52995 -4.14827,6.77815 2.07178,2.06056 3.66246,1.2955 6.61054,-3.17952 z m -11.18141,-4.60314 c 2.8399,-2.01129 5.16348,-4.39837 5.16348,-5.30465 0,-0.90631 -6.8002,-1.64781 -15.11155,-1.64781 -8.31136,0 -15.11155,0.69634 -15.11155,1.54742 0,1.40359 14.79113,8.57589 18.39275,8.91875 0.82687,0.0786 3.82697,-1.50246 6.66687,-3.51371 z m 142.79549,-6.13298 c 34.26235,-15.92428 47.7237,-16.5885 85.89703,-4.23842 12.93778,4.18573 24.0819,7.05476 24.76473,6.37565 1.61307,-1.6044 -4.261,-26.39631 -7.20204,-30.39668 -2.12312,-2.88785 -5.53077,-2.5222 -56.34056,6.04549 -29.74439,5.01555 -58.28084,9.9483 -63.41432,10.96168 l -9.33361,1.84246 0,7.68424 c 0,7.23818 1.33976,9.24716 6.40718,9.60758 1.07942,0.0768 9.72915,-3.4701 19.22159,-7.88198 z M 214.73942,155.04994 c 6.22434,-9.44814 4.53383,-10.75 -35.65271,-27.45626 C 89.75274,90.455961 67.81059,81.56673 65.474,81.56673 c -6.72199,0 -40.05926,43.13625 -36.25863,46.91632 0.83152,0.82706 169.78519,29.46238 181.38683,30.74258 0.71081,0.0785 2.57259,-1.8006 4.13722,-4.17569 z m 163.13567,-23.34502 c 29.51486,-9.3921 54.33753,-17.66655 55.16146,-18.38769 0.82393,-0.72112 0.49261,-3.1869 -0.7363,-5.47948 -2.73764,-5.10717 -22.67637,-25.977154 -27.04013,-28.303047 -2.49784,-1.331339 -7.7541,1.201835 -24.88961,11.995256 -22.83375,14.382671 -67.48115,43.077781 -68.60457,44.092481 -1.34377,1.21374 1.64993,9.44997 4.44554,12.23044 1.59131,1.58273 4.04235,2.43913 5.44676,1.90311 1.40438,-0.53599 26.70195,-8.659 56.21685,-18.05107 z m -151.14006,0.78775 3.57941,-4.77292 -4.67196,-5.83637 c -2.5696,-3.21004 -17.69593,-19.1972 -33.61411,-35.527056 L 163.08625,56.665689 151.72342,54.737505 c -17.31521,-2.938221 -49.99183,2.148522 -49.95921,7.777163 0.0159,2.781318 115.47178,75.775202 118.91308,75.179742 1.36309,-0.23587 4.08906,-2.57664 6.05774,-5.20174 z M 346.19686,98.717859 c 20.10282,-17.311143 36.11303,-32.178943 35.57823,-33.039572 -1.75316,-2.821333 -20.6364,-8.939034 -30.87807,-10.00371 L 340.86709,54.631885 320.4231,84.26777 c -27.34296,39.63671 -26.09987,37.02026 -20.18074,42.47625 2.66427,2.45581 5.87007,4.23642 7.12401,3.9569 1.25393,-0.27954 18.72766,-14.6719 38.83049,-31.983061 z M 243.5819,119.48312 c 4.70727,-3.27925 4.87009,-5.50117 1.09147,-14.89379 -1.99196,-4.951485 -3.92901,-7.108655 -6.38332,-7.108655 -1.93793,0 -7.65125,-3.441866 -12.69623,-7.648567 -5.04498,-4.206713 -11.69626,-9.378743 -14.78062,-11.493411 -11.95716,-8.197888 -10.53584,-4.018502 7.47044,21.966903 15.70748,22.66791 17.90103,24.33074 25.29826,19.17752 z m 47.81365,-2.99412 c 3.88165,-6.10931 27.25077,-56.87746 27.25077,-59.200843 0,-2.081155 -1.30227,-2.435308 -5.77795,-1.571287 -13.09203,2.527431 -24.86547,7.173681 -27.02902,10.666723 -2.89186,4.668909 -10.44116,42.956687 -9.13658,46.338007 1.8377,4.76308 12.34788,7.45803 14.69278,3.7674 z m -24.18941,-3.15657 c 3.0796,-1.63925 3.4388,-3.86031 3.4388,-21.264015 l 0,-19.433577 -5.3095,2.730804 c -2.92022,1.501936 -8.05005,5.124016 -11.39962,8.049069 -5.71076,4.987016 -5.98725,5.728443 -4.43843,11.902401 4.84674,19.320638 5.10551,19.845728 9.77989,19.845728 2.46955,0 6.03755,-0.82368 7.92886,-1.83041 z"
       style="fill:#e4703a"
       inkscape:export-filename="/home/alvin/path3006.png"
       inkscape:export-xdpi="90"
       inkscape:export-ydpi="90" />
    <path
       sodipodi:nodetypes="ssssssssssssssssssssssscscsssssssssscscssssssssssssssssssssssssssssssssssssssscssscssccsscsssssssssssscsssssssssssscscssscsscccsssssssscsscssscssssssssscssssssssscssssscccsscssscssssssssssssscssss"
       inkscape:connector-curvature="0"
       id="path3005"
       d="M 197.81954,446.83564 C 149.00951,412.55112 119.32072,388.87583 94.54735,364.48129 43.44737,314.16275 16.9317,264.96643 10.906579,209.29695 4.363189,148.83931 35.22078,87.955673 84.60455,63.886979 c 19.49827,-9.503101 33.98564,-12.945495 54.48101,-12.945495 28.96029,0 53.1943,8.853098 80.58518,29.439149 8.63193,6.487483 16.12112,11.795398 16.64266,11.795398 0.52152,0 4.65936,-3.080108 9.19519,-6.844674 22.83074,-18.948659 48.33496,-30.619219 74.2554,-33.978776 37.39141,-4.846329 75.834,10.19584 104.29931,40.811201 13.37846,14.388978 27.56631,40.333018 32.40026,59.247488 8.50862,33.29283 5.95842,73.4114 -6.81038,107.13784 -20.40033,53.88371 -58.56314,100.04377 -125.67337,152.00896 -21.82696,16.9012 -85.94184,61.7844 -88.25792,61.7844 -0.87387,0 -17.92992,-11.47808 -37.90235,-25.50683 z m 81.2112,-9.3236 c 31.95446,-22.36215 53.83822,-39.45109 53.83822,-42.04201 0,-4.90689 -9.25668,-47.9254 -10.60657,-49.29182 -2.96508,-3.00144 -12.49784,0.78235 -15.23519,6.04721 -1.56882,3.01734 -4.66928,5.60227 -7.52488,6.27367 -2.67118,0.62805 -7.5806,3.16109 -10.90982,5.629 -5.17059,3.83292 -8.22031,4.55781 -20.91769,4.97205 -11.42767,0.37283 -16.01062,1.29658 -19.82112,3.99524 l -4.95654,3.51027 3.11226,35.04884 c 1.71174,19.27687 3.15486,36.83917 3.20692,39.02734 0.0541,2.27492 1.21132,3.97849 2.70251,3.97849 1.43433,0 13.63469,-7.71673 27.1119,-17.14828 z M 194.943,432.99967 c 0.7292,-3.5707 5.47038,-67.42997 5.47556,-73.75053 10e-4,-1.51165 -2.4854,-3.08581 -6.00564,-3.80191 -7.10106,-1.44448 -9.03978,-3.96071 -9.07658,-11.78039 -0.021,-4.4568 -1.05849,-6.25194 -4.52002,-7.82058 -2.73555,-1.23966 -5.10526,-1.39775 -6.0587,-0.40415 -0.86122,0.89752 -5.14411,11.57806 -9.51749,23.73454 -17.78021,49.42272 -17.10179,45.30891 -8.60232,52.16237 8.55189,6.89568 34.9133,25.52997 36.19322,25.58414 0.71472,0.0303 1.66511,-1.73532 2.11197,-3.92349 z m 53.57881,-63.21372 c 0.38382,0 1.87135,-2.25701 3.30561,-5.01554 2.23641,-4.30135 2.25792,-5.68624 0.15111,-9.7252 -2.89979,-5.55917 -1.14025,-6.04218 4.69131,-1.28787 3.99716,3.25882 4.04326,3.53549 0.96804,5.80867 -3.09098,2.28485 -3.06513,2.53438 0.60503,5.83788 3.7404,3.36674 3.89356,3.37005 6.27057,0.13687 2.15923,-2.93697 3.06053,-3.05705 7.91977,-1.05519 7.32754,3.01874 15.07109,-0.0829 13.65483,-5.46953 -0.83764,-3.18583 -0.34369,-3.46532 4.32265,-2.44596 7.46048,1.62973 14.7068,-3.24441 13.27263,-8.92768 -0.97018,-3.8446 -0.45411,-4.21874 6.51018,-4.71973 5.84212,-0.42024 7.96337,-1.44975 9.31886,-4.5226 1.2049,-2.73154 3.27993,-3.97849 6.62057,-3.97849 8.6111,0 73.17291,-27.65121 77.40474,-33.15171 2.67447,-3.47625 3.19152,-61.52746 0.56241,-63.14354 -0.91293,-0.56118 -20.89496,8.50491 -44.40451,20.14685 -23.50953,11.64196 -45.86774,22.09783 -49.68491,23.23529 -6.41707,1.91222 -8.33984,1.52387 -25.50624,-5.15158 -16.89255,-6.56893 -19.15732,-7.03918 -25.12667,-5.21703 -5.64992,1.72462 -6.87493,1.57526 -8.82427,-1.07624 -2.09229,-2.84591 -3.06571,-2.88301 -12.86447,-0.49026 -5.8305,1.42377 -17.74175,5.13876 -26.46946,8.25557 -18.89789,6.7488 -22.68453,6.47286 -43.93185,-3.20145 -8.17763,-3.72342 -19.26855,-8.69676 -24.64649,-11.05187 -5.37794,-2.35509 -18.50109,-8.5012 -29.16254,-13.65801 -10.66147,-5.15683 -19.96093,-8.74224 -20.66543,-7.96759 -2.41627,2.65678 -3.49897,63.53683 -1.18149,66.43406 1.16554,1.45709 10.91942,4.70955 21.67528,7.22763 37.89665,8.87211 76.47366,19.20292 78.82523,21.10921 1.91978,1.55622 1.66258,2.19159 -1.33336,3.29386 -4.56709,1.68035 -4.72812,5.14441 -0.48163,10.36026 2.75032,3.37813 3.80701,3.66075 7.11131,1.9019 2.13455,-1.1362 3.88156,-3.43029 3.88226,-5.09798 8e-4,-1.94283 1.51464,-3.11866 4.21373,-3.27288 3.93315,-0.22474 4.08292,0.10056 2.25866,4.90759 -1.37253,3.6165 -1.39829,6.02423 -0.0866,8.09243 2.82068,4.44751 4.97782,4.50851 10.36601,0.29306 3.96719,-3.10372 4.77791,-4.96304 4.22348,-9.68631 -0.59078,-5.03313 -0.30485,-5.55831 2.05795,-3.77986 1.50922,1.136 3.02566,2.23913 3.36985,2.45142 0.34418,0.2123 -0.65584,2.20591 -2.22229,4.43023 -3.60164,5.11426 -3.64692,11.00601 -0.10702,13.92799 2.27415,1.87717 3.63696,1.60382 8.00024,-1.60464 l 5.2591,-3.86721 0,4.11981 c 0,4.96655 3.43665,8.78735 6.76222,7.5181 1.32978,-0.50752 2.73176,-0.92276 3.11559,-0.92276 z m -10.22872,-17.49023 c -0.71563,-4.84963 -0.48154,-5.12258 2.89739,-3.37851 2.02176,1.04357 3.88084,2.05971 4.13128,2.25812 0.25044,0.1984 -1.05337,1.71873 -2.89738,3.37851 -3.20767,2.88719 -3.38642,2.7895 -4.13129,-2.25812 z m 146.15429,-1.46496 c 16.96661,-18.06948 28.4239,-33.04628 28.4239,-37.15545 0,-1.83304 -1.02212,-4.72305 -2.27136,-6.42225 -2.10456,-2.86261 -4.09554,-2.26911 -27.1119,8.08127 -13.6623,6.14391 -25.7854,11.77146 -26.94025,12.5057 -1.84775,1.17476 1.60617,14.15102 9.16458,34.431 1.7138,4.59833 6.3114,1.79089 18.73503,-11.44027 z M 102.633,337.9692 c 5.54889,-8.74655 9.77979,-16.82507 9.40201,-17.9523 -0.37777,-1.12719 -5.84628,-3.32035 -12.15222,-4.8737 l -11.23719,-4.53563 -0.78487,-6.24562 c -0.547,-4.35279 -1.18735,-8.59465 -1.95816,-9.37405 -0.7708,-0.77941 -6.43322,4.22781 -12.58321,11.12713 -9.78039,10.9721 -10.9529,13.03336 -9.35569,16.44693 2.39566,5.12005 24.99221,31.31004 27.0141,31.31004 0.86147,0 6.10633,-7.15627 11.65523,-15.9028 z m 203.56852,-61.07112 c 0,-1.48987 -4.40572,-16.01134 -9.79048,-32.26995 -14.45858,-43.65589 -35.26121,-83.54441 -42.37094,-81.24517 -3.83507,1.24024 -6.59746,9.86278 -7.69509,24.0196 -0.98575,12.71371 -0.71504,14.57068 2.76546,18.97149 4.50662,5.69826 2.59364,9.32532 -3.06468,5.81075 -2.02643,-1.25869 -4.17548,-1.80014 -4.77566,-1.20318 -2.11396,2.10251 -4.55148,26.12542 -4.03631,39.77961 l 0.52127,13.81586 15.11154,1.01252 c 11.59668,0.777 18.83319,2.49784 31.11202,7.39838 17.82892,7.11561 22.22287,7.88874 22.22287,3.91009 z m -98.05231,-1.38609 c 1.06783,-1.2797 2.49058,-6.97322 3.16168,-12.65229 0.95455,-8.07782 0.73303,-10.02612 -1.01763,-8.95001 -2.46238,1.51361 -10.71648,18.19887 -10.74413,21.71876 -0.0229,2.92259 6.13376,2.83922 8.60008,-0.11649 z m 234.81802,-13.21062 c 2.02555,-5.14174 3.68281,-10.88543 3.68281,-12.76381 0,-4.25545 -12.02344,-13.21818 -40.05803,-29.86082 -29.18877,-17.32779 -32.75061,-17.06313 -14.6616,1.08943 6.08305,6.1044 12.48322,11.09893 14.22265,11.09893 1.90986,0 3.16256,1.31652 3.16256,3.32368 0,1.82802 3.40009,7.79336 7.55578,13.25629 4.15566,5.46295 10.23908,13.59202 13.51866,18.0646 3.2796,4.47259 6.62248,7.45886 7.42865,6.63615 0.80613,-0.82274 3.12297,-5.70273 5.14852,-10.84445 z m -88.21568,-4.90586 c 10.41302,-5.40866 19.37947,-10.55283 19.92548,-11.43147 2.15596,-3.46957 -29.55217,-46.20018 -44.08633,-59.41176 -8.15054,-7.40884 -12.75801,-9.90992 -26.76735,-14.53022 -9.30718,-3.06952 -19.34771,-5.58095 -22.31227,-5.58095 l -5.39014,0 8.68632,11.41417 c 13.10383,17.21892 27.05202,43.91318 44.15872,84.51154 1.12689,2.67443 3.12978,4.86259 4.45084,4.86259 1.32108,0 10.9217,-4.42526 21.33473,-9.8339 z M 158.8743,253.52574 c 18.29599,-24.94872 40.66181,-49.87309 52.21335,-58.18636 3.52213,-2.53479 3.51583,-2.59158 -0.66927,-6.02584 -7.71002,-6.32676 -11.94248,-6.16775 -22.56612,0.84784 -14.44134,9.53665 -62.98935,56.25792 -62.98935,60.61921 0,1.51791 21.40649,12.3304 25.27802,12.76801 0.7025,0.0793 4.63251,-4.43086 8.73337,-10.02286 z m -107.28634,-4.4836 c 40.13489,-27.13976 92.45635,-56.55678 118.60962,-66.68669 5.86683,-2.27241 11.04382,-4.43892 11.50439,-4.81449 1.78603,-1.45634 -4.6803,-3.97414 -10.27268,-3.99991 -16.72921,-0.0771 -103.77124,27.49583 -144.79143,45.86654 -9.74808,4.36562 -9.84772,4.84067 -4.80895,22.9254 4.08419,14.65855 6.33328,19.59178 8.9321,19.59178 0.97667,0 10.34881,-5.79718 20.82695,-12.88263 z M 236.01858,184.1212 c 1.12773,-4.37521 3.3769,-10.49576 4.99815,-13.60126 1.89395,-3.62788 2.299,-6.04513 1.13302,-6.76183 -2.65187,-1.63007 -10.9563,0.62615 -15.07695,4.0963 -4.54441,3.82702 -11.54057,12.7466 -11.54057,14.71337 0,2.24711 12.94329,10.29084 15.88481,9.87179 1.40696,-0.20044 3.4707,-3.93111 4.60154,-8.31837 z m -207.82411,0.69626 c 41.67946,-18.3997 68.92116,-25.60437 97.55738,-25.80133 22.41713,-0.15418 37.92337,2.90216 57.2665,11.28745 l 12.82076,5.55784 8.43247,-6.53414 c 14.26953,-11.05719 35.74878,-15.08791 62.96379,-11.81561 20.57011,2.47334 34.90983,6.02387 48.31405,11.96261 l 10.23681,4.5354 17.96235,-8.29195 c 35.06411,-16.18661 48.10674,-16.86026 86.42354,-4.46374 12.93778,4.18572 24.0665,7.07008 24.7305,6.40966 2.65212,-2.63778 -3.70041,-22.64333 -13.26065,-41.7608 -13.35174,-26.699288 -25.73162,-40.079261 -50.62957,-54.719632 -9.97826,-5.867377 -22.94243,-11.914893 -28.80926,-13.43895 -12.85589,-3.339641 -45.08465,-3.379167 -57.69442,-0.07067 -15.61465,4.096794 -42.60985,18.810839 -54.37903,29.639927 -6.07745,5.591982 -11.96929,10.167239 -13.09302,10.167239 -1.12372,0 -7.16487,-4.201812 -13.42479,-9.337342 C 203.78474,71.877517 170.44327,56.985514 147.4579,54.129198 110.80062,49.573942 59.22239,76.40454 36.82473,111.6797 c -11.67938,18.39445 -24.142581,60.35637 -22.435731,75.53803 0.34926,3.10632 1.970551,2.82441 13.805471,-2.40018 z m 184.46654,-8.58895 c 4.03648,-6.12713 3.62453,-6.72923 -2.46227,-3.59863 -5.30674,2.72938 -6.40872,4.52995 -4.14827,6.77815 2.07178,2.06055 3.66246,1.2955 6.61054,-3.17952 z"
       style="fill:#58b252"
       inkscape:export-filename="/home/alvin/path3006.png"
       inkscape:export-xdpi="90"
       inkscape:export-ydpi="90" />
    <path
       sodipodi:nodetypes="ssssssssssssssssssssssssssssssssssssssssssssssscscssssssssssssssssssscsscssssssssscccssssssssssssssssssssssssssssssssssssssscssscssccsscsscsscssscssssssssssssscc"
       inkscape:connector-curvature="0"
       id="path3003"
       d="M 197.81954,446.83564 C 149.00951,412.55112 119.32072,388.87583 94.54735,364.48129 43.44737,314.16275 16.9317,264.96643 10.906579,209.29695 4.363189,148.83931 35.22078,87.955673 84.60455,63.886979 c 19.49827,-9.503101 33.98564,-12.945495 54.48101,-12.945495 28.96029,0 53.1943,8.853098 80.58518,29.439149 8.63193,6.487483 16.12112,11.795398 16.64266,11.795398 0.52152,0 4.65936,-3.080108 9.19519,-6.844674 22.83074,-18.948659 48.33496,-30.619219 74.2554,-33.978776 37.39141,-4.846329 75.834,10.19584 104.29931,40.811201 13.37846,14.388978 27.56631,40.333018 32.40026,59.247488 8.50862,33.29283 5.95842,73.4114 -6.81038,107.13784 -20.40033,53.88371 -58.56314,100.04377 -125.67337,152.00896 -21.82696,16.9012 -85.94184,61.7844 -88.25792,61.7844 -0.87387,0 -17.92992,-11.47808 -37.90235,-25.50683 z m 47.93579,13.12932 c 3.70372,-2.91755 7.19245,-5.30464 7.75273,-5.30464 2.16394,0 51.03971,-35.01171 70.72048,-50.65996 25.42388,-20.21466 58.34404,-50.10817 69.13587,-62.7796 10.29044,-12.08269 19.50687,-23.86785 19.50687,-24.94365 0,-0.46067 3.71033,-6.31389 8.24516,-13.00715 15.16196,-22.3786 26.97262,-51.03016 32.70686,-79.34389 2.85172,-14.08079 3.22324,-44.29405 0.57718,-46.93794 -3.43346,-3.43068 -47.94417,-17.60169 -58.84599,-18.73501 -6.76053,-0.70281 -13.9585,-0.1365 -20.96897,1.64983 -12.79106,3.25917 -38.1609,14.48428 -38.1609,16.88459 0,0.9386 5.34402,4.62809 11.87558,8.19888 15.17725,8.29735 32.57015,21.58325 32.57015,24.87934 0,4.48085 -5.05261,2.76077 -15.55362,-5.29497 -12.5792,-9.65003 -43.36721,-26.16408 -59.73217,-32.03913 -13.74654,-4.93505 -39.0399,-9.12225 -56.27359,-9.31584 -12.37468,-0.13899 -26.84981,3.21002 -37.72535,8.72831 -7.72319,3.91875 -8.45284,6.30691 -2.6028,8.51905 2.26467,0.85637 7.25212,3.67269 11.08321,6.25848 3.83109,2.5858 9.50768,5.90121 12.61462,7.36759 8.83598,4.17029 21.20571,16.25035 18.94371,18.50012 -1.34285,1.33558 -6.581,-1.25227 -17.95321,-8.8696 -8.83144,-5.9155 -16.66256,-10.75543 -17.40251,-10.75543 -0.73994,0 -2.61205,-1.14014 -4.16023,-2.53364 -3.99505,-3.59593 -30.54786,-14.75504 -46.66593,-19.6119 -34.96582,-10.53624 -69.28784,-6.69654 -120.97954,13.53432 -32.014161,12.52952 -30.544901,10.73374 -27.29895,33.36625 3.54575,24.72308 6.50828,34.07696 18.76084,59.23524 19.34587,39.72309 49.47064,75.94656 92.71349,111.48321 9.41002,7.73308 20.21033,16.63195 24.00069,19.77529 3.79038,3.14335 15.69184,11.85431 26.4477,19.35771 10.75588,7.50339 27.15635,19.01491 36.44552,25.58112 9.28915,6.56623 18.37428,11.97888 20.18919,12.02815 1.8149,0.0494 6.33017,-2.29757 10.03391,-5.21513 z m -7.97422,-88.3822 c -2.22465,-2.44492 -4.48466,-3.1851 -7.4585,-2.44274 -2.82265,0.70461 -5.48124,-0.0282 -7.85529,-2.16501 -1.98876,-1.79007 -5.77976,-3.06403 -8.50354,-2.85761 -3.27937,0.24852 -6.30583,-1.10003 -9.09448,-4.05234 -2.49719,-2.64377 -6.15049,-4.42484 -9.07612,-4.42484 -6.61762,0 -10.48405,-4.29925 -10.48405,-11.65763 0,-6.98936 -0.99781,-7.57398 -20.44505,-11.97948 -6.84463,-1.55058 -21.64506,-5.2831 -32.88984,-8.29455 -11.24476,-3.01148 -25.24175,-6.64352 -31.10438,-8.07127 -5.86266,-1.42778 -11.44105,-3.37338 -12.39642,-4.32358 -2.24258,-2.23044 -1.51218,-72.51884 0.77724,-74.79587 1.0615,-1.05578 9.11352,2.11975 21.75984,8.5816 18.4681,9.43655 48.09222,22.7193 69.80416,31.29859 8.83398,3.49064 22.25079,3.30658 26.74675,-0.36695 0.99399,-0.81213 7.93523,-3.52264 15.42499,-6.02327 21.19244,-7.07559 35.65939,-6.429 60.1131,2.68675 21.52999,8.02585 22.09172,8.00842 41.65747,-1.29258 4.82759,-2.29492 9.30368,-4.17254 9.9469,-4.17254 0.6432,0 16.29392,-7.94688 34.77938,-17.65973 18.48547,-9.71282 35.00999,-17.6698 36.72115,-17.68216 2.01462,-0.014 3.15128,1.3798 3.22492,3.95605 0.27847,9.74087 -0.57485,37.22495 -1.6286,52.45414 l -1.15187,16.64779 -24.88961,11.29606 c -37.27596,16.91757 -38.54543,17.46401 -46.22355,19.8979 -3.91123,1.23979 -8.71138,3.66165 -10.66699,5.38191 -1.95561,1.72025 -6.16963,3.67775 -9.3645,4.34999 -3.91092,0.8229 -6.68063,2.89897 -8.47702,6.35404 -1.56882,3.01734 -4.66928,5.60227 -7.52488,6.27368 -2.67118,0.62804 -7.5806,3.16108 -10.90982,5.62901 -5.16821,3.83113 -8.22177,4.55785 -20.88787,4.97107 -9.87994,0.32233 -16.155,1.40372 -18.78761,3.2377 -5.19116,3.61638 -7.28841,3.47436 -11.13591,-0.75412 z m 10.7407,-1.79681 c 0.38382,0 1.87135,-2.25701 3.30561,-5.01554 2.23641,-4.30135 2.25792,-5.68624 0.15111,-9.7252 -2.89979,-5.55917 -1.14025,-6.04218 4.69131,-1.28787 3.99716,3.25882 4.04326,3.53549 0.96804,5.80867 -3.09098,2.28485 -3.06513,2.53438 0.60503,5.83788 3.7404,3.36674 3.89356,3.37005 6.27057,0.13687 2.15923,-2.93697 3.06053,-3.05705 7.91977,-1.05519 7.32754,3.01874 15.07109,-0.0829 13.65483,-5.46953 -0.83764,-3.18583 -0.34369,-3.46532 4.32265,-2.44596 7.46048,1.62973 14.7068,-3.24441 13.27263,-8.92768 -0.97018,-3.8446 -0.45411,-4.21874 6.51018,-4.71973 5.84212,-0.42024 7.96337,-1.44975 9.31886,-4.5226 1.2049,-2.73154 3.27993,-3.97849 6.62057,-3.97849 8.6111,0 73.17291,-27.65121 77.40474,-33.15171 2.67447,-3.47625 3.19152,-61.52746 0.56241,-63.14354 -0.91293,-0.56118 -20.89496,8.50491 -44.40451,20.14685 -23.50953,11.64196 -45.86774,22.09783 -49.68491,23.23529 -6.41707,1.91222 -8.33984,1.52387 -25.50624,-5.15158 -16.89255,-6.56893 -19.15732,-7.03918 -25.12667,-5.21703 -5.64992,1.72462 -6.87493,1.57526 -8.82427,-1.07624 -2.09229,-2.84591 -3.06571,-2.88301 -12.86447,-0.49026 -5.8305,1.42377 -17.74175,5.13876 -26.46946,8.25557 -18.89789,6.7488 -22.68453,6.47286 -43.93185,-3.20145 -8.17763,-3.72342 -19.26855,-8.69676 -24.64649,-11.05187 -5.37794,-2.35509 -18.50109,-8.5012 -29.16254,-13.65801 -10.66147,-5.15683 -19.96093,-8.74224 -20.66543,-7.96759 -2.41627,2.65678 -3.49897,63.53683 -1.18149,66.43406 1.16554,1.45709 10.91942,4.70955 21.67528,7.22763 37.89665,8.87211 76.47366,19.20292 78.82523,21.10921 1.91978,1.55622 1.66258,2.19159 -1.33336,3.29386 -4.56709,1.68035 -4.72812,5.14441 -0.48163,10.36026 2.75032,3.37813 3.80701,3.66075 7.11131,1.9019 2.13455,-1.1362 3.88156,-3.43029 3.88226,-5.09798 8e-4,-1.94283 1.51464,-3.11866 4.21373,-3.27288 3.93315,-0.22474 4.08292,0.10056 2.25866,4.90759 -1.37253,3.6165 -1.39829,6.02423 -0.0866,8.09243 2.82068,4.44751 4.97782,4.50851 10.36601,0.29306 3.96719,-3.10372 4.77791,-4.96304 4.22348,-9.68631 -0.59078,-5.03313 -0.30485,-5.55831 2.05795,-3.77986 1.50922,1.136 3.02566,2.23913 3.36985,2.45142 0.34418,0.2123 -0.65584,2.20591 -2.22229,4.43023 -3.60164,5.11426 -3.64692,11.00601 -0.10702,13.92799 2.27415,1.87717 3.63696,1.60382 8.00024,-1.60464 l 5.2591,-3.86721 0,4.11981 c 0,4.96655 3.43665,8.78735 6.76222,7.5181 1.32978,-0.50752 2.73176,-0.92276 3.11559,-0.92276 z m -10.22872,-17.49023 c -0.71563,-4.84963 -0.48154,-5.12258 2.89739,-3.37851 2.02176,1.04357 3.88084,2.05971 4.13128,2.25812 0.25044,0.1984 -1.05337,1.71873 -2.89738,3.37851 -3.20767,2.88719 -3.38642,2.7895 -4.13129,-2.25812 z M 28.19447,184.81746 c 41.67946,-18.3997 68.92116,-25.60437 97.55738,-25.80133 22.41713,-0.15418 37.92337,2.90216 57.2665,11.28745 l 12.82076,5.55784 8.43247,-6.53414 c 14.26953,-11.05719 35.74878,-15.08791 62.96379,-11.81561 20.57011,2.47334 34.90983,6.02387 48.31405,11.96261 l 10.23681,4.5354 17.96235,-8.29195 c 35.06411,-16.18661 48.10674,-16.86026 86.42354,-4.46374 12.93778,4.18572 24.0665,7.07008 24.7305,6.40966 2.65212,-2.63778 -3.70041,-22.64333 -13.26065,-41.7608 -13.35174,-26.699288 -25.73162,-40.079261 -50.62957,-54.719632 -9.97826,-5.867377 -22.94243,-11.914893 -28.80926,-13.43895 -12.85589,-3.339641 -45.08465,-3.379167 -57.69442,-0.07067 -15.61465,4.096794 -42.60985,18.810839 -54.37903,29.639927 -6.07745,5.591982 -11.96929,10.167239 -13.09302,10.167239 -1.12372,0 -7.16487,-4.201812 -13.42479,-9.337342 C 203.78474,71.877517 170.44327,56.985514 147.4579,54.129198 110.80062,49.573942 59.22239,76.40454 36.82473,111.6797 c -11.67938,18.39445 -24.142581,60.35637 -22.435731,75.53803 0.34926,3.10632 1.970551,2.82441 13.805471,-2.40018 z"
       style="fill:#606558"
       inkscape:export-xdpi="90"
       inkscape:export-ydpi="90"
       inkscape:export-filename="/home/alvin/path3006.png" />
    <path
       sodipodi:nodetypes="sssssssscsscccccssssssscsssscssscsssssssscccccsscssscssssscss"
       style="fill:#606558;fill-opacity:1"
       d="m 322.97691,456.18962 c -0.43081,-1.24675 -1.65284,-1.20524 -1.92686,-5.03505 -0.48945,-6.84175 3.5041,-8.00061 -7.35355,-11.90442 -6.07771,-2.18518 -12.99786,-5.2641 -16.1669,-7.23647 -7.48375,-4.65776 -11.27592,-1.94001 -16.254,3.39621 -2.25798,2.4204 -5.04674,0.20569 -6.59171,0.20569 -2.8442,0 -22.47886,-19.74569 -22.47886,-22.4677 0,-0.81231 -0.37722,-4.10685 3.06336,-6.93582 l 5.32223,-6.74971 -0.0974,-0.83118 c -0.58717,-5.0123 -4.56564,-14.63374 -7.81376,-20.06294 l -5.13486,-8.58287 -10.27555,0.088 -9.30741,-5.07522 0,-16.72277 0.3227,-20.59514 8.47095,-0.16 c 11.22776,-0.21206 8.92245,1.67981 11.17868,-6.04999 1.20734,-4.13634 4.48352,-8.87212 7.28038,-14.468 6.19089,-12.38646 6.56128,-8.80468 1.03795,-14.03007 -2.40348,-2.27387 -4.6927,-7.98878 -4.6927,-9.54462 0,-2.86419 20.25766,-23.28465 22.96066,-23.28465 0.80664,0 2.83296,-2.81371 6.08058,0.0578 l 9.13174,8.12523 11.75391,-5.69048 c 7.89336,-3.82146 15.27364,-6.33584 16.81464,-6.33584 4.48085,0 2.80003,-3.42645 2.8288,-10.15108 0.044,-10.24098 5.79639,-7.4007 22.99276,-9.63709 l 17.19764,0.51287 0.15661,4.31281 c 0.42409,11.67851 -0.98237,13.32932 6.62929,15.39337 4.04566,1.09702 12.1591,4.11061 18.83316,7.01077 l 8.57315,3.72538 8.22517,-7.21153 c 3.29359,-2.8877 5.70562,-3.66186 6.57021,-3.66186 2.68771,0 23.50065,21.16105 23.50065,24.03616 0,1.49746 2.22855,7.16462 -0.17497,9.43849 -5.41705,5.12486 -7.71003,7.48904 -2.49779,16.56812 2.2721,3.95771 2.62028,6.38944 4.3234,11.71433 1.70311,5.32489 3.81911,8.94313 4.77648,9.84368 0,0 5.3845,0.25679 9.90942,0.79222 l 5.32525,0.63014 0,18.98167 0.64539,18.98163 -6.72587,1.84827 -10.59822,0.55743 -3.52138,7.93748 c -2.56561,5.7831 -5.84347,9.93107 -7.81378,14.57712 l -2.67891,6.317 6.29031,6.42702 c 3.11561,3.18332 3.254,4.71765 2.41797,6.39229 -1.83661,3.67892 -7.36222,9.57567 -13.59862,15.80105 l -12.30782,12.28608 -3.85027,-3.06635 c -3.47882,-2.77053 -6.79714,-6.29102 -7.47351,-6.61599 -2.68656,-1.29078 -5.06956,1.08315 -11.96458,4.37895 -6.89503,3.29584 -14.44821,7.17285 -17.57368,7.8268 -5.83666,1.22121 4.60177,14.74288 -6.53123,15.72419 l -4.99704,0.44047 -11.68079,-0.13887 c -12.01028,-0.14279 -19.95093,-0.403 -20.53146,-2.08298 z"
       id="path3127"
       inkscape:connector-curvature="0"
       inkscape:export-filename="/home/alvin/path3006.png"
       inkscape:export-xdpi="90"
       inkscape:export-ydpi="90" />
    <path
       style="fill:#d4d8da;fill-opacity:1"
       d="m 309.60474,358.34976 c -5.77725,-14.74924 6.95079,-45.66025 35.10946,-47.95668 2.48991,-0.71516 18.39758,8.69818 28.43549,14.85676 7.87482,4.83145 7.20325,15.71306 0.12723,33.34318 -6.11128,15.22608 -16.68381,18.38411 -31.19877,18.57351 -33.46874,-13.88994 -24.52008,-10.09149 -32.47321,-18.81677 z"
       id="path3167-64"
       inkscape:connector-curvature="0"
       sodipodi:nodetypes="ccsscc"
       inkscape:export-filename="/home/alvin/path3006.png"
       inkscape:export-xdpi="90"
       inkscape:export-ydpi="90" />
    <path
       inkscape:connector-curvature="0"
       id="path3125"
       d="m 326.94733,450.64885 c -0.39948,-1.11588 -0.93419,-4.83345 -1.18827,-8.26125 -0.45387,-6.12362 -0.64069,-6.29438 -10.70871,-9.78841 -5.63571,-1.95583 -12.65107,-5.00041 -15.58963,-6.76573 -6.9395,-4.16887 -9.25897,-4.04696 -13.87503,0.72914 -2.09376,2.16634 -4.97895,3.93881 -6.41157,3.93881 -2.63734,0 -21.14331,-17.09546 -21.14331,-19.53177 0,-0.72703 2.22082,-3.78046 4.93518,-6.78545 l 4.93516,-5.46358 -4.27947,-7.09806 c -2.35371,-3.90392 -5.88349,-11.46471 -7.84396,-16.80176 l -3.56452,-9.70373 -8.03211,-0.78776 -8.03209,-0.78778 0,-14.96749 0,-14.96751 4.86263,-0.43202 c 10.36925,-0.92126 11.56509,-1.67357 13.65723,-8.59202 1.11952,-3.70218 4.15745,-10.8291 6.75092,-15.83762 5.74065,-11.08632 5.78488,-12.21287 0.66322,-16.88979 -2.2287,-2.03519 -4.05219,-4.83965 -4.05219,-6.23218 0,-2.56356 17.58752,-20.55177 20.09396,-20.55177 0.74796,0 3.82383,2.10282 6.83527,4.67293 l 5.47538,4.67294 13.29292,-6.24846 c 7.31112,-3.43665 14.46209,-6.24846 15.89103,-6.24846 4.15496,0 6.48633,-3.35561 6.51302,-9.37439 0.0407,-9.16606 1.06008,-9.71368 17.13145,-9.2032 l 14.4508,0.45904 0.44446,4.72658 c 0.97951,10.41676 1.78212,11.6414 8.84023,13.48879 3.75144,0.98188 11.74468,4.19549 17.76274,7.14137 l 10.94196,5.35611 5.53241,-4.72163 c 3.04283,-2.5969 6.18835,-4.72162 6.99005,-4.72162 2.49226,0 19.99622,18.07344 19.99622,20.64677 0,1.34027 -1.82348,4.10199 -4.05219,6.13718 -5.02311,4.58694 -5.05472,6.70298 -0.22154,14.82908 2.10685,3.54229 5.12276,10.33996 6.70202,15.10592 1.57926,4.76598 3.1684,8.99061 3.53142,9.3881 0.36302,0.39747 4.09402,1.10646 8.29108,1.57553 l 7.63103,0.85282 0,14.96751 0,14.96749 -8.03211,0.78778 -8.03209,0.78776 -3.56452,9.70373 c -1.96048,5.33705 -5.49026,12.89784 -7.84397,16.80176 l -4.27946,7.09806 4.93516,5.46358 c 2.71434,3.00499 4.93517,6.09946 4.93517,6.87664 0,0.77718 -4.73178,5.97156 -10.51507,11.54308 l -10.51505,10.13002 -5.36564,-5.05508 c -2.95111,-2.78028 -5.93495,-5.05507 -6.63077,-5.05507 -0.69583,0 -6.49624,2.41355 -12.88983,5.36342 -6.39359,2.94989 -13.99592,5.84232 -16.89408,6.42763 -5.4122,1.09301 -6.3164,2.66747 -7.25317,12.6296 l -0.44446,4.72658 -15.02049,0.45336 c -11.13218,0.336 -15.20851,-0.0718 -15.74682,-1.57552 z m -43.49349,-29.99448 c 3.65846,-4.37248 29.07089,-16.53767 40.70672,-19.48673 10.22972,-2.59267 29.3759,-2.8261 38.41671,-0.46837 8.14749,2.12477 28.46852,10.96466 31.31762,13.62352 1.17802,1.0994 2.89654,1.99888 3.81891,1.99888 0.92238,0 3.11139,1.77247 4.86449,3.93882 3.97526,4.91233 5.38512,4.91245 12.00964,7.1e-4 7.42033,-5.50142 8.42971,-9.59876 3.32598,-13.50104 -2.2481,-1.71887 -4.59358,-4.70195 -5.21217,-6.62907 -0.61858,-1.92711 -1.57344,-3.86031 -2.1219,-4.29601 -2.07519,-1.64855 -8.70152,-14.84148 -11.67802,-23.25074 -2.24102,-6.33143 -3.09661,-13.09782 -3.09661,-24.48941 0,-18.33606 3.65653,-30.68758 12.41147,-41.92513 2.97998,-3.825 5.41815,-8.19315 5.41815,-9.70699 0,-1.51383 2.18819,-4.54215 4.86263,-6.7296 2.67444,-2.18743 4.86263,-4.58429 4.86263,-5.32635 0,-0.74207 -3.27778,-4.4761 -7.28394,-8.29783 l -7.28393,-6.94864 -5.35501,5.04506 c -2.94526,2.77479 -6.63951,5.04508 -8.20944,5.04508 -1.56992,0 -5.54686,2.08393 -8.83765,4.63096 -5.69189,4.40545 -16.6545,13.82901 -25.74395,13.30884 -7.69479,0.87995 -22.23865,-0.22354 -31.5749,-2.18453 -5.04301,0 -23.92839,-7.54293 -30.00521,-11.98425 -2.83783,-2.07405 -6.45008,-3.77102 -8.02721,-3.77102 -1.57713,0 -5.18325,-2.1817 -8.01358,-4.84823 l -5.14608,-4.84817 -5.93394,5.06429 c -9.41593,8.03598 -10.06121,10.3121 -4.26712,15.05109 2.7173,2.22251 4.96678,5.5731 4.99884,7.44578 0.0321,1.87269 1.87101,5.53186 4.08656,8.13148 2.21554,2.59961 5.88591,10.5932 8.15637,17.76354 3.49603,11.0408 4.02575,15.26246 3.45956,27.57171 -0.77977,16.95298 -2.4972,23.84685 -9.22387,37.02525 -2.70383,5.29708 -4.91603,10.35515 -4.91603,11.24014 0,0.88499 -2.27081,4.12301 -5.04624,7.19561 -5.54614,6.13999 -5.27882,7.32032 3.30745,14.60323 5.24425,4.4482 7.23661,4.44962 10.95307,0.008 z"
       style="fill:#d4d8da;fill-opacity:1"
       sodipodi:nodetypes="sssssssscsscccccssssssscsssscssscsssssssscccccsscssscssssscsscsssssssssssssssscsssccssscsscssssssscc"
       inkscape:export-filename="/home/alvin/path3006.png"
       inkscape:export-xdpi="90"
       inkscape:export-ydpi="90" />
  </g>
</svg>
